<svg width="382" height="77" viewBox="0 0 382 77" fill="none" xmlns="http://www.w3.org/2000/svg">
<path d="M306.562 66.3281C304.281 68.0156 300.625 70.0469 295.594 72.4219C290 75.1094 286.109 76.4531 283.922 76.4531C282.641 76.4531 281.578 75.9844 280.734 75.0469C279.922 74.1094 279.516 73.0156 279.516 71.7656C279.516 69.9219 280.578 68.5312 282.703 67.5938L290.531 64.9219C295.375 62.9531 299.203 60.6875 302.016 58.125C304.828 55.5625 307.391 51.9219 309.703 47.2031L311.719 43.1719C309.969 44.1719 307.719 45.0938 304.969 45.9375C302.219 46.7812 299.984 47.2031 298.266 47.2031C292.359 47.2031 287.25 45.5625 282.938 42.2812C277.688 38.2812 275.062 32.5938 275.062 25.2188C275.062 16.5 277.75 9.95312 283.125 5.57812C287.719 1.85938 293.75 0 301.219 0C306.969 0 312.125 2.34375 316.688 7.03125C321.5 12 323.922 18 323.953 25.0312C323.984 32.9688 322.516 40.6719 319.547 48.1406C316.359 56.2031 312.031 62.2656 306.562 66.3281ZM299.906 8.01562C294.656 8.01562 290.703 9.375 288.047 12.0938C285.422 14.8125 284.094 18.9062 284.062 24.375C284.062 28.9688 285.672 32.5312 288.891 35.0625C291.734 37.2812 295.312 38.3906 299.625 38.3906C302.125 38.3906 304.734 37.6406 307.453 36.1406C308.703 35.4531 310.953 33.9062 314.203 31.5C314.609 28.7812 314.812 26.625 314.812 25.0312C314.781 21.125 313.125 17.3125 309.844 13.5938C306.594 9.875 303.281 8.01562 299.906 8.01562Z" fill="url(#paint0_linear)"/>
<path d="M357.188 74.5312C350.594 74.5312 345.266 73.0938 341.203 70.2188C336.578 66.9688 334.219 62.2031 334.125 55.9219C334 45.8281 337.547 38.9531 344.766 35.2969C339.203 31.9219 336.422 27.125 336.422 20.9062C336.422 15 338.562 10.0938 342.844 6.1875C346.938 2.4375 351.906 0.53125 357.75 0.46875C370.875 0.34375 377.438 6.82812 377.438 19.9219C377.438 23.6719 376.688 26.5625 375.188 28.5938C373.969 30.2812 371.609 32.0156 368.109 33.7969C372.766 36.1406 376.031 38.6719 377.906 41.3906C380.094 44.5781 381.188 48.9688 381.188 54.5625C381.188 60.9375 378.828 65.9375 374.109 69.5625C369.734 72.875 364.094 74.5312 357.188 74.5312ZM357.609 8.85938C353.578 8.85938 350.5 10 348.375 12.2812C346.469 14.4062 345.531 17.2812 345.562 20.9062C345.594 25.2812 349.188 28.3906 356.344 30.2344C360.094 29.1406 362.781 28.0469 364.406 26.9531C367 25.2031 368.297 22.8594 368.297 19.9219C368.297 15.6719 367.344 12.6875 365.438 10.9688C363.812 9.5625 361.203 8.85938 357.609 8.85938ZM356.766 38.5312C351.797 40.8438 348.484 42.8438 346.828 44.5312C344.234 47.125 343.016 50.7812 343.172 55.5C343.297 59.4062 345.094 62.3281 348.562 64.2656C351.094 65.6406 353.969 66.3281 357.188 66.3281C362.688 66.3281 366.531 65.0312 368.719 62.4375C370.469 60.375 371.344 57.25 371.344 53.0625C371.344 48.9688 369.75 45.6719 366.562 43.1719C364.438 41.4531 361.172 39.9062 356.766 38.5312Z" fill="url(#paint1_linear)"/>
<path d="M49.75 53.3438C48.9583 53.3438 48.2188 53.0104 47.5312 52.3438C40.6354 45.5312 32.9688 40.9479 24.5312 38.5938L24.7812 44.7188L24.9375 50.875C24.9375 51.7917 24.6354 52.5521 24.0312 53.1562C23.4479 53.7812 22.7083 54.0938 21.8125 54.0938C20.9167 54.0938 20.1667 53.7812 19.5625 53.1562C18.9792 52.5521 18.6875 51.7917 18.6875 50.875C18.6875 49.2292 18.6042 46.7812 18.4375 43.5312C18.2917 40.2604 18.2188 37.8021 18.2188 36.1562C18.2188 34.2396 18.4271 31.3854 18.8438 27.5938C19.2604 23.8021 19.4688 20.9583 19.4688 19.0625C19.4688 18 19.3646 16.4271 19.1562 14.3438C18.9688 12.2604 18.875 10.6875 18.875 9.625C18.875 8.4375 19.2083 7.39583 19.875 6.5C20.6667 5.39583 21.7604 4.89583 23.1562 5L30.6875 5.59375C33.5417 5.94792 35.9479 6.64583 37.9062 7.6875C46.3438 12.1667 50.5625 17.6354 50.5625 24.0938C50.5625 27.2604 49.125 30.0625 46.25 32.5C43.9375 34.4583 41.0521 35.9479 37.5938 36.9688C44.0729 40.4479 48.9167 44.1146 52.125 47.9688C52.6667 48.6354 52.9375 49.3438 52.9375 50.0938C52.9375 50.9688 52.6146 51.7292 51.9688 52.375C51.3438 53.0208 50.6042 53.3438 49.75 53.3438ZM29.8438 12.0312L25.2188 11.6562L25.5312 15.4375C25.6771 16.9792 25.75 18.2396 25.75 19.2188C25.75 20.8854 25.6146 22.9583 25.3438 25.4375L24.6875 31.6562C24.9792 31.6562 25.4271 31.6667 26.0312 31.6875C26.6562 31.7083 27.125 31.7188 27.4375 31.7188C32.75 31.7188 36.7292 31.0104 39.375 29.5938C40.5417 28.9479 41.625 28.1042 42.625 27.0625C43.7292 25.8958 44.2812 24.9062 44.2812 24.0938C44.2812 21.1979 42.6354 18.5 39.3438 16C36.3229 13.7083 33.1562 12.3854 29.8438 12.0312Z" fill="url(#paint2_linear)"/>
<path d="M83.5625 55.0625C83.1667 55.0625 82.4479 54.6042 81.4062 53.6875C80.4688 52.8333 79.7708 52.0729 79.3125 51.4062C77.3125 52.4896 75.5521 53.3021 74.0312 53.8438C72.5104 54.4062 71.2396 54.6875 70.2188 54.6875C65.3438 54.6875 61.7917 53.3125 59.5625 50.5625C57.4583 47.9792 56.4062 44.0208 56.4062 38.6875C56.4062 33.6458 58.1354 29.3333 61.5938 25.75C65.0729 22.1667 69.2188 20.375 74.0312 20.375C75.8438 20.375 77.875 20.8438 80.125 21.7812C82.9583 22.9479 84.375 24.3542 84.375 26C84.375 26.5625 84.1667 27.0625 83.75 27.5C83.5417 28.2917 83.375 29.5938 83.25 31.4062C83.1458 33.2188 83.0833 35.5417 83.0625 38.375C83.0417 40.9583 83.2188 43 83.5938 44.5C83.8021 45.4167 84.4583 47.25 85.5625 50C85.7083 50.375 85.9479 50.9271 86.2812 51.6562L86.4688 52.1875C86.4688 53.0208 86.1771 53.7083 85.5938 54.25C85.0104 54.7917 84.3333 55.0625 83.5625 55.0625ZM77.0625 33.3438C77.0625 32.4479 77.1146 31.4792 77.2188 30.4375C77.3438 29.375 77.5208 28.25 77.75 27.0625C76.9792 26.6667 76.3125 26.375 75.75 26.1875C75.2083 26 74.7708 25.9062 74.4375 25.9062C71.2083 25.9062 68.4167 27.2292 66.0625 29.875C63.7292 32.5 62.5625 35.5312 62.5625 38.9688C62.5625 42.3854 63.1667 44.9479 64.375 46.6562C65.5833 48.3646 67.3958 49.2188 69.8125 49.2188C71.8125 49.2188 73.5104 48.8542 74.9062 48.125C75.6562 47.7292 76.7083 46.9375 78.0625 45.75C77.3958 40.2292 77.0625 36.0938 77.0625 33.3438Z" fill="url(#paint3_linear)"/>
<path d="M106.312 51.375C106.25 53.2917 105.302 54.25 103.469 54.25C101.948 54.25 100.844 53.3542 100.156 51.5625L95.375 38.875L89.8125 24.5312C89.6042 23.9896 89.5 23.5104 89.5 23.0938C89.5 22.2396 89.8229 21.5104 90.4688 20.9062C91.1146 20.3021 91.8646 20 92.7188 20C93.9688 20 94.8646 20.6354 95.4062 21.9062L103.344 43.75C104.906 40.4167 106.875 35.5833 109.25 29.25C109.812 27.5833 110.698 25.2292 111.906 22.1875C112.552 20.8542 113.469 20.1875 114.656 20.1875C115.51 20.1875 116.26 20.4896 116.906 21.0938C117.552 21.6979 117.875 22.4167 117.875 23.25C117.875 24.0417 116.156 28.5 112.719 36.625L106.312 51.375Z" fill="url(#paint4_linear)"/>
<path d="M137.625 54.4375C132.917 54.4375 129.104 53.2604 126.188 50.9062C123 48.3021 121.406 44.6562 121.406 39.9688C121.406 34.5521 122.719 30.0104 125.344 26.3438C128.198 22.3438 132.01 20.3438 136.781 20.3438C140.24 20.3438 143.062 20.9271 145.25 22.0938C147.938 23.5312 149.281 25.7396 149.281 28.7188C149.281 30.8021 148.104 32.6979 145.75 34.4062C144.708 35.1562 142.5 36.3229 139.125 37.9062L127.188 43.5625C128.354 45.2917 129.802 46.5938 131.531 47.4688C133.281 48.3438 135.312 48.7812 137.625 48.7812C139.062 48.7812 140.75 48.5104 142.688 47.9688C145.146 47.2812 146.729 46.3854 147.438 45.2812C148.146 44.1562 148.906 43.5938 149.719 43.5938C150.448 43.5938 151.094 43.875 151.656 44.4375C152.24 44.9792 152.531 45.6146 152.531 46.3438C152.531 48.6562 150.667 50.6458 146.938 52.3125C143.75 53.7292 140.646 54.4375 137.625 54.4375ZM136.781 25.9688C134.24 25.9688 132.125 26.9583 130.438 28.9375C128.75 30.8958 127.49 33.8542 126.656 37.8125L136.25 33.25C140.021 31.4167 142.708 29.8229 144.312 28.4688C142.521 26.8021 140.01 25.9688 136.781 25.9688Z" fill="url(#paint5_linear)"/>
<path d="M172.688 54.4375C167.979 54.4375 164.167 53.2604 161.25 50.9062C158.062 48.3021 156.469 44.6562 156.469 39.9688C156.469 34.5521 157.781 30.0104 160.406 26.3438C163.26 22.3438 167.073 20.3438 171.844 20.3438C175.302 20.3438 178.125 20.9271 180.312 22.0938C183 23.5312 184.344 25.7396 184.344 28.7188C184.344 30.8021 183.167 32.6979 180.812 34.4062C179.771 35.1562 177.562 36.3229 174.188 37.9062L162.25 43.5625C163.417 45.2917 164.865 46.5938 166.594 47.4688C168.344 48.3438 170.375 48.7812 172.688 48.7812C174.125 48.7812 175.812 48.5104 177.75 47.9688C180.208 47.2812 181.792 46.3854 182.5 45.2812C183.208 44.1562 183.969 43.5938 184.781 43.5938C185.51 43.5938 186.156 43.875 186.719 44.4375C187.302 44.9792 187.594 45.6146 187.594 46.3438C187.594 48.6562 185.729 50.6458 182 52.3125C178.812 53.7292 175.708 54.4375 172.688 54.4375ZM171.844 25.9688C169.302 25.9688 167.188 26.9583 165.5 28.9375C163.812 30.8958 162.552 33.8542 161.719 37.8125L171.312 33.25C175.083 31.4167 177.771 29.8229 179.375 28.4688C177.583 26.8021 175.073 25.9688 171.844 25.9688Z" fill="url(#paint6_linear)"/>
<path d="M214.25 28.9375C213.104 28.9375 212.302 28.5521 211.844 27.7812C211.531 27.2396 211.26 26.1146 211.031 24.4062C209.469 24.8021 207.062 25.5312 203.812 26.5938C200.458 27.9271 198.771 29.5729 198.75 31.5312C199.375 31.7604 199.99 31.9271 200.594 32.0312C205.385 32.8854 208.948 34.0625 211.281 35.5625C214.677 37.75 216.375 40.9167 216.375 45.0625C216.375 48.4583 214.906 51.0208 211.969 52.75C209.531 54.1667 206.448 54.875 202.719 54.875C199.99 54.875 197.385 54.4167 194.906 53.5C191.698 52.3333 190.094 50.7083 190.094 48.625C190.094 47.7917 190.417 47.0625 191.062 46.4375C191.729 45.8125 192.479 45.5 193.312 45.5C193.958 45.5 194.792 46 195.812 47C196.312 47.4792 197.438 47.875 199.188 48.1875C200.583 48.4375 201.76 48.5625 202.719 48.5625C204.469 48.5625 206.01 48.3542 207.344 47.9375C209.281 47.3333 210.25 46.375 210.25 45.0625C210.25 42.2292 208.271 40.3125 204.312 39.3125L201.062 38.5938C198.292 37.9896 196.323 37.2812 195.156 36.4688C193.469 35.3021 192.625 33.5417 192.625 31.1875C192.625 26.8333 194.677 23.7292 198.781 21.875C200.031 21.3125 202.031 20.6458 204.781 19.875C207.531 19.0833 209.5 18.4167 210.688 17.875C211.542 17.5 212.469 17.3125 213.469 17.3125C214.365 17.3125 215.094 17.6042 215.656 18.1875C216.24 18.7708 216.531 19.5312 216.531 20.4688C216.531 21.0729 216.656 21.9583 216.906 23.125C217.177 24.2917 217.312 25.1771 217.312 25.7812C217.312 26.7188 217.021 27.4792 216.438 28.0625C215.875 28.6458 215.146 28.9375 214.25 28.9375Z" fill="url(#paint7_linear)"/>
<path d="M250.5 54.9375C249.021 54.9375 248.052 54.1458 247.594 52.5625C247.115 50.8542 246.677 48.4271 246.281 45.2812C245.906 42.2604 245.719 39.7812 245.719 37.8438C245.719 37.3021 245.74 36.4792 245.781 35.375C245.844 34.2708 245.875 33.4479 245.875 32.9062C245.875 28.9896 244.896 27.0312 242.938 27.0312C240.292 27.0312 237.927 28.2292 235.844 30.625C234.781 31.8542 233.323 34.1979 231.469 37.6562C231.469 45.5938 231.135 50.2917 230.469 51.75C229.885 53.0417 228.979 53.6875 227.75 53.6875C226.896 53.6875 226.146 53.3958 225.5 52.8125C224.854 52.2292 224.531 51.5208 224.531 50.6875C224.531 50.3958 224.625 49.9375 224.812 49.3125C224.979 48.7917 225.094 47.2708 225.156 44.75L225.25 40.125L225.344 17.1562C225.49 14.5729 225.562 12.8333 225.562 11.9375C225.562 10.875 225.458 9.875 225.25 8.9375C225.062 7.97917 224.969 6.98958 224.969 5.96875C224.969 5.09375 225.271 4.375 225.875 3.8125C226.479 3.22917 227.219 2.9375 228.094 2.9375C229.802 2.9375 230.802 3.85417 231.094 5.6875C231.427 7.70833 231.594 9.53125 231.594 11.1562C231.594 13.3438 231.521 15.625 231.375 18C231.25 20.2708 231.198 22.5521 231.219 24.8438L231.25 27.5938C232.958 25.3021 234.781 23.5938 236.719 22.4688C238.677 21.3229 240.75 20.75 242.938 20.75C246.396 20.75 248.771 21.875 250.062 24.125C250.979 25.7083 251.5 28.375 251.625 32.125L251.875 38.0938L252.5 44.5938C252.792 47.0312 253.146 49.1771 253.562 51.0312C253.646 51.3854 253.688 51.6875 253.688 51.9375C253.688 52.7917 253.375 53.5 252.75 54.0625C252.125 54.6458 251.375 54.9375 250.5 54.9375Z" fill="url(#paint8_linear)"/>
<path d="M0 61H257V76H0V61Z" fill="url(#paint9_linear)"/>
<defs>
<linearGradient id="paint0_linear" x1="257" y1="69.0002" x2="-1.59502e-06" y2="69.0002" gradientUnits="userSpaceOnUse">
<stop stop-color="#EEF1EF"/>
<stop offset="1" stop-color="#C4C4C4" stop-opacity="0"/>
</linearGradient>
<linearGradient id="paint1_linear" x1="257" y1="69.0002" x2="-1.59502e-06" y2="69.0002" gradientUnits="userSpaceOnUse">
<stop stop-color="#EEF1EF"/>
<stop offset="1" stop-color="#C4C4C4" stop-opacity="0"/>
</linearGradient>
<linearGradient id="paint2_linear" x1="257" y1="69.0002" x2="-1.59502e-06" y2="69.0002" gradientUnits="userSpaceOnUse">
<stop stop-color="#EEF1EF"/>
<stop offset="1" stop-color="#C4C4C4" stop-opacity="0"/>
</linearGradient>
<linearGradient id="paint3_linear" x1="257" y1="69.0002" x2="-1.59502e-06" y2="69.0002" gradientUnits="userSpaceOnUse">
<stop stop-color="#EEF1EF"/>
<stop offset="1" stop-color="#C4C4C4" stop-opacity="0"/>
</linearGradient>
<linearGradient id="paint4_linear" x1="257" y1="69.0002" x2="-1.59502e-06" y2="69.0002" gradientUnits="userSpaceOnUse">
<stop stop-color="#EEF1EF"/>
<stop offset="1" stop-color="#C4C4C4" stop-opacity="0"/>
</linearGradient>
<linearGradient id="paint5_linear" x1="257" y1="69.0002" x2="-1.59502e-06" y2="69.0002" gradientUnits="userSpaceOnUse">
<stop stop-color="#EEF1EF"/>
<stop offset="1" stop-color="#C4C4C4" stop-opacity="0"/>
</linearGradient>
<linearGradient id="paint6_linear" x1="257" y1="69.0002" x2="-1.59502e-06" y2="69.0002" gradientUnits="userSpaceOnUse">
<stop stop-color="#EEF1EF"/>
<stop offset="1" stop-color="#C4C4C4" stop-opacity="0"/>
</linearGradient>
<linearGradient id="paint7_linear" x1="257" y1="69.0002" x2="-1.59502e-06" y2="69.0002" gradientUnits="userSpaceOnUse">
<stop stop-color="#EEF1EF"/>
<stop offset="1" stop-color="#C4C4C4" stop-opacity="0"/>
</linearGradient>
<linearGradient id="paint8_linear" x1="257" y1="69.0002" x2="-1.59502e-06" y2="69.0002" gradientUnits="userSpaceOnUse">
<stop stop-color="#EEF1EF"/>
<stop offset="1" stop-color="#C4C4C4" stop-opacity="0"/>
</linearGradient>
<linearGradient id="paint9_linear" x1="257" y1="69.0002" x2="-1.59502e-06" y2="69.0002" gradientUnits="userSpaceOnUse">
<stop stop-color="#EEF1EF"/>
<stop offset="1" stop-color="#C4C4C4" stop-opacity="0"/>
</linearGradient>
</defs>
</svg>
