<svg width="436" height="142" viewBox="0 0 436 142" fill="none" xmlns="http://www.w3.org/2000/svg">
<path d="M297.797 41.8408V36.8457C297.797 35.4883 297.641 34.2871 297.328 33.2422C297.016 32.1875 296.566 31.2988 295.98 30.5762C295.385 29.8535 294.657 29.3066 293.798 28.9355C292.948 28.5547 291.977 28.3643 290.883 28.3643C289.799 28.3643 288.827 28.5547 287.968 28.9355C287.118 29.3066 286.4 29.8535 285.814 30.5762C285.219 31.2988 284.765 32.1875 284.452 33.2422C284.14 34.2871 283.983 35.4883 283.983 36.8457V41.8408C283.983 43.1982 284.14 44.4043 284.452 45.459C284.765 46.5039 285.219 47.3828 285.814 48.0957C286.41 48.8281 287.138 49.3799 287.997 49.751C288.856 50.1123 289.828 50.293 290.912 50.293C292.006 50.293 292.978 50.1074 293.827 49.7363C294.677 49.3652 295.395 48.8184 295.98 48.0957C296.566 47.3828 297.016 46.5039 297.328 45.459C297.641 44.4043 297.797 43.1982 297.797 41.8408ZM286.708 41.2988C286.708 41.0449 286.708 40.7959 286.708 40.5518C286.708 40.3076 286.708 40.0635 286.708 39.8193V36.2451C286.708 35.249 286.806 34.375 287.001 33.623C287.206 32.8613 287.514 32.2412 287.924 31.7627C288.266 31.3818 288.681 31.0938 289.169 30.8984C289.667 30.6934 290.238 30.5908 290.883 30.5908C291.518 30.5908 292.074 30.6836 292.553 30.8691C293.041 31.0547 293.451 31.333 293.783 31.7041C294.125 32.0654 294.394 32.5195 294.589 33.0664C294.794 33.6035 294.936 34.2236 295.014 34.9268L286.708 41.2988ZM295.072 42.4121C295.072 43.457 294.965 44.3652 294.75 45.1367C294.545 45.9082 294.218 46.5332 293.769 47.0117C293.437 47.3633 293.031 47.6318 292.553 47.8174C292.074 48.0029 291.527 48.0957 290.912 48.0957C290.326 48.0957 289.799 48.0127 289.33 47.8467C288.861 47.6709 288.461 47.417 288.129 47.085C287.768 46.7334 287.475 46.2891 287.25 45.752C287.025 45.2051 286.869 44.5752 286.781 43.8623L295.072 37.5195C295.072 37.793 295.072 38.1396 295.072 38.5596C295.072 38.9697 295.072 39.248 295.072 39.3945V42.4121Z" fill="url(#paint0_linear)"/>
<path d="M315.814 41.8408V36.8457C315.814 35.4883 315.658 34.2871 315.346 33.2422C315.033 32.1875 314.584 31.2988 313.998 30.5762C313.402 29.8535 312.675 29.3066 311.815 28.9355C310.966 28.5547 309.994 28.3643 308.9 28.3643C307.816 28.3643 306.845 28.5547 305.985 28.9355C305.136 29.3066 304.418 29.8535 303.832 30.5762C303.236 31.2988 302.782 32.1875 302.47 33.2422C302.157 34.2871 302.001 35.4883 302.001 36.8457V41.8408C302.001 43.1982 302.157 44.4043 302.47 45.459C302.782 46.5039 303.236 47.3828 303.832 48.0957C304.428 48.8281 305.155 49.3799 306.015 49.751C306.874 50.1123 307.846 50.293 308.93 50.293C310.023 50.293 310.995 50.1074 311.845 49.7363C312.694 49.3652 313.412 48.8184 313.998 48.0957C314.584 47.3828 315.033 46.5039 315.346 45.459C315.658 44.4043 315.814 43.1982 315.814 41.8408ZM304.726 41.2988C304.726 41.0449 304.726 40.7959 304.726 40.5518C304.726 40.3076 304.726 40.0635 304.726 39.8193V36.2451C304.726 35.249 304.823 34.375 305.019 33.623C305.224 32.8613 305.531 32.2412 305.941 31.7627C306.283 31.3818 306.698 31.0938 307.187 30.8984C307.685 30.6934 308.256 30.5908 308.9 30.5908C309.535 30.5908 310.092 30.6836 310.57 30.8691C311.059 31.0547 311.469 31.333 311.801 31.7041C312.143 32.0654 312.411 32.5195 312.606 33.0664C312.812 33.6035 312.953 34.2236 313.031 34.9268L304.726 41.2988ZM313.09 42.4121C313.09 43.457 312.982 44.3652 312.768 45.1367C312.562 45.9082 312.235 46.5332 311.786 47.0117C311.454 47.3633 311.049 47.6318 310.57 47.8174C310.092 48.0029 309.545 48.0957 308.93 48.0957C308.344 48.0957 307.816 48.0127 307.348 47.8467C306.879 47.6709 306.479 47.417 306.146 47.085C305.785 46.7334 305.492 46.2891 305.268 45.752C305.043 45.2051 304.887 44.5752 304.799 43.8623L313.09 37.5195C313.09 37.793 313.09 38.1396 313.09 38.5596C313.09 38.9697 313.09 39.248 313.09 39.3945V42.4121Z" fill="url(#paint1_linear)"/>
<path d="M329.232 50V28.6719H329.013L320.941 31.7773V34.2529L326.522 32.1289V50H329.232Z" fill="url(#paint2_linear)"/>
<path d="M347.25 50V28.6719H347.03L338.959 31.7773V34.2529L344.54 32.1289V50H347.25Z" fill="url(#paint3_linear)"/>
<path d="M365.268 50V28.6719H365.048L356.977 31.7773V34.2529L362.558 32.1289V50H365.268Z" fill="url(#paint4_linear)"/>
<path d="M387.885 41.8408V36.8457C387.885 35.4883 387.729 34.2871 387.416 33.2422C387.104 32.1875 386.654 31.2988 386.068 30.5762C385.473 29.8535 384.745 29.3066 383.886 28.9355C383.036 28.5547 382.064 28.3643 380.971 28.3643C379.887 28.3643 378.915 28.5547 378.056 28.9355C377.206 29.3066 376.488 29.8535 375.902 30.5762C375.307 31.2988 374.853 32.1875 374.54 33.2422C374.228 34.2871 374.071 35.4883 374.071 36.8457V41.8408C374.071 43.1982 374.228 44.4043 374.54 45.459C374.853 46.5039 375.307 47.3828 375.902 48.0957C376.498 48.8281 377.226 49.3799 378.085 49.751C378.944 50.1123 379.916 50.293 381 50.293C382.094 50.293 383.065 50.1074 383.915 49.7363C384.765 49.3652 385.482 48.8184 386.068 48.0957C386.654 47.3828 387.104 46.5039 387.416 45.459C387.729 44.4043 387.885 43.1982 387.885 41.8408ZM376.796 41.2988C376.796 41.0449 376.796 40.7959 376.796 40.5518C376.796 40.3076 376.796 40.0635 376.796 39.8193V36.2451C376.796 35.249 376.894 34.375 377.089 33.623C377.294 32.8613 377.602 32.2412 378.012 31.7627C378.354 31.3818 378.769 31.0938 379.257 30.8984C379.755 30.6934 380.326 30.5908 380.971 30.5908C381.605 30.5908 382.162 30.6836 382.641 30.8691C383.129 31.0547 383.539 31.333 383.871 31.7041C384.213 32.0654 384.481 32.5195 384.677 33.0664C384.882 33.6035 385.023 34.2236 385.102 34.9268L376.796 41.2988ZM385.16 42.4121C385.16 43.457 385.053 44.3652 384.838 45.1367C384.633 45.9082 384.306 46.5332 383.856 47.0117C383.524 47.3633 383.119 47.6318 382.641 47.8174C382.162 48.0029 381.615 48.0957 381 48.0957C380.414 48.0957 379.887 48.0127 379.418 47.8467C378.949 47.6709 378.549 47.417 378.217 47.085C377.855 46.7334 377.562 46.2891 377.338 45.752C377.113 45.2051 376.957 44.5752 376.869 43.8623L385.16 37.5195C385.16 37.793 385.16 38.1396 385.16 38.5596C385.16 38.9697 385.16 39.248 385.16 39.3945V42.4121Z" fill="url(#paint5_linear)"/>
<path d="M405.902 41.8408V36.8457C405.902 35.4883 405.746 34.2871 405.434 33.2422C405.121 32.1875 404.672 31.2988 404.086 30.5762C403.49 29.8535 402.763 29.3066 401.903 28.9355C401.054 28.5547 400.082 28.3643 398.988 28.3643C397.904 28.3643 396.933 28.5547 396.073 28.9355C395.224 29.3066 394.506 29.8535 393.92 30.5762C393.324 31.2988 392.87 32.1875 392.558 33.2422C392.245 34.2871 392.089 35.4883 392.089 36.8457V41.8408C392.089 43.1982 392.245 44.4043 392.558 45.459C392.87 46.5039 393.324 47.3828 393.92 48.0957C394.516 48.8281 395.243 49.3799 396.103 49.751C396.962 50.1123 397.934 50.293 399.018 50.293C400.111 50.293 401.083 50.1074 401.933 49.7363C402.782 49.3652 403.5 48.8184 404.086 48.0957C404.672 47.3828 405.121 46.5039 405.434 45.459C405.746 44.4043 405.902 43.1982 405.902 41.8408ZM394.813 41.2988C394.813 41.0449 394.813 40.7959 394.813 40.5518C394.813 40.3076 394.813 40.0635 394.813 39.8193V36.2451C394.813 35.249 394.911 34.375 395.106 33.623C395.312 32.8613 395.619 32.2412 396.029 31.7627C396.371 31.3818 396.786 31.0938 397.274 30.8984C397.772 30.6934 398.344 30.5908 398.988 30.5908C399.623 30.5908 400.18 30.6836 400.658 30.8691C401.146 31.0547 401.557 31.333 401.889 31.7041C402.23 32.0654 402.499 32.5195 402.694 33.0664C402.899 33.6035 403.041 34.2236 403.119 34.9268L394.813 41.2988ZM403.178 42.4121C403.178 43.457 403.07 44.3652 402.855 45.1367C402.65 45.9082 402.323 46.5332 401.874 47.0117C401.542 47.3633 401.137 47.6318 400.658 47.8174C400.18 48.0029 399.633 48.0957 399.018 48.0957C398.432 48.0957 397.904 48.0127 397.436 47.8467C396.967 47.6709 396.566 47.417 396.234 47.085C395.873 46.7334 395.58 46.2891 395.355 45.752C395.131 45.2051 394.975 44.5752 394.887 43.8623L403.178 37.5195C403.178 37.793 403.178 38.1396 403.178 38.5596C403.178 38.9697 403.178 39.248 403.178 39.3945V42.4121Z" fill="url(#paint6_linear)"/>
<path d="M419.32 50V28.6719H419.101L411.029 31.7773V34.2529L416.61 32.1289V50H419.32Z" fill="url(#paint7_linear)"/>
<path d="M297.797 81.8408V76.8457C297.797 75.4883 297.641 74.2871 297.328 73.2422C297.016 72.1875 296.566 71.2988 295.98 70.5762C295.385 69.8535 294.657 69.3066 293.798 68.9355C292.948 68.5547 291.977 68.3643 290.883 68.3643C289.799 68.3643 288.827 68.5547 287.968 68.9355C287.118 69.3066 286.4 69.8535 285.814 70.5762C285.219 71.2988 284.765 72.1875 284.452 73.2422C284.14 74.2871 283.983 75.4883 283.983 76.8457V81.8408C283.983 83.1982 284.14 84.4043 284.452 85.459C284.765 86.5039 285.219 87.3828 285.814 88.0957C286.41 88.8281 287.138 89.3799 287.997 89.751C288.856 90.1123 289.828 90.293 290.912 90.293C292.006 90.293 292.978 90.1074 293.827 89.7363C294.677 89.3652 295.395 88.8184 295.98 88.0957C296.566 87.3828 297.016 86.5039 297.328 85.459C297.641 84.4043 297.797 83.1982 297.797 81.8408ZM286.708 81.2988C286.708 81.0449 286.708 80.7959 286.708 80.5518C286.708 80.3076 286.708 80.0635 286.708 79.8193V76.2451C286.708 75.249 286.806 74.375 287.001 73.623C287.206 72.8613 287.514 72.2412 287.924 71.7627C288.266 71.3818 288.681 71.0938 289.169 70.8984C289.667 70.6934 290.238 70.5908 290.883 70.5908C291.518 70.5908 292.074 70.6836 292.553 70.8691C293.041 71.0547 293.451 71.333 293.783 71.7041C294.125 72.0654 294.394 72.5195 294.589 73.0664C294.794 73.6035 294.936 74.2236 295.014 74.9268L286.708 81.2988ZM295.072 82.4121C295.072 83.457 294.965 84.3652 294.75 85.1367C294.545 85.9082 294.218 86.5332 293.769 87.0117C293.437 87.3633 293.031 87.6318 292.553 87.8174C292.074 88.0029 291.527 88.0957 290.912 88.0957C290.326 88.0957 289.799 88.0127 289.33 87.8467C288.861 87.6709 288.461 87.417 288.129 87.085C287.768 86.7334 287.475 86.2891 287.25 85.752C287.025 85.2051 286.869 84.5752 286.781 83.8623L295.072 77.5195C295.072 77.793 295.072 78.1396 295.072 78.5596C295.072 78.9697 295.072 79.248 295.072 79.3945V82.4121Z" fill="url(#paint8_linear)"/>
<path d="M315.814 81.8408V76.8457C315.814 75.4883 315.658 74.2871 315.346 73.2422C315.033 72.1875 314.584 71.2988 313.998 70.5762C313.402 69.8535 312.675 69.3066 311.815 68.9355C310.966 68.5547 309.994 68.3643 308.9 68.3643C307.816 68.3643 306.845 68.5547 305.985 68.9355C305.136 69.3066 304.418 69.8535 303.832 70.5762C303.236 71.2988 302.782 72.1875 302.47 73.2422C302.157 74.2871 302.001 75.4883 302.001 76.8457V81.8408C302.001 83.1982 302.157 84.4043 302.47 85.459C302.782 86.5039 303.236 87.3828 303.832 88.0957C304.428 88.8281 305.155 89.3799 306.015 89.751C306.874 90.1123 307.846 90.293 308.93 90.293C310.023 90.293 310.995 90.1074 311.845 89.7363C312.694 89.3652 313.412 88.8184 313.998 88.0957C314.584 87.3828 315.033 86.5039 315.346 85.459C315.658 84.4043 315.814 83.1982 315.814 81.8408ZM304.726 81.2988C304.726 81.0449 304.726 80.7959 304.726 80.5518C304.726 80.3076 304.726 80.0635 304.726 79.8193V76.2451C304.726 75.249 304.823 74.375 305.019 73.623C305.224 72.8613 305.531 72.2412 305.941 71.7627C306.283 71.3818 306.698 71.0938 307.187 70.8984C307.685 70.6934 308.256 70.5908 308.9 70.5908C309.535 70.5908 310.092 70.6836 310.57 70.8691C311.059 71.0547 311.469 71.333 311.801 71.7041C312.143 72.0654 312.411 72.5195 312.606 73.0664C312.812 73.6035 312.953 74.2236 313.031 74.9268L304.726 81.2988ZM313.09 82.4121C313.09 83.457 312.982 84.3652 312.768 85.1367C312.562 85.9082 312.235 86.5332 311.786 87.0117C311.454 87.3633 311.049 87.6318 310.57 87.8174C310.092 88.0029 309.545 88.0957 308.93 88.0957C308.344 88.0957 307.816 88.0127 307.348 87.8467C306.879 87.6709 306.479 87.417 306.146 87.085C305.785 86.7334 305.492 86.2891 305.268 85.752C305.043 85.2051 304.887 84.5752 304.799 83.8623L313.09 77.5195C313.09 77.793 313.09 78.1396 313.09 78.5596C313.09 78.9697 313.09 79.248 313.09 79.3945V82.4121Z" fill="url(#paint9_linear)"/>
<path d="M329.232 90V68.6719H329.013L320.941 71.7773V74.2529L326.522 72.1289V90H329.232Z" fill="url(#paint10_linear)"/>
<path d="M347.25 90V68.6719H347.03L338.959 71.7773V74.2529L344.54 72.1289V90H347.25Z" fill="url(#paint11_linear)"/>
<path d="M365.268 90V68.6719H365.048L356.977 71.7773V74.2529L362.558 72.1289V90H365.268Z" fill="url(#paint12_linear)"/>
<path d="M387.885 81.8408V76.8457C387.885 75.4883 387.729 74.2871 387.416 73.2422C387.104 72.1875 386.654 71.2988 386.068 70.5762C385.473 69.8535 384.745 69.3066 383.886 68.9355C383.036 68.5547 382.064 68.3643 380.971 68.3643C379.887 68.3643 378.915 68.5547 378.056 68.9355C377.206 69.3066 376.488 69.8535 375.902 70.5762C375.307 71.2988 374.853 72.1875 374.54 73.2422C374.228 74.2871 374.071 75.4883 374.071 76.8457V81.8408C374.071 83.1982 374.228 84.4043 374.54 85.459C374.853 86.5039 375.307 87.3828 375.902 88.0957C376.498 88.8281 377.226 89.3799 378.085 89.751C378.944 90.1123 379.916 90.293 381 90.293C382.094 90.293 383.065 90.1074 383.915 89.7363C384.765 89.3652 385.482 88.8184 386.068 88.0957C386.654 87.3828 387.104 86.5039 387.416 85.459C387.729 84.4043 387.885 83.1982 387.885 81.8408ZM376.796 81.2988C376.796 81.0449 376.796 80.7959 376.796 80.5518C376.796 80.3076 376.796 80.0635 376.796 79.8193V76.2451C376.796 75.249 376.894 74.375 377.089 73.623C377.294 72.8613 377.602 72.2412 378.012 71.7627C378.354 71.3818 378.769 71.0938 379.257 70.8984C379.755 70.6934 380.326 70.5908 380.971 70.5908C381.605 70.5908 382.162 70.6836 382.641 70.8691C383.129 71.0547 383.539 71.333 383.871 71.7041C384.213 72.0654 384.481 72.5195 384.677 73.0664C384.882 73.6035 385.023 74.2236 385.102 74.9268L376.796 81.2988ZM385.16 82.4121C385.16 83.457 385.053 84.3652 384.838 85.1367C384.633 85.9082 384.306 86.5332 383.856 87.0117C383.524 87.3633 383.119 87.6318 382.641 87.8174C382.162 88.0029 381.615 88.0957 381 88.0957C380.414 88.0957 379.887 88.0127 379.418 87.8467C378.949 87.6709 378.549 87.417 378.217 87.085C377.855 86.7334 377.562 86.2891 377.338 85.752C377.113 85.2051 376.957 84.5752 376.869 83.8623L385.16 77.5195C385.16 77.793 385.16 78.1396 385.16 78.5596C385.16 78.9697 385.16 79.248 385.16 79.3945V82.4121Z" fill="url(#paint13_linear)"/>
<path d="M405.902 81.8408V76.8457C405.902 75.4883 405.746 74.2871 405.434 73.2422C405.121 72.1875 404.672 71.2988 404.086 70.5762C403.49 69.8535 402.763 69.3066 401.903 68.9355C401.054 68.5547 400.082 68.3643 398.988 68.3643C397.904 68.3643 396.933 68.5547 396.073 68.9355C395.224 69.3066 394.506 69.8535 393.92 70.5762C393.324 71.2988 392.87 72.1875 392.558 73.2422C392.245 74.2871 392.089 75.4883 392.089 76.8457V81.8408C392.089 83.1982 392.245 84.4043 392.558 85.459C392.87 86.5039 393.324 87.3828 393.92 88.0957C394.516 88.8281 395.243 89.3799 396.103 89.751C396.962 90.1123 397.934 90.293 399.018 90.293C400.111 90.293 401.083 90.1074 401.933 89.7363C402.782 89.3652 403.5 88.8184 404.086 88.0957C404.672 87.3828 405.121 86.5039 405.434 85.459C405.746 84.4043 405.902 83.1982 405.902 81.8408ZM394.813 81.2988C394.813 81.0449 394.813 80.7959 394.813 80.5518C394.813 80.3076 394.813 80.0635 394.813 79.8193V76.2451C394.813 75.249 394.911 74.375 395.106 73.623C395.312 72.8613 395.619 72.2412 396.029 71.7627C396.371 71.3818 396.786 71.0938 397.274 70.8984C397.772 70.6934 398.344 70.5908 398.988 70.5908C399.623 70.5908 400.18 70.6836 400.658 70.8691C401.146 71.0547 401.557 71.333 401.889 71.7041C402.23 72.0654 402.499 72.5195 402.694 73.0664C402.899 73.6035 403.041 74.2236 403.119 74.9268L394.813 81.2988ZM403.178 82.4121C403.178 83.457 403.07 84.3652 402.855 85.1367C402.65 85.9082 402.323 86.5332 401.874 87.0117C401.542 87.3633 401.137 87.6318 400.658 87.8174C400.18 88.0029 399.633 88.0957 399.018 88.0957C398.432 88.0957 397.904 88.0127 397.436 87.8467C396.967 87.6709 396.566 87.417 396.234 87.085C395.873 86.7334 395.58 86.2891 395.355 85.752C395.131 85.2051 394.975 84.5752 394.887 83.8623L403.178 77.5195C403.178 77.793 403.178 78.1396 403.178 78.5596C403.178 78.9697 403.178 79.248 403.178 79.3945V82.4121Z" fill="url(#paint14_linear)"/>
<path d="M423.92 81.8408V76.8457C423.92 75.4883 423.764 74.2871 423.451 73.2422C423.139 72.1875 422.689 71.2988 422.104 70.5762C421.508 69.8535 420.78 69.3066 419.921 68.9355C419.071 68.5547 418.1 68.3643 417.006 68.3643C415.922 68.3643 414.95 68.5547 414.091 68.9355C413.241 69.3066 412.523 69.8535 411.938 70.5762C411.342 71.2988 410.888 72.1875 410.575 73.2422C410.263 74.2871 410.106 75.4883 410.106 76.8457V81.8408C410.106 83.1982 410.263 84.4043 410.575 85.459C410.888 86.5039 411.342 87.3828 411.938 88.0957C412.533 88.8281 413.261 89.3799 414.12 89.751C414.979 90.1123 415.951 90.293 417.035 90.293C418.129 90.293 419.101 90.1074 419.95 89.7363C420.8 89.3652 421.518 88.8184 422.104 88.0957C422.689 87.3828 423.139 86.5039 423.451 85.459C423.764 84.4043 423.92 83.1982 423.92 81.8408ZM412.831 81.2988C412.831 81.0449 412.831 80.7959 412.831 80.5518C412.831 80.3076 412.831 80.0635 412.831 79.8193V76.2451C412.831 75.249 412.929 74.375 413.124 73.623C413.329 72.8613 413.637 72.2412 414.047 71.7627C414.389 71.3818 414.804 71.0938 415.292 70.8984C415.79 70.6934 416.361 70.5908 417.006 70.5908C417.641 70.5908 418.197 70.6836 418.676 70.8691C419.164 71.0547 419.574 71.333 419.906 71.7041C420.248 72.0654 420.517 72.5195 420.712 73.0664C420.917 73.6035 421.059 74.2236 421.137 74.9268L412.831 81.2988ZM421.195 82.4121C421.195 83.457 421.088 84.3652 420.873 85.1367C420.668 85.9082 420.341 86.5332 419.892 87.0117C419.56 87.3633 419.154 87.6318 418.676 87.8174C418.197 88.0029 417.65 88.0957 417.035 88.0957C416.449 88.0957 415.922 88.0127 415.453 87.8467C414.984 87.6709 414.584 87.417 414.252 87.085C413.891 86.7334 413.598 86.2891 413.373 85.752C413.148 85.2051 412.992 84.5752 412.904 83.8623L421.195 77.5195C421.195 77.793 421.195 78.1396 421.195 78.5596C421.195 78.9697 421.195 79.248 421.195 79.3945V82.4121Z" fill="url(#paint15_linear)"/>
<path d="M32.6562 33.6484V30.9844C32.6562 30.2604 32.5729 29.6198 32.4062 29.0625C32.2396 28.5 32 28.026 31.6875 27.6406C31.3698 27.2552 30.9818 26.9635 30.5234 26.7656C30.0703 26.5625 29.5521 26.4609 28.9688 26.4609C28.3906 26.4609 27.8724 26.5625 27.4141 26.7656C26.9609 26.9635 26.5781 27.2552 26.2656 27.6406C25.9479 28.026 25.7057 28.5 25.5391 29.0625C25.3724 29.6198 25.2891 30.2604 25.2891 30.9844V33.6484C25.2891 34.3724 25.3724 35.0156 25.5391 35.5781C25.7057 36.1354 25.9479 36.6042 26.2656 36.9844C26.5833 37.375 26.9714 37.6693 27.4297 37.8672C27.888 38.0599 28.4062 38.1562 28.9844 38.1562C29.5677 38.1562 30.0859 38.0573 30.5391 37.8594C30.9922 37.6615 31.375 37.3698 31.6875 36.9844C32 36.6042 32.2396 36.1354 32.4062 35.5781C32.5729 35.0156 32.6562 34.3724 32.6562 33.6484ZM26.7422 33.3594C26.7422 33.224 26.7422 33.0911 26.7422 32.9609C26.7422 32.8307 26.7422 32.7005 26.7422 32.5703V30.6641C26.7422 30.1328 26.7943 29.6667 26.8984 29.2656C27.0078 28.8594 27.1719 28.5286 27.3906 28.2734C27.5729 28.0703 27.7943 27.9167 28.0547 27.8125C28.3203 27.7031 28.625 27.6484 28.9688 27.6484C29.3073 27.6484 29.6042 27.6979 29.8594 27.7969C30.1198 27.8958 30.3385 28.0443 30.5156 28.2422C30.6979 28.4349 30.8411 28.6771 30.9453 28.9688C31.0547 29.2552 31.1302 29.5859 31.1719 29.9609L26.7422 33.3594ZM31.2031 33.9531C31.2031 34.5104 31.1458 34.9948 31.0312 35.4062C30.9219 35.8177 30.7474 36.151 30.5078 36.4062C30.3307 36.5938 30.1146 36.737 29.8594 36.8359C29.6042 36.9349 29.3125 36.9844 28.9844 36.9844C28.6719 36.9844 28.3906 36.9401 28.1406 36.8516C27.8906 36.7578 27.6771 36.6224 27.5 36.4453C27.3073 36.2578 27.151 36.0208 27.0312 35.7344C26.9115 35.4427 26.8281 35.1068 26.7812 34.7266L31.2031 31.3438C31.2031 31.4896 31.2031 31.6745 31.2031 31.8984C31.2031 32.1172 31.2031 32.2656 31.2031 32.3438V33.9531Z" fill="url(#paint16_linear)"/>
<path d="M39.8125 38V26.625H39.6953L35.3906 28.2812V29.6016L38.3672 28.4688V38H39.8125Z" fill="url(#paint17_linear)"/>
<path d="M51.875 33.6484V30.9844C51.875 30.2604 51.7917 29.6198 51.625 29.0625C51.4583 28.5 51.2188 28.026 50.9062 27.6406C50.5885 27.2552 50.2005 26.9635 49.7422 26.7656C49.2891 26.5625 48.7708 26.4609 48.1875 26.4609C47.6094 26.4609 47.0911 26.5625 46.6328 26.7656C46.1797 26.9635 45.7969 27.2552 45.4844 27.6406C45.1667 28.026 44.9245 28.5 44.7578 29.0625C44.5911 29.6198 44.5078 30.2604 44.5078 30.9844V33.6484C44.5078 34.3724 44.5911 35.0156 44.7578 35.5781C44.9245 36.1354 45.1667 36.6042 45.4844 36.9844C45.8021 37.375 46.1901 37.6693 46.6484 37.8672C47.1068 38.0599 47.625 38.1562 48.2031 38.1562C48.7865 38.1562 49.3047 38.0573 49.7578 37.8594C50.2109 37.6615 50.5938 37.3698 50.9062 36.9844C51.2188 36.6042 51.4583 36.1354 51.625 35.5781C51.7917 35.0156 51.875 34.3724 51.875 33.6484ZM45.9609 33.3594C45.9609 33.224 45.9609 33.0911 45.9609 32.9609C45.9609 32.8307 45.9609 32.7005 45.9609 32.5703V30.6641C45.9609 30.1328 46.013 29.6667 46.1172 29.2656C46.2266 28.8594 46.3906 28.5286 46.6094 28.2734C46.7917 28.0703 47.013 27.9167 47.2734 27.8125C47.5391 27.7031 47.8438 27.6484 48.1875 27.6484C48.526 27.6484 48.8229 27.6979 49.0781 27.7969C49.3385 27.8958 49.5573 28.0443 49.7344 28.2422C49.9167 28.4349 50.0599 28.6771 50.1641 28.9688C50.2734 29.2552 50.349 29.5859 50.3906 29.9609L45.9609 33.3594ZM50.4219 33.9531C50.4219 34.5104 50.3646 34.9948 50.25 35.4062C50.1406 35.8177 49.9661 36.151 49.7266 36.4062C49.5495 36.5938 49.3333 36.737 49.0781 36.8359C48.8229 36.9349 48.5312 36.9844 48.2031 36.9844C47.8906 36.9844 47.6094 36.9401 47.3594 36.8516C47.1094 36.7578 46.8958 36.6224 46.7188 36.4453C46.526 36.2578 46.3698 36.0208 46.25 35.7344C46.1302 35.4427 46.0469 35.1068 46 34.7266L50.4219 31.3438C50.4219 31.4896 50.4219 31.6745 50.4219 31.8984C50.4219 32.1172 50.4219 32.2656 50.4219 32.3438V33.9531Z" fill="url(#paint18_linear)"/>
<path d="M59.0312 38V26.625H58.9141L54.6094 28.2812V29.6016L57.5859 28.4688V38H59.0312Z" fill="url(#paint19_linear)"/>
<path d="M71.0938 33.6484V30.9844C71.0938 30.2604 71.0104 29.6198 70.8438 29.0625C70.6771 28.5 70.4375 28.026 70.125 27.6406C69.8073 27.2552 69.4193 26.9635 68.9609 26.7656C68.5078 26.5625 67.9896 26.4609 67.4062 26.4609C66.8281 26.4609 66.3099 26.5625 65.8516 26.7656C65.3984 26.9635 65.0156 27.2552 64.7031 27.6406C64.3854 28.026 64.1432 28.5 63.9766 29.0625C63.8099 29.6198 63.7266 30.2604 63.7266 30.9844V33.6484C63.7266 34.3724 63.8099 35.0156 63.9766 35.5781C64.1432 36.1354 64.3854 36.6042 64.7031 36.9844C65.0208 37.375 65.4089 37.6693 65.8672 37.8672C66.3255 38.0599 66.8438 38.1562 67.4219 38.1562C68.0052 38.1562 68.5234 38.0573 68.9766 37.8594C69.4297 37.6615 69.8125 37.3698 70.125 36.9844C70.4375 36.6042 70.6771 36.1354 70.8438 35.5781C71.0104 35.0156 71.0938 34.3724 71.0938 33.6484ZM65.1797 33.3594C65.1797 33.224 65.1797 33.0911 65.1797 32.9609C65.1797 32.8307 65.1797 32.7005 65.1797 32.5703V30.6641C65.1797 30.1328 65.2318 29.6667 65.3359 29.2656C65.4453 28.8594 65.6094 28.5286 65.8281 28.2734C66.0104 28.0703 66.2318 27.9167 66.4922 27.8125C66.7578 27.7031 67.0625 27.6484 67.4062 27.6484C67.7448 27.6484 68.0417 27.6979 68.2969 27.7969C68.5573 27.8958 68.776 28.0443 68.9531 28.2422C69.1354 28.4349 69.2786 28.6771 69.3828 28.9688C69.4922 29.2552 69.5677 29.5859 69.6094 29.9609L65.1797 33.3594ZM69.6406 33.9531C69.6406 34.5104 69.5833 34.9948 69.4688 35.4062C69.3594 35.8177 69.1849 36.151 68.9453 36.4062C68.7682 36.5938 68.5521 36.737 68.2969 36.8359C68.0417 36.9349 67.75 36.9844 67.4219 36.9844C67.1094 36.9844 66.8281 36.9401 66.5781 36.8516C66.3281 36.7578 66.1146 36.6224 65.9375 36.4453C65.7448 36.2578 65.5885 36.0208 65.4688 35.7344C65.349 35.4427 65.2656 35.1068 65.2188 34.7266L69.6406 31.3438C69.6406 31.4896 69.6406 31.6745 69.6406 31.8984C69.6406 32.1172 69.6406 32.2656 69.6406 32.3438V33.9531Z" fill="url(#paint20_linear)"/>
<path d="M80.7031 33.6484V30.9844C80.7031 30.2604 80.6198 29.6198 80.4531 29.0625C80.2865 28.5 80.0469 28.026 79.7344 27.6406C79.4167 27.2552 79.0286 26.9635 78.5703 26.7656C78.1172 26.5625 77.599 26.4609 77.0156 26.4609C76.4375 26.4609 75.9193 26.5625 75.4609 26.7656C75.0078 26.9635 74.625 27.2552 74.3125 27.6406C73.9948 28.026 73.7526 28.5 73.5859 29.0625C73.4193 29.6198 73.3359 30.2604 73.3359 30.9844V33.6484C73.3359 34.3724 73.4193 35.0156 73.5859 35.5781C73.7526 36.1354 73.9948 36.6042 74.3125 36.9844C74.6302 37.375 75.0182 37.6693 75.4766 37.8672C75.9349 38.0599 76.4531 38.1562 77.0312 38.1562C77.6146 38.1562 78.1328 38.0573 78.5859 37.8594C79.0391 37.6615 79.4219 37.3698 79.7344 36.9844C80.0469 36.6042 80.2865 36.1354 80.4531 35.5781C80.6198 35.0156 80.7031 34.3724 80.7031 33.6484ZM74.7891 33.3594C74.7891 33.224 74.7891 33.0911 74.7891 32.9609C74.7891 32.8307 74.7891 32.7005 74.7891 32.5703V30.6641C74.7891 30.1328 74.8411 29.6667 74.9453 29.2656C75.0547 28.8594 75.2188 28.5286 75.4375 28.2734C75.6198 28.0703 75.8411 27.9167 76.1016 27.8125C76.3672 27.7031 76.6719 27.6484 77.0156 27.6484C77.3542 27.6484 77.651 27.6979 77.9062 27.7969C78.1667 27.8958 78.3854 28.0443 78.5625 28.2422C78.7448 28.4349 78.888 28.6771 78.9922 28.9688C79.1016 29.2552 79.1771 29.5859 79.2188 29.9609L74.7891 33.3594ZM79.25 33.9531C79.25 34.5104 79.1927 34.9948 79.0781 35.4062C78.9688 35.8177 78.7943 36.151 78.5547 36.4062C78.3776 36.5938 78.1615 36.737 77.9062 36.8359C77.651 36.9349 77.3594 36.9844 77.0312 36.9844C76.7188 36.9844 76.4375 36.9401 76.1875 36.8516C75.9375 36.7578 75.724 36.6224 75.5469 36.4453C75.3542 36.2578 75.1979 36.0208 75.0781 35.7344C74.9583 35.4427 74.875 35.1068 74.8281 34.7266L79.25 31.3438C79.25 31.4896 79.25 31.6745 79.25 31.8984C79.25 32.1172 79.25 32.2656 79.25 32.3438V33.9531Z" fill="url(#paint21_linear)"/>
<path d="M87.8594 38V26.625H87.7422L83.4375 28.2812V29.6016L86.4141 28.4688V38H87.8594Z" fill="url(#paint22_linear)"/>
<path d="M99.9219 33.6484V30.9844C99.9219 30.2604 99.8385 29.6198 99.6719 29.0625C99.5052 28.5 99.2656 28.026 98.9531 27.6406C98.6354 27.2552 98.2474 26.9635 97.7891 26.7656C97.3359 26.5625 96.8177 26.4609 96.2344 26.4609C95.6562 26.4609 95.138 26.5625 94.6797 26.7656C94.2266 26.9635 93.8438 27.2552 93.5312 27.6406C93.2135 28.026 92.9714 28.5 92.8047 29.0625C92.638 29.6198 92.5547 30.2604 92.5547 30.9844V33.6484C92.5547 34.3724 92.638 35.0156 92.8047 35.5781C92.9714 36.1354 93.2135 36.6042 93.5312 36.9844C93.849 37.375 94.237 37.6693 94.6953 37.8672C95.1536 38.0599 95.6719 38.1562 96.25 38.1562C96.8333 38.1562 97.3516 38.0573 97.8047 37.8594C98.2578 37.6615 98.6406 37.3698 98.9531 36.9844C99.2656 36.6042 99.5052 36.1354 99.6719 35.5781C99.8385 35.0156 99.9219 34.3724 99.9219 33.6484ZM94.0078 33.3594C94.0078 33.224 94.0078 33.0911 94.0078 32.9609C94.0078 32.8307 94.0078 32.7005 94.0078 32.5703V30.6641C94.0078 30.1328 94.0599 29.6667 94.1641 29.2656C94.2734 28.8594 94.4375 28.5286 94.6562 28.2734C94.8385 28.0703 95.0599 27.9167 95.3203 27.8125C95.5859 27.7031 95.8906 27.6484 96.2344 27.6484C96.5729 27.6484 96.8698 27.6979 97.125 27.7969C97.3854 27.8958 97.6042 28.0443 97.7812 28.2422C97.9635 28.4349 98.1068 28.6771 98.2109 28.9688C98.3203 29.2552 98.3958 29.5859 98.4375 29.9609L94.0078 33.3594ZM98.4688 33.9531C98.4688 34.5104 98.4115 34.9948 98.2969 35.4062C98.1875 35.8177 98.013 36.151 97.7734 36.4062C97.5964 36.5938 97.3802 36.737 97.125 36.8359C96.8698 36.9349 96.5781 36.9844 96.25 36.9844C95.9375 36.9844 95.6562 36.9401 95.4062 36.8516C95.1562 36.7578 94.9427 36.6224 94.7656 36.4453C94.5729 36.2578 94.4167 36.0208 94.2969 35.7344C94.1771 35.4427 94.0938 35.1068 94.0469 34.7266L98.4688 31.3438C98.4688 31.4896 98.4688 31.6745 98.4688 31.8984C98.4688 32.1172 98.4688 32.2656 98.4688 32.3438V33.9531Z" fill="url(#paint23_linear)"/>
<path d="M119.141 33.6484V30.9844C119.141 30.2604 119.057 29.6198 118.891 29.0625C118.724 28.5 118.484 28.026 118.172 27.6406C117.854 27.2552 117.466 26.9635 117.008 26.7656C116.555 26.5625 116.036 26.4609 115.453 26.4609C114.875 26.4609 114.357 26.5625 113.898 26.7656C113.445 26.9635 113.062 27.2552 112.75 27.6406C112.432 28.026 112.19 28.5 112.023 29.0625C111.857 29.6198 111.773 30.2604 111.773 30.9844V33.6484C111.773 34.3724 111.857 35.0156 112.023 35.5781C112.19 36.1354 112.432 36.6042 112.75 36.9844C113.068 37.375 113.456 37.6693 113.914 37.8672C114.372 38.0599 114.891 38.1562 115.469 38.1562C116.052 38.1562 116.57 38.0573 117.023 37.8594C117.477 37.6615 117.859 37.3698 118.172 36.9844C118.484 36.6042 118.724 36.1354 118.891 35.5781C119.057 35.0156 119.141 34.3724 119.141 33.6484ZM113.227 33.3594C113.227 33.224 113.227 33.0911 113.227 32.9609C113.227 32.8307 113.227 32.7005 113.227 32.5703V30.6641C113.227 30.1328 113.279 29.6667 113.383 29.2656C113.492 28.8594 113.656 28.5286 113.875 28.2734C114.057 28.0703 114.279 27.9167 114.539 27.8125C114.805 27.7031 115.109 27.6484 115.453 27.6484C115.792 27.6484 116.089 27.6979 116.344 27.7969C116.604 27.8958 116.823 28.0443 117 28.2422C117.182 28.4349 117.326 28.6771 117.43 28.9688C117.539 29.2552 117.615 29.5859 117.656 29.9609L113.227 33.3594ZM117.688 33.9531C117.688 34.5104 117.63 34.9948 117.516 35.4062C117.406 35.8177 117.232 36.151 116.992 36.4062C116.815 36.5938 116.599 36.737 116.344 36.8359C116.089 36.9349 115.797 36.9844 115.469 36.9844C115.156 36.9844 114.875 36.9401 114.625 36.8516C114.375 36.7578 114.161 36.6224 113.984 36.4453C113.792 36.2578 113.635 36.0208 113.516 35.7344C113.396 35.4427 113.312 35.1068 113.266 34.7266L117.688 31.3438C117.688 31.4896 117.688 31.6745 117.688 31.8984C117.688 32.1172 117.688 32.2656 117.688 32.3438V33.9531Z" fill="url(#paint24_linear)"/>
<path d="M126.297 38V26.625H126.18L121.875 28.2812V29.6016L124.852 28.4688V38H126.297Z" fill="url(#paint25_linear)"/>
<path d="M135.906 38V26.625H135.789L131.484 28.2812V29.6016L134.461 28.4688V38H135.906Z" fill="url(#paint26_linear)"/>
<path d="M147.969 33.6484V30.9844C147.969 30.2604 147.885 29.6198 147.719 29.0625C147.552 28.5 147.312 28.026 147 27.6406C146.682 27.2552 146.294 26.9635 145.836 26.7656C145.383 26.5625 144.865 26.4609 144.281 26.4609C143.703 26.4609 143.185 26.5625 142.727 26.7656C142.273 26.9635 141.891 27.2552 141.578 27.6406C141.26 28.026 141.018 28.5 140.852 29.0625C140.685 29.6198 140.602 30.2604 140.602 30.9844V33.6484C140.602 34.3724 140.685 35.0156 140.852 35.5781C141.018 36.1354 141.26 36.6042 141.578 36.9844C141.896 37.375 142.284 37.6693 142.742 37.8672C143.201 38.0599 143.719 38.1562 144.297 38.1562C144.88 38.1562 145.398 38.0573 145.852 37.8594C146.305 37.6615 146.688 37.3698 147 36.9844C147.312 36.6042 147.552 36.1354 147.719 35.5781C147.885 35.0156 147.969 34.3724 147.969 33.6484ZM142.055 33.3594C142.055 33.224 142.055 33.0911 142.055 32.9609C142.055 32.8307 142.055 32.7005 142.055 32.5703V30.6641C142.055 30.1328 142.107 29.6667 142.211 29.2656C142.32 28.8594 142.484 28.5286 142.703 28.2734C142.885 28.0703 143.107 27.9167 143.367 27.8125C143.633 27.7031 143.938 27.6484 144.281 27.6484C144.62 27.6484 144.917 27.6979 145.172 27.7969C145.432 27.8958 145.651 28.0443 145.828 28.2422C146.01 28.4349 146.154 28.6771 146.258 28.9688C146.367 29.2552 146.443 29.5859 146.484 29.9609L142.055 33.3594ZM146.516 33.9531C146.516 34.5104 146.458 34.9948 146.344 35.4062C146.234 35.8177 146.06 36.151 145.82 36.4062C145.643 36.5938 145.427 36.737 145.172 36.8359C144.917 36.9349 144.625 36.9844 144.297 36.9844C143.984 36.9844 143.703 36.9401 143.453 36.8516C143.203 36.7578 142.99 36.6224 142.812 36.4453C142.62 36.2578 142.464 36.0208 142.344 35.7344C142.224 35.4427 142.141 35.1068 142.094 34.7266L146.516 31.3438C146.516 31.4896 146.516 31.6745 146.516 31.8984C146.516 32.1172 146.516 32.2656 146.516 32.3438V33.9531Z" fill="url(#paint27_linear)"/>
<path d="M157.578 33.6484V30.9844C157.578 30.2604 157.495 29.6198 157.328 29.0625C157.161 28.5 156.922 28.026 156.609 27.6406C156.292 27.2552 155.904 26.9635 155.445 26.7656C154.992 26.5625 154.474 26.4609 153.891 26.4609C153.312 26.4609 152.794 26.5625 152.336 26.7656C151.883 26.9635 151.5 27.2552 151.188 27.6406C150.87 28.026 150.628 28.5 150.461 29.0625C150.294 29.6198 150.211 30.2604 150.211 30.9844V33.6484C150.211 34.3724 150.294 35.0156 150.461 35.5781C150.628 36.1354 150.87 36.6042 151.188 36.9844C151.505 37.375 151.893 37.6693 152.352 37.8672C152.81 38.0599 153.328 38.1562 153.906 38.1562C154.49 38.1562 155.008 38.0573 155.461 37.8594C155.914 37.6615 156.297 37.3698 156.609 36.9844C156.922 36.6042 157.161 36.1354 157.328 35.5781C157.495 35.0156 157.578 34.3724 157.578 33.6484ZM151.664 33.3594C151.664 33.224 151.664 33.0911 151.664 32.9609C151.664 32.8307 151.664 32.7005 151.664 32.5703V30.6641C151.664 30.1328 151.716 29.6667 151.82 29.2656C151.93 28.8594 152.094 28.5286 152.312 28.2734C152.495 28.0703 152.716 27.9167 152.977 27.8125C153.242 27.7031 153.547 27.6484 153.891 27.6484C154.229 27.6484 154.526 27.6979 154.781 27.7969C155.042 27.8958 155.26 28.0443 155.438 28.2422C155.62 28.4349 155.763 28.6771 155.867 28.9688C155.977 29.2552 156.052 29.5859 156.094 29.9609L151.664 33.3594ZM156.125 33.9531C156.125 34.5104 156.068 34.9948 155.953 35.4062C155.844 35.8177 155.669 36.151 155.43 36.4062C155.253 36.5938 155.036 36.737 154.781 36.8359C154.526 36.9349 154.234 36.9844 153.906 36.9844C153.594 36.9844 153.312 36.9401 153.062 36.8516C152.812 36.7578 152.599 36.6224 152.422 36.4453C152.229 36.2578 152.073 36.0208 151.953 35.7344C151.833 35.4427 151.75 35.1068 151.703 34.7266L156.125 31.3438C156.125 31.4896 156.125 31.6745 156.125 31.8984C156.125 32.1172 156.125 32.2656 156.125 32.3438V33.9531Z" fill="url(#paint28_linear)"/>
<path d="M167.188 33.6484V30.9844C167.188 30.2604 167.104 29.6198 166.938 29.0625C166.771 28.5 166.531 28.026 166.219 27.6406C165.901 27.2552 165.513 26.9635 165.055 26.7656C164.602 26.5625 164.083 26.4609 163.5 26.4609C162.922 26.4609 162.404 26.5625 161.945 26.7656C161.492 26.9635 161.109 27.2552 160.797 27.6406C160.479 28.026 160.237 28.5 160.07 29.0625C159.904 29.6198 159.82 30.2604 159.82 30.9844V33.6484C159.82 34.3724 159.904 35.0156 160.07 35.5781C160.237 36.1354 160.479 36.6042 160.797 36.9844C161.115 37.375 161.503 37.6693 161.961 37.8672C162.419 38.0599 162.938 38.1562 163.516 38.1562C164.099 38.1562 164.617 38.0573 165.07 37.8594C165.523 37.6615 165.906 37.3698 166.219 36.9844C166.531 36.6042 166.771 36.1354 166.938 35.5781C167.104 35.0156 167.188 34.3724 167.188 33.6484ZM161.273 33.3594C161.273 33.224 161.273 33.0911 161.273 32.9609C161.273 32.8307 161.273 32.7005 161.273 32.5703V30.6641C161.273 30.1328 161.326 29.6667 161.43 29.2656C161.539 28.8594 161.703 28.5286 161.922 28.2734C162.104 28.0703 162.326 27.9167 162.586 27.8125C162.852 27.7031 163.156 27.6484 163.5 27.6484C163.839 27.6484 164.135 27.6979 164.391 27.7969C164.651 27.8958 164.87 28.0443 165.047 28.2422C165.229 28.4349 165.372 28.6771 165.477 28.9688C165.586 29.2552 165.661 29.5859 165.703 29.9609L161.273 33.3594ZM165.734 33.9531C165.734 34.5104 165.677 34.9948 165.562 35.4062C165.453 35.8177 165.279 36.151 165.039 36.4062C164.862 36.5938 164.646 36.737 164.391 36.8359C164.135 36.9349 163.844 36.9844 163.516 36.9844C163.203 36.9844 162.922 36.9401 162.672 36.8516C162.422 36.7578 162.208 36.6224 162.031 36.4453C161.839 36.2578 161.682 36.0208 161.562 35.7344C161.443 35.4427 161.359 35.1068 161.312 34.7266L165.734 31.3438C165.734 31.4896 165.734 31.6745 165.734 31.8984C165.734 32.1172 165.734 32.2656 165.734 32.3438V33.9531Z" fill="url(#paint29_linear)"/>
<path d="M176.797 33.6484V30.9844C176.797 30.2604 176.714 29.6198 176.547 29.0625C176.38 28.5 176.141 28.026 175.828 27.6406C175.51 27.2552 175.122 26.9635 174.664 26.7656C174.211 26.5625 173.693 26.4609 173.109 26.4609C172.531 26.4609 172.013 26.5625 171.555 26.7656C171.102 26.9635 170.719 27.2552 170.406 27.6406C170.089 28.026 169.846 28.5 169.68 29.0625C169.513 29.6198 169.43 30.2604 169.43 30.9844V33.6484C169.43 34.3724 169.513 35.0156 169.68 35.5781C169.846 36.1354 170.089 36.6042 170.406 36.9844C170.724 37.375 171.112 37.6693 171.57 37.8672C172.029 38.0599 172.547 38.1562 173.125 38.1562C173.708 38.1562 174.227 38.0573 174.68 37.8594C175.133 37.6615 175.516 37.3698 175.828 36.9844C176.141 36.6042 176.38 36.1354 176.547 35.5781C176.714 35.0156 176.797 34.3724 176.797 33.6484ZM170.883 33.3594C170.883 33.224 170.883 33.0911 170.883 32.9609C170.883 32.8307 170.883 32.7005 170.883 32.5703V30.6641C170.883 30.1328 170.935 29.6667 171.039 29.2656C171.148 28.8594 171.312 28.5286 171.531 28.2734C171.714 28.0703 171.935 27.9167 172.195 27.8125C172.461 27.7031 172.766 27.6484 173.109 27.6484C173.448 27.6484 173.745 27.6979 174 27.7969C174.26 27.8958 174.479 28.0443 174.656 28.2422C174.839 28.4349 174.982 28.6771 175.086 28.9688C175.195 29.2552 175.271 29.5859 175.312 29.9609L170.883 33.3594ZM175.344 33.9531C175.344 34.5104 175.286 34.9948 175.172 35.4062C175.062 35.8177 174.888 36.151 174.648 36.4062C174.471 36.5938 174.255 36.737 174 36.8359C173.745 36.9349 173.453 36.9844 173.125 36.9844C172.812 36.9844 172.531 36.9401 172.281 36.8516C172.031 36.7578 171.818 36.6224 171.641 36.4453C171.448 36.2578 171.292 36.0208 171.172 35.7344C171.052 35.4427 170.969 35.1068 170.922 34.7266L175.344 31.3438C175.344 31.4896 175.344 31.6745 175.344 31.8984C175.344 32.1172 175.344 32.2656 175.344 32.3438V33.9531Z" fill="url(#paint30_linear)"/>
<path d="M183.953 38V26.625H183.836L179.531 28.2812V29.6016L182.508 28.4688V38H183.953Z" fill="url(#paint31_linear)"/>
<path d="M205.625 33.6484V30.9844C205.625 30.2604 205.542 29.6198 205.375 29.0625C205.208 28.5 204.969 28.026 204.656 27.6406C204.339 27.2552 203.951 26.9635 203.492 26.7656C203.039 26.5625 202.521 26.4609 201.938 26.4609C201.359 26.4609 200.841 26.5625 200.383 26.7656C199.93 26.9635 199.547 27.2552 199.234 27.6406C198.917 28.026 198.674 28.5 198.508 29.0625C198.341 29.6198 198.258 30.2604 198.258 30.9844V33.6484C198.258 34.3724 198.341 35.0156 198.508 35.5781C198.674 36.1354 198.917 36.6042 199.234 36.9844C199.552 37.375 199.94 37.6693 200.398 37.8672C200.857 38.0599 201.375 38.1562 201.953 38.1562C202.536 38.1562 203.055 38.0573 203.508 37.8594C203.961 37.6615 204.344 37.3698 204.656 36.9844C204.969 36.6042 205.208 36.1354 205.375 35.5781C205.542 35.0156 205.625 34.3724 205.625 33.6484ZM199.711 33.3594C199.711 33.224 199.711 33.0911 199.711 32.9609C199.711 32.8307 199.711 32.7005 199.711 32.5703V30.6641C199.711 30.1328 199.763 29.6667 199.867 29.2656C199.977 28.8594 200.141 28.5286 200.359 28.2734C200.542 28.0703 200.763 27.9167 201.023 27.8125C201.289 27.7031 201.594 27.6484 201.938 27.6484C202.276 27.6484 202.573 27.6979 202.828 27.7969C203.089 27.8958 203.307 28.0443 203.484 28.2422C203.667 28.4349 203.81 28.6771 203.914 28.9688C204.023 29.2552 204.099 29.5859 204.141 29.9609L199.711 33.3594ZM204.172 33.9531C204.172 34.5104 204.115 34.9948 204 35.4062C203.891 35.8177 203.716 36.151 203.477 36.4062C203.299 36.5938 203.083 36.737 202.828 36.8359C202.573 36.9349 202.281 36.9844 201.953 36.9844C201.641 36.9844 201.359 36.9401 201.109 36.8516C200.859 36.7578 200.646 36.6224 200.469 36.4453C200.276 36.2578 200.12 36.0208 200 35.7344C199.88 35.4427 199.797 35.1068 199.75 34.7266L204.172 31.3438C204.172 31.4896 204.172 31.6745 204.172 31.8984C204.172 32.1172 204.172 32.2656 204.172 32.3438V33.9531Z" fill="url(#paint32_linear)"/>
<path d="M212.781 38V26.625H212.664L208.359 28.2812V29.6016L211.336 28.4688V38H212.781Z" fill="url(#paint33_linear)"/>
<path d="M222.391 38V26.625H222.273L217.969 28.2812V29.6016L220.945 28.4688V38H222.391Z" fill="url(#paint34_linear)"/>
<path d="M232 38V26.625H231.883L227.578 28.2812V29.6016L230.555 28.4688V38H232Z" fill="url(#paint35_linear)"/>
<path d="M244.062 33.6484V30.9844C244.062 30.2604 243.979 29.6198 243.812 29.0625C243.646 28.5 243.406 28.026 243.094 27.6406C242.776 27.2552 242.388 26.9635 241.93 26.7656C241.477 26.5625 240.958 26.4609 240.375 26.4609C239.797 26.4609 239.279 26.5625 238.82 26.7656C238.367 26.9635 237.984 27.2552 237.672 27.6406C237.354 28.026 237.112 28.5 236.945 29.0625C236.779 29.6198 236.695 30.2604 236.695 30.9844V33.6484C236.695 34.3724 236.779 35.0156 236.945 35.5781C237.112 36.1354 237.354 36.6042 237.672 36.9844C237.99 37.375 238.378 37.6693 238.836 37.8672C239.294 38.0599 239.812 38.1562 240.391 38.1562C240.974 38.1562 241.492 38.0573 241.945 37.8594C242.398 37.6615 242.781 37.3698 243.094 36.9844C243.406 36.6042 243.646 36.1354 243.812 35.5781C243.979 35.0156 244.062 34.3724 244.062 33.6484ZM238.148 33.3594C238.148 33.224 238.148 33.0911 238.148 32.9609C238.148 32.8307 238.148 32.7005 238.148 32.5703V30.6641C238.148 30.1328 238.201 29.6667 238.305 29.2656C238.414 28.8594 238.578 28.5286 238.797 28.2734C238.979 28.0703 239.201 27.9167 239.461 27.8125C239.727 27.7031 240.031 27.6484 240.375 27.6484C240.714 27.6484 241.01 27.6979 241.266 27.7969C241.526 27.8958 241.745 28.0443 241.922 28.2422C242.104 28.4349 242.247 28.6771 242.352 28.9688C242.461 29.2552 242.536 29.5859 242.578 29.9609L238.148 33.3594ZM242.609 33.9531C242.609 34.5104 242.552 34.9948 242.438 35.4062C242.328 35.8177 242.154 36.151 241.914 36.4062C241.737 36.5938 241.521 36.737 241.266 36.8359C241.01 36.9349 240.719 36.9844 240.391 36.9844C240.078 36.9844 239.797 36.9401 239.547 36.8516C239.297 36.7578 239.083 36.6224 238.906 36.4453C238.714 36.2578 238.557 36.0208 238.438 35.7344C238.318 35.4427 238.234 35.1068 238.188 34.7266L242.609 31.3438C242.609 31.4896 242.609 31.6745 242.609 31.8984C242.609 32.1172 242.609 32.2656 242.609 32.3438V33.9531Z" fill="url(#paint36_linear)"/>
<path d="M251.219 38V26.625H251.102L246.797 28.2812V29.6016L249.773 28.4688V38H251.219Z" fill="url(#paint37_linear)"/>
<path d="M260.828 38V26.625H260.711L256.406 28.2812V29.6016L259.383 28.4688V38H260.828Z" fill="url(#paint38_linear)"/>
<path d="M272.891 33.6484V30.9844C272.891 30.2604 272.807 29.6198 272.641 29.0625C272.474 28.5 272.234 28.026 271.922 27.6406C271.604 27.2552 271.216 26.9635 270.758 26.7656C270.305 26.5625 269.786 26.4609 269.203 26.4609C268.625 26.4609 268.107 26.5625 267.648 26.7656C267.195 26.9635 266.812 27.2552 266.5 27.6406C266.182 28.026 265.94 28.5 265.773 29.0625C265.607 29.6198 265.523 30.2604 265.523 30.9844V33.6484C265.523 34.3724 265.607 35.0156 265.773 35.5781C265.94 36.1354 266.182 36.6042 266.5 36.9844C266.818 37.375 267.206 37.6693 267.664 37.8672C268.122 38.0599 268.641 38.1562 269.219 38.1562C269.802 38.1562 270.32 38.0573 270.773 37.8594C271.227 37.6615 271.609 37.3698 271.922 36.9844C272.234 36.6042 272.474 36.1354 272.641 35.5781C272.807 35.0156 272.891 34.3724 272.891 33.6484ZM266.977 33.3594C266.977 33.224 266.977 33.0911 266.977 32.9609C266.977 32.8307 266.977 32.7005 266.977 32.5703V30.6641C266.977 30.1328 267.029 29.6667 267.133 29.2656C267.242 28.8594 267.406 28.5286 267.625 28.2734C267.807 28.0703 268.029 27.9167 268.289 27.8125C268.555 27.7031 268.859 27.6484 269.203 27.6484C269.542 27.6484 269.839 27.6979 270.094 27.7969C270.354 27.8958 270.573 28.0443 270.75 28.2422C270.932 28.4349 271.076 28.6771 271.18 28.9688C271.289 29.2552 271.365 29.5859 271.406 29.9609L266.977 33.3594ZM271.438 33.9531C271.438 34.5104 271.38 34.9948 271.266 35.4062C271.156 35.8177 270.982 36.151 270.742 36.4062C270.565 36.5938 270.349 36.737 270.094 36.8359C269.839 36.9349 269.547 36.9844 269.219 36.9844C268.906 36.9844 268.625 36.9401 268.375 36.8516C268.125 36.7578 267.911 36.6224 267.734 36.4453C267.542 36.2578 267.385 36.0208 267.266 35.7344C267.146 35.4427 267.062 35.1068 267.016 34.7266L271.438 31.3438C271.438 31.4896 271.438 31.6745 271.438 31.8984C271.438 32.1172 271.438 32.2656 271.438 32.3438V33.9531Z" fill="url(#paint39_linear)"/>
<path d="M32.6562 54.6484V51.9844C32.6562 51.2604 32.5729 50.6198 32.4062 50.0625C32.2396 49.5 32 49.026 31.6875 48.6406C31.3698 48.2552 30.9818 47.9635 30.5234 47.7656C30.0703 47.5625 29.5521 47.4609 28.9688 47.4609C28.3906 47.4609 27.8724 47.5625 27.4141 47.7656C26.9609 47.9635 26.5781 48.2552 26.2656 48.6406C25.9479 49.026 25.7057 49.5 25.5391 50.0625C25.3724 50.6198 25.2891 51.2604 25.2891 51.9844V54.6484C25.2891 55.3724 25.3724 56.0156 25.5391 56.5781C25.7057 57.1354 25.9479 57.6042 26.2656 57.9844C26.5833 58.375 26.9714 58.6693 27.4297 58.8672C27.888 59.0599 28.4062 59.1562 28.9844 59.1562C29.5677 59.1562 30.0859 59.0573 30.5391 58.8594C30.9922 58.6615 31.375 58.3698 31.6875 57.9844C32 57.6042 32.2396 57.1354 32.4062 56.5781C32.5729 56.0156 32.6562 55.3724 32.6562 54.6484ZM26.7422 54.3594C26.7422 54.224 26.7422 54.0911 26.7422 53.9609C26.7422 53.8307 26.7422 53.7005 26.7422 53.5703V51.6641C26.7422 51.1328 26.7943 50.6667 26.8984 50.2656C27.0078 49.8594 27.1719 49.5286 27.3906 49.2734C27.5729 49.0703 27.7943 48.9167 28.0547 48.8125C28.3203 48.7031 28.625 48.6484 28.9688 48.6484C29.3073 48.6484 29.6042 48.6979 29.8594 48.7969C30.1198 48.8958 30.3385 49.0443 30.5156 49.2422C30.6979 49.4349 30.8411 49.6771 30.9453 49.9688C31.0547 50.2552 31.1302 50.5859 31.1719 50.9609L26.7422 54.3594ZM31.2031 54.9531C31.2031 55.5104 31.1458 55.9948 31.0312 56.4062C30.9219 56.8177 30.7474 57.151 30.5078 57.4062C30.3307 57.5938 30.1146 57.737 29.8594 57.8359C29.6042 57.9349 29.3125 57.9844 28.9844 57.9844C28.6719 57.9844 28.3906 57.9401 28.1406 57.8516C27.8906 57.7578 27.6771 57.6224 27.5 57.4453C27.3073 57.2578 27.151 57.0208 27.0312 56.7344C26.9115 56.4427 26.8281 56.1068 26.7812 55.7266L31.2031 52.3438C31.2031 52.4896 31.2031 52.6745 31.2031 52.8984C31.2031 53.1172 31.2031 53.2656 31.2031 53.3438V54.9531Z" fill="url(#paint40_linear)"/>
<path d="M39.8125 59V47.625H39.6953L35.3906 49.2812V50.6016L38.3672 49.4688V59H39.8125Z" fill="url(#paint41_linear)"/>
<path d="M49.4219 59V47.625H49.3047L45 49.2812V50.6016L47.9766 49.4688V59H49.4219Z" fill="url(#paint42_linear)"/>
<path d="M61.4844 54.6484V51.9844C61.4844 51.2604 61.401 50.6198 61.2344 50.0625C61.0677 49.5 60.8281 49.026 60.5156 48.6406C60.1979 48.2552 59.8099 47.9635 59.3516 47.7656C58.8984 47.5625 58.3802 47.4609 57.7969 47.4609C57.2188 47.4609 56.7005 47.5625 56.2422 47.7656C55.7891 47.9635 55.4062 48.2552 55.0938 48.6406C54.776 49.026 54.5339 49.5 54.3672 50.0625C54.2005 50.6198 54.1172 51.2604 54.1172 51.9844V54.6484C54.1172 55.3724 54.2005 56.0156 54.3672 56.5781C54.5339 57.1354 54.776 57.6042 55.0938 57.9844C55.4115 58.375 55.7995 58.6693 56.2578 58.8672C56.7161 59.0599 57.2344 59.1562 57.8125 59.1562C58.3958 59.1562 58.9141 59.0573 59.3672 58.8594C59.8203 58.6615 60.2031 58.3698 60.5156 57.9844C60.8281 57.6042 61.0677 57.1354 61.2344 56.5781C61.401 56.0156 61.4844 55.3724 61.4844 54.6484ZM55.5703 54.3594C55.5703 54.224 55.5703 54.0911 55.5703 53.9609C55.5703 53.8307 55.5703 53.7005 55.5703 53.5703V51.6641C55.5703 51.1328 55.6224 50.6667 55.7266 50.2656C55.8359 49.8594 56 49.5286 56.2188 49.2734C56.401 49.0703 56.6224 48.9167 56.8828 48.8125C57.1484 48.7031 57.4531 48.6484 57.7969 48.6484C58.1354 48.6484 58.4323 48.6979 58.6875 48.7969C58.9479 48.8958 59.1667 49.0443 59.3438 49.2422C59.526 49.4349 59.6693 49.6771 59.7734 49.9688C59.8828 50.2552 59.9583 50.5859 60 50.9609L55.5703 54.3594ZM60.0312 54.9531C60.0312 55.5104 59.974 55.9948 59.8594 56.4062C59.75 56.8177 59.5755 57.151 59.3359 57.4062C59.1589 57.5938 58.9427 57.737 58.6875 57.8359C58.4323 57.9349 58.1406 57.9844 57.8125 57.9844C57.5 57.9844 57.2188 57.9401 56.9688 57.8516C56.7188 57.7578 56.5052 57.6224 56.3281 57.4453C56.1354 57.2578 55.9792 57.0208 55.8594 56.7344C55.7396 56.4427 55.6562 56.1068 55.6094 55.7266L60.0312 52.3438C60.0312 52.4896 60.0312 52.6745 60.0312 52.8984C60.0312 53.1172 60.0312 53.2656 60.0312 53.3438V54.9531Z" fill="url(#paint43_linear)"/>
<path d="M71.0938 54.6484V51.9844C71.0938 51.2604 71.0104 50.6198 70.8438 50.0625C70.6771 49.5 70.4375 49.026 70.125 48.6406C69.8073 48.2552 69.4193 47.9635 68.9609 47.7656C68.5078 47.5625 67.9896 47.4609 67.4062 47.4609C66.8281 47.4609 66.3099 47.5625 65.8516 47.7656C65.3984 47.9635 65.0156 48.2552 64.7031 48.6406C64.3854 49.026 64.1432 49.5 63.9766 50.0625C63.8099 50.6198 63.7266 51.2604 63.7266 51.9844V54.6484C63.7266 55.3724 63.8099 56.0156 63.9766 56.5781C64.1432 57.1354 64.3854 57.6042 64.7031 57.9844C65.0208 58.375 65.4089 58.6693 65.8672 58.8672C66.3255 59.0599 66.8438 59.1562 67.4219 59.1562C68.0052 59.1562 68.5234 59.0573 68.9766 58.8594C69.4297 58.6615 69.8125 58.3698 70.125 57.9844C70.4375 57.6042 70.6771 57.1354 70.8438 56.5781C71.0104 56.0156 71.0938 55.3724 71.0938 54.6484ZM65.1797 54.3594C65.1797 54.224 65.1797 54.0911 65.1797 53.9609C65.1797 53.8307 65.1797 53.7005 65.1797 53.5703V51.6641C65.1797 51.1328 65.2318 50.6667 65.3359 50.2656C65.4453 49.8594 65.6094 49.5286 65.8281 49.2734C66.0104 49.0703 66.2318 48.9167 66.4922 48.8125C66.7578 48.7031 67.0625 48.6484 67.4062 48.6484C67.7448 48.6484 68.0417 48.6979 68.2969 48.7969C68.5573 48.8958 68.776 49.0443 68.9531 49.2422C69.1354 49.4349 69.2786 49.6771 69.3828 49.9688C69.4922 50.2552 69.5677 50.5859 69.6094 50.9609L65.1797 54.3594ZM69.6406 54.9531C69.6406 55.5104 69.5833 55.9948 69.4688 56.4062C69.3594 56.8177 69.1849 57.151 68.9453 57.4062C68.7682 57.5938 68.5521 57.737 68.2969 57.8359C68.0417 57.9349 67.75 57.9844 67.4219 57.9844C67.1094 57.9844 66.8281 57.9401 66.5781 57.8516C66.3281 57.7578 66.1146 57.6224 65.9375 57.4453C65.7448 57.2578 65.5885 57.0208 65.4688 56.7344C65.349 56.4427 65.2656 56.1068 65.2188 55.7266L69.6406 52.3438C69.6406 52.4896 69.6406 52.6745 69.6406 52.8984C69.6406 53.1172 69.6406 53.2656 69.6406 53.3438V54.9531Z" fill="url(#paint44_linear)"/>
<path d="M78.25 59V47.625H78.1328L73.8281 49.2812V50.6016L76.8047 49.4688V59H78.25Z" fill="url(#paint45_linear)"/>
<path d="M90.3125 54.6484V51.9844C90.3125 51.2604 90.2292 50.6198 90.0625 50.0625C89.8958 49.5 89.6562 49.026 89.3438 48.6406C89.026 48.2552 88.638 47.9635 88.1797 47.7656C87.7266 47.5625 87.2083 47.4609 86.625 47.4609C86.0469 47.4609 85.5286 47.5625 85.0703 47.7656C84.6172 47.9635 84.2344 48.2552 83.9219 48.6406C83.6042 49.026 83.362 49.5 83.1953 50.0625C83.0286 50.6198 82.9453 51.2604 82.9453 51.9844V54.6484C82.9453 55.3724 83.0286 56.0156 83.1953 56.5781C83.362 57.1354 83.6042 57.6042 83.9219 57.9844C84.2396 58.375 84.6276 58.6693 85.0859 58.8672C85.5443 59.0599 86.0625 59.1562 86.6406 59.1562C87.224 59.1562 87.7422 59.0573 88.1953 58.8594C88.6484 58.6615 89.0312 58.3698 89.3438 57.9844C89.6562 57.6042 89.8958 57.1354 90.0625 56.5781C90.2292 56.0156 90.3125 55.3724 90.3125 54.6484ZM84.3984 54.3594C84.3984 54.224 84.3984 54.0911 84.3984 53.9609C84.3984 53.8307 84.3984 53.7005 84.3984 53.5703V51.6641C84.3984 51.1328 84.4505 50.6667 84.5547 50.2656C84.6641 49.8594 84.8281 49.5286 85.0469 49.2734C85.2292 49.0703 85.4505 48.9167 85.7109 48.8125C85.9766 48.7031 86.2812 48.6484 86.625 48.6484C86.9635 48.6484 87.2604 48.6979 87.5156 48.7969C87.776 48.8958 87.9948 49.0443 88.1719 49.2422C88.3542 49.4349 88.4974 49.6771 88.6016 49.9688C88.7109 50.2552 88.7865 50.5859 88.8281 50.9609L84.3984 54.3594ZM88.8594 54.9531C88.8594 55.5104 88.8021 55.9948 88.6875 56.4062C88.5781 56.8177 88.4036 57.151 88.1641 57.4062C87.987 57.5938 87.7708 57.737 87.5156 57.8359C87.2604 57.9349 86.9688 57.9844 86.6406 57.9844C86.3281 57.9844 86.0469 57.9401 85.7969 57.8516C85.5469 57.7578 85.3333 57.6224 85.1562 57.4453C84.9635 57.2578 84.8073 57.0208 84.6875 56.7344C84.5677 56.4427 84.4844 56.1068 84.4375 55.7266L88.8594 52.3438C88.8594 52.4896 88.8594 52.6745 88.8594 52.8984C88.8594 53.1172 88.8594 53.2656 88.8594 53.3438V54.9531Z" fill="url(#paint46_linear)"/>
<path d="M97.4688 59V47.625H97.3516L93.0469 49.2812V50.6016L96.0234 49.4688V59H97.4688Z" fill="url(#paint47_linear)"/>
<path d="M119.141 54.6484V51.9844C119.141 51.2604 119.057 50.6198 118.891 50.0625C118.724 49.5 118.484 49.026 118.172 48.6406C117.854 48.2552 117.466 47.9635 117.008 47.7656C116.555 47.5625 116.036 47.4609 115.453 47.4609C114.875 47.4609 114.357 47.5625 113.898 47.7656C113.445 47.9635 113.062 48.2552 112.75 48.6406C112.432 49.026 112.19 49.5 112.023 50.0625C111.857 50.6198 111.773 51.2604 111.773 51.9844V54.6484C111.773 55.3724 111.857 56.0156 112.023 56.5781C112.19 57.1354 112.432 57.6042 112.75 57.9844C113.068 58.375 113.456 58.6693 113.914 58.8672C114.372 59.0599 114.891 59.1562 115.469 59.1562C116.052 59.1562 116.57 59.0573 117.023 58.8594C117.477 58.6615 117.859 58.3698 118.172 57.9844C118.484 57.6042 118.724 57.1354 118.891 56.5781C119.057 56.0156 119.141 55.3724 119.141 54.6484ZM113.227 54.3594C113.227 54.224 113.227 54.0911 113.227 53.9609C113.227 53.8307 113.227 53.7005 113.227 53.5703V51.6641C113.227 51.1328 113.279 50.6667 113.383 50.2656C113.492 49.8594 113.656 49.5286 113.875 49.2734C114.057 49.0703 114.279 48.9167 114.539 48.8125C114.805 48.7031 115.109 48.6484 115.453 48.6484C115.792 48.6484 116.089 48.6979 116.344 48.7969C116.604 48.8958 116.823 49.0443 117 49.2422C117.182 49.4349 117.326 49.6771 117.43 49.9688C117.539 50.2552 117.615 50.5859 117.656 50.9609L113.227 54.3594ZM117.688 54.9531C117.688 55.5104 117.63 55.9948 117.516 56.4062C117.406 56.8177 117.232 57.151 116.992 57.4062C116.815 57.5938 116.599 57.737 116.344 57.8359C116.089 57.9349 115.797 57.9844 115.469 57.9844C115.156 57.9844 114.875 57.9401 114.625 57.8516C114.375 57.7578 114.161 57.6224 113.984 57.4453C113.792 57.2578 113.635 57.0208 113.516 56.7344C113.396 56.4427 113.312 56.1068 113.266 55.7266L117.688 52.3438C117.688 52.4896 117.688 52.6745 117.688 52.8984C117.688 53.1172 117.688 53.2656 117.688 53.3438V54.9531Z" fill="url(#paint48_linear)"/>
<path d="M126.297 59V47.625H126.18L121.875 49.2812V50.6016L124.852 49.4688V59H126.297Z" fill="url(#paint49_linear)"/>
<path d="M135.906 59V47.625H135.789L131.484 49.2812V50.6016L134.461 49.4688V59H135.906Z" fill="url(#paint50_linear)"/>
<path d="M147.969 54.6484V51.9844C147.969 51.2604 147.885 50.6198 147.719 50.0625C147.552 49.5 147.312 49.026 147 48.6406C146.682 48.2552 146.294 47.9635 145.836 47.7656C145.383 47.5625 144.865 47.4609 144.281 47.4609C143.703 47.4609 143.185 47.5625 142.727 47.7656C142.273 47.9635 141.891 48.2552 141.578 48.6406C141.26 49.026 141.018 49.5 140.852 50.0625C140.685 50.6198 140.602 51.2604 140.602 51.9844V54.6484C140.602 55.3724 140.685 56.0156 140.852 56.5781C141.018 57.1354 141.26 57.6042 141.578 57.9844C141.896 58.375 142.284 58.6693 142.742 58.8672C143.201 59.0599 143.719 59.1562 144.297 59.1562C144.88 59.1562 145.398 59.0573 145.852 58.8594C146.305 58.6615 146.688 58.3698 147 57.9844C147.312 57.6042 147.552 57.1354 147.719 56.5781C147.885 56.0156 147.969 55.3724 147.969 54.6484ZM142.055 54.3594C142.055 54.224 142.055 54.0911 142.055 53.9609C142.055 53.8307 142.055 53.7005 142.055 53.5703V51.6641C142.055 51.1328 142.107 50.6667 142.211 50.2656C142.32 49.8594 142.484 49.5286 142.703 49.2734C142.885 49.0703 143.107 48.9167 143.367 48.8125C143.633 48.7031 143.938 48.6484 144.281 48.6484C144.62 48.6484 144.917 48.6979 145.172 48.7969C145.432 48.8958 145.651 49.0443 145.828 49.2422C146.01 49.4349 146.154 49.6771 146.258 49.9688C146.367 50.2552 146.443 50.5859 146.484 50.9609L142.055 54.3594ZM146.516 54.9531C146.516 55.5104 146.458 55.9948 146.344 56.4062C146.234 56.8177 146.06 57.151 145.82 57.4062C145.643 57.5938 145.427 57.737 145.172 57.8359C144.917 57.9349 144.625 57.9844 144.297 57.9844C143.984 57.9844 143.703 57.9401 143.453 57.8516C143.203 57.7578 142.99 57.6224 142.812 57.4453C142.62 57.2578 142.464 57.0208 142.344 56.7344C142.224 56.4427 142.141 56.1068 142.094 55.7266L146.516 52.3438C146.516 52.4896 146.516 52.6745 146.516 52.8984C146.516 53.1172 146.516 53.2656 146.516 53.3438V54.9531Z" fill="url(#paint51_linear)"/>
<path d="M157.578 54.6484V51.9844C157.578 51.2604 157.495 50.6198 157.328 50.0625C157.161 49.5 156.922 49.026 156.609 48.6406C156.292 48.2552 155.904 47.9635 155.445 47.7656C154.992 47.5625 154.474 47.4609 153.891 47.4609C153.312 47.4609 152.794 47.5625 152.336 47.7656C151.883 47.9635 151.5 48.2552 151.188 48.6406C150.87 49.026 150.628 49.5 150.461 50.0625C150.294 50.6198 150.211 51.2604 150.211 51.9844V54.6484C150.211 55.3724 150.294 56.0156 150.461 56.5781C150.628 57.1354 150.87 57.6042 151.188 57.9844C151.505 58.375 151.893 58.6693 152.352 58.8672C152.81 59.0599 153.328 59.1562 153.906 59.1562C154.49 59.1562 155.008 59.0573 155.461 58.8594C155.914 58.6615 156.297 58.3698 156.609 57.9844C156.922 57.6042 157.161 57.1354 157.328 56.5781C157.495 56.0156 157.578 55.3724 157.578 54.6484ZM151.664 54.3594C151.664 54.224 151.664 54.0911 151.664 53.9609C151.664 53.8307 151.664 53.7005 151.664 53.5703V51.6641C151.664 51.1328 151.716 50.6667 151.82 50.2656C151.93 49.8594 152.094 49.5286 152.312 49.2734C152.495 49.0703 152.716 48.9167 152.977 48.8125C153.242 48.7031 153.547 48.6484 153.891 48.6484C154.229 48.6484 154.526 48.6979 154.781 48.7969C155.042 48.8958 155.26 49.0443 155.438 49.2422C155.62 49.4349 155.763 49.6771 155.867 49.9688C155.977 50.2552 156.052 50.5859 156.094 50.9609L151.664 54.3594ZM156.125 54.9531C156.125 55.5104 156.068 55.9948 155.953 56.4062C155.844 56.8177 155.669 57.151 155.43 57.4062C155.253 57.5938 155.036 57.737 154.781 57.8359C154.526 57.9349 154.234 57.9844 153.906 57.9844C153.594 57.9844 153.312 57.9401 153.062 57.8516C152.812 57.7578 152.599 57.6224 152.422 57.4453C152.229 57.2578 152.073 57.0208 151.953 56.7344C151.833 56.4427 151.75 56.1068 151.703 55.7266L156.125 52.3438C156.125 52.4896 156.125 52.6745 156.125 52.8984C156.125 53.1172 156.125 53.2656 156.125 53.3438V54.9531Z" fill="url(#paint52_linear)"/>
<path d="M164.734 59V47.625H164.617L160.312 49.2812V50.6016L163.289 49.4688V59H164.734Z" fill="url(#paint53_linear)"/>
<path d="M176.797 54.6484V51.9844C176.797 51.2604 176.714 50.6198 176.547 50.0625C176.38 49.5 176.141 49.026 175.828 48.6406C175.51 48.2552 175.122 47.9635 174.664 47.7656C174.211 47.5625 173.693 47.4609 173.109 47.4609C172.531 47.4609 172.013 47.5625 171.555 47.7656C171.102 47.9635 170.719 48.2552 170.406 48.6406C170.089 49.026 169.846 49.5 169.68 50.0625C169.513 50.6198 169.43 51.2604 169.43 51.9844V54.6484C169.43 55.3724 169.513 56.0156 169.68 56.5781C169.846 57.1354 170.089 57.6042 170.406 57.9844C170.724 58.375 171.112 58.6693 171.57 58.8672C172.029 59.0599 172.547 59.1562 173.125 59.1562C173.708 59.1562 174.227 59.0573 174.68 58.8594C175.133 58.6615 175.516 58.3698 175.828 57.9844C176.141 57.6042 176.38 57.1354 176.547 56.5781C176.714 56.0156 176.797 55.3724 176.797 54.6484ZM170.883 54.3594C170.883 54.224 170.883 54.0911 170.883 53.9609C170.883 53.8307 170.883 53.7005 170.883 53.5703V51.6641C170.883 51.1328 170.935 50.6667 171.039 50.2656C171.148 49.8594 171.312 49.5286 171.531 49.2734C171.714 49.0703 171.935 48.9167 172.195 48.8125C172.461 48.7031 172.766 48.6484 173.109 48.6484C173.448 48.6484 173.745 48.6979 174 48.7969C174.26 48.8958 174.479 49.0443 174.656 49.2422C174.839 49.4349 174.982 49.6771 175.086 49.9688C175.195 50.2552 175.271 50.5859 175.312 50.9609L170.883 54.3594ZM175.344 54.9531C175.344 55.5104 175.286 55.9948 175.172 56.4062C175.062 56.8177 174.888 57.151 174.648 57.4062C174.471 57.5938 174.255 57.737 174 57.8359C173.745 57.9349 173.453 57.9844 173.125 57.9844C172.812 57.9844 172.531 57.9401 172.281 57.8516C172.031 57.7578 171.818 57.6224 171.641 57.4453C171.448 57.2578 171.292 57.0208 171.172 56.7344C171.052 56.4427 170.969 56.1068 170.922 55.7266L175.344 52.3438C175.344 52.4896 175.344 52.6745 175.344 52.8984C175.344 53.1172 175.344 53.2656 175.344 53.3438V54.9531Z" fill="url(#paint54_linear)"/>
<path d="M183.953 59V47.625H183.836L179.531 49.2812V50.6016L182.508 49.4688V59H183.953Z" fill="url(#paint55_linear)"/>
<path d="M205.625 54.6484V51.9844C205.625 51.2604 205.542 50.6198 205.375 50.0625C205.208 49.5 204.969 49.026 204.656 48.6406C204.339 48.2552 203.951 47.9635 203.492 47.7656C203.039 47.5625 202.521 47.4609 201.938 47.4609C201.359 47.4609 200.841 47.5625 200.383 47.7656C199.93 47.9635 199.547 48.2552 199.234 48.6406C198.917 49.026 198.674 49.5 198.508 50.0625C198.341 50.6198 198.258 51.2604 198.258 51.9844V54.6484C198.258 55.3724 198.341 56.0156 198.508 56.5781C198.674 57.1354 198.917 57.6042 199.234 57.9844C199.552 58.375 199.94 58.6693 200.398 58.8672C200.857 59.0599 201.375 59.1562 201.953 59.1562C202.536 59.1562 203.055 59.0573 203.508 58.8594C203.961 58.6615 204.344 58.3698 204.656 57.9844C204.969 57.6042 205.208 57.1354 205.375 56.5781C205.542 56.0156 205.625 55.3724 205.625 54.6484ZM199.711 54.3594C199.711 54.224 199.711 54.0911 199.711 53.9609C199.711 53.8307 199.711 53.7005 199.711 53.5703V51.6641C199.711 51.1328 199.763 50.6667 199.867 50.2656C199.977 49.8594 200.141 49.5286 200.359 49.2734C200.542 49.0703 200.763 48.9167 201.023 48.8125C201.289 48.7031 201.594 48.6484 201.938 48.6484C202.276 48.6484 202.573 48.6979 202.828 48.7969C203.089 48.8958 203.307 49.0443 203.484 49.2422C203.667 49.4349 203.81 49.6771 203.914 49.9688C204.023 50.2552 204.099 50.5859 204.141 50.9609L199.711 54.3594ZM204.172 54.9531C204.172 55.5104 204.115 55.9948 204 56.4062C203.891 56.8177 203.716 57.151 203.477 57.4062C203.299 57.5938 203.083 57.737 202.828 57.8359C202.573 57.9349 202.281 57.9844 201.953 57.9844C201.641 57.9844 201.359 57.9401 201.109 57.8516C200.859 57.7578 200.646 57.6224 200.469 57.4453C200.276 57.2578 200.12 57.0208 200 56.7344C199.88 56.4427 199.797 56.1068 199.75 55.7266L204.172 52.3438C204.172 52.4896 204.172 52.6745 204.172 52.8984C204.172 53.1172 204.172 53.2656 204.172 53.3438V54.9531Z" fill="url(#paint56_linear)"/>
<path d="M212.781 59V47.625H212.664L208.359 49.2812V50.6016L211.336 49.4688V59H212.781Z" fill="url(#paint57_linear)"/>
<path d="M222.391 59V47.625H222.273L217.969 49.2812V50.6016L220.945 49.4688V59H222.391Z" fill="url(#paint58_linear)"/>
<path d="M232 59V47.625H231.883L227.578 49.2812V50.6016L230.555 49.4688V59H232Z" fill="url(#paint59_linear)"/>
<path d="M244.062 54.6484V51.9844C244.062 51.2604 243.979 50.6198 243.812 50.0625C243.646 49.5 243.406 49.026 243.094 48.6406C242.776 48.2552 242.388 47.9635 241.93 47.7656C241.477 47.5625 240.958 47.4609 240.375 47.4609C239.797 47.4609 239.279 47.5625 238.82 47.7656C238.367 47.9635 237.984 48.2552 237.672 48.6406C237.354 49.026 237.112 49.5 236.945 50.0625C236.779 50.6198 236.695 51.2604 236.695 51.9844V54.6484C236.695 55.3724 236.779 56.0156 236.945 56.5781C237.112 57.1354 237.354 57.6042 237.672 57.9844C237.99 58.375 238.378 58.6693 238.836 58.8672C239.294 59.0599 239.812 59.1562 240.391 59.1562C240.974 59.1562 241.492 59.0573 241.945 58.8594C242.398 58.6615 242.781 58.3698 243.094 57.9844C243.406 57.6042 243.646 57.1354 243.812 56.5781C243.979 56.0156 244.062 55.3724 244.062 54.6484ZM238.148 54.3594C238.148 54.224 238.148 54.0911 238.148 53.9609C238.148 53.8307 238.148 53.7005 238.148 53.5703V51.6641C238.148 51.1328 238.201 50.6667 238.305 50.2656C238.414 49.8594 238.578 49.5286 238.797 49.2734C238.979 49.0703 239.201 48.9167 239.461 48.8125C239.727 48.7031 240.031 48.6484 240.375 48.6484C240.714 48.6484 241.01 48.6979 241.266 48.7969C241.526 48.8958 241.745 49.0443 241.922 49.2422C242.104 49.4349 242.247 49.6771 242.352 49.9688C242.461 50.2552 242.536 50.5859 242.578 50.9609L238.148 54.3594ZM242.609 54.9531C242.609 55.5104 242.552 55.9948 242.438 56.4062C242.328 56.8177 242.154 57.151 241.914 57.4062C241.737 57.5938 241.521 57.737 241.266 57.8359C241.01 57.9349 240.719 57.9844 240.391 57.9844C240.078 57.9844 239.797 57.9401 239.547 57.8516C239.297 57.7578 239.083 57.6224 238.906 57.4453C238.714 57.2578 238.557 57.0208 238.438 56.7344C238.318 56.4427 238.234 56.1068 238.188 55.7266L242.609 52.3438C242.609 52.4896 242.609 52.6745 242.609 52.8984C242.609 53.1172 242.609 53.2656 242.609 53.3438V54.9531Z" fill="url(#paint60_linear)"/>
<path d="M253.672 54.6484V51.9844C253.672 51.2604 253.589 50.6198 253.422 50.0625C253.255 49.5 253.016 49.026 252.703 48.6406C252.385 48.2552 251.997 47.9635 251.539 47.7656C251.086 47.5625 250.568 47.4609 249.984 47.4609C249.406 47.4609 248.888 47.5625 248.43 47.7656C247.977 47.9635 247.594 48.2552 247.281 48.6406C246.964 49.026 246.721 49.5 246.555 50.0625C246.388 50.6198 246.305 51.2604 246.305 51.9844V54.6484C246.305 55.3724 246.388 56.0156 246.555 56.5781C246.721 57.1354 246.964 57.6042 247.281 57.9844C247.599 58.375 247.987 58.6693 248.445 58.8672C248.904 59.0599 249.422 59.1562 250 59.1562C250.583 59.1562 251.102 59.0573 251.555 58.8594C252.008 58.6615 252.391 58.3698 252.703 57.9844C253.016 57.6042 253.255 57.1354 253.422 56.5781C253.589 56.0156 253.672 55.3724 253.672 54.6484ZM247.758 54.3594C247.758 54.224 247.758 54.0911 247.758 53.9609C247.758 53.8307 247.758 53.7005 247.758 53.5703V51.6641C247.758 51.1328 247.81 50.6667 247.914 50.2656C248.023 49.8594 248.188 49.5286 248.406 49.2734C248.589 49.0703 248.81 48.9167 249.07 48.8125C249.336 48.7031 249.641 48.6484 249.984 48.6484C250.323 48.6484 250.62 48.6979 250.875 48.7969C251.135 48.8958 251.354 49.0443 251.531 49.2422C251.714 49.4349 251.857 49.6771 251.961 49.9688C252.07 50.2552 252.146 50.5859 252.188 50.9609L247.758 54.3594ZM252.219 54.9531C252.219 55.5104 252.161 55.9948 252.047 56.4062C251.938 56.8177 251.763 57.151 251.523 57.4062C251.346 57.5938 251.13 57.737 250.875 57.8359C250.62 57.9349 250.328 57.9844 250 57.9844C249.688 57.9844 249.406 57.9401 249.156 57.8516C248.906 57.7578 248.693 57.6224 248.516 57.4453C248.323 57.2578 248.167 57.0208 248.047 56.7344C247.927 56.4427 247.844 56.1068 247.797 55.7266L252.219 52.3438C252.219 52.4896 252.219 52.6745 252.219 52.8984C252.219 53.1172 252.219 53.2656 252.219 53.3438V54.9531Z" fill="url(#paint61_linear)"/>
<path d="M260.828 59V47.625H260.711L256.406 49.2812V50.6016L259.383 49.4688V59H260.828Z" fill="url(#paint62_linear)"/>
<path d="M270.438 59V47.625H270.32L266.016 49.2812V50.6016L268.992 49.4688V59H270.438Z" fill="url(#paint63_linear)"/>
<path d="M205.625 75.6484V72.9844C205.625 72.2604 205.542 71.6198 205.375 71.0625C205.208 70.5 204.969 70.026 204.656 69.6406C204.339 69.2552 203.951 68.9635 203.492 68.7656C203.039 68.5625 202.521 68.4609 201.938 68.4609C201.359 68.4609 200.841 68.5625 200.383 68.7656C199.93 68.9635 199.547 69.2552 199.234 69.6406C198.917 70.026 198.674 70.5 198.508 71.0625C198.341 71.6198 198.258 72.2604 198.258 72.9844V75.6484C198.258 76.3724 198.341 77.0156 198.508 77.5781C198.674 78.1354 198.917 78.6042 199.234 78.9844C199.552 79.375 199.94 79.6693 200.398 79.8672C200.857 80.0599 201.375 80.1562 201.953 80.1562C202.536 80.1562 203.055 80.0573 203.508 79.8594C203.961 79.6615 204.344 79.3698 204.656 78.9844C204.969 78.6042 205.208 78.1354 205.375 77.5781C205.542 77.0156 205.625 76.3724 205.625 75.6484ZM199.711 75.3594C199.711 75.224 199.711 75.0911 199.711 74.9609C199.711 74.8307 199.711 74.7005 199.711 74.5703V72.6641C199.711 72.1328 199.763 71.6667 199.867 71.2656C199.977 70.8594 200.141 70.5286 200.359 70.2734C200.542 70.0703 200.763 69.9167 201.023 69.8125C201.289 69.7031 201.594 69.6484 201.938 69.6484C202.276 69.6484 202.573 69.6979 202.828 69.7969C203.089 69.8958 203.307 70.0443 203.484 70.2422C203.667 70.4349 203.81 70.6771 203.914 70.9688C204.023 71.2552 204.099 71.5859 204.141 71.9609L199.711 75.3594ZM204.172 75.9531C204.172 76.5104 204.115 76.9948 204 77.4062C203.891 77.8177 203.716 78.151 203.477 78.4062C203.299 78.5938 203.083 78.737 202.828 78.8359C202.573 78.9349 202.281 78.9844 201.953 78.9844C201.641 78.9844 201.359 78.9401 201.109 78.8516C200.859 78.7578 200.646 78.6224 200.469 78.4453C200.276 78.2578 200.12 78.0208 200 77.7344C199.88 77.4427 199.797 77.1068 199.75 76.7266L204.172 73.3438C204.172 73.4896 204.172 73.6745 204.172 73.8984C204.172 74.1172 204.172 74.2656 204.172 74.3438V75.9531Z" fill="url(#paint64_linear)"/>
<path d="M212.781 80V68.625H212.664L208.359 70.2812V71.6016L211.336 70.4688V80H212.781Z" fill="url(#paint65_linear)"/>
<path d="M222.391 80V68.625H222.273L217.969 70.2812V71.6016L220.945 70.4688V80H222.391Z" fill="url(#paint66_linear)"/>
<path d="M234.453 75.6484V72.9844C234.453 72.2604 234.37 71.6198 234.203 71.0625C234.036 70.5 233.797 70.026 233.484 69.6406C233.167 69.2552 232.779 68.9635 232.32 68.7656C231.867 68.5625 231.349 68.4609 230.766 68.4609C230.188 68.4609 229.669 68.5625 229.211 68.7656C228.758 68.9635 228.375 69.2552 228.062 69.6406C227.745 70.026 227.503 70.5 227.336 71.0625C227.169 71.6198 227.086 72.2604 227.086 72.9844V75.6484C227.086 76.3724 227.169 77.0156 227.336 77.5781C227.503 78.1354 227.745 78.6042 228.062 78.9844C228.38 79.375 228.768 79.6693 229.227 79.8672C229.685 80.0599 230.203 80.1562 230.781 80.1562C231.365 80.1562 231.883 80.0573 232.336 79.8594C232.789 79.6615 233.172 79.3698 233.484 78.9844C233.797 78.6042 234.036 78.1354 234.203 77.5781C234.37 77.0156 234.453 76.3724 234.453 75.6484ZM228.539 75.3594C228.539 75.224 228.539 75.0911 228.539 74.9609C228.539 74.8307 228.539 74.7005 228.539 74.5703V72.6641C228.539 72.1328 228.591 71.6667 228.695 71.2656C228.805 70.8594 228.969 70.5286 229.188 70.2734C229.37 70.0703 229.591 69.9167 229.852 69.8125C230.117 69.7031 230.422 69.6484 230.766 69.6484C231.104 69.6484 231.401 69.6979 231.656 69.7969C231.917 69.8958 232.135 70.0443 232.312 70.2422C232.495 70.4349 232.638 70.6771 232.742 70.9688C232.852 71.2552 232.927 71.5859 232.969 71.9609L228.539 75.3594ZM233 75.9531C233 76.5104 232.943 76.9948 232.828 77.4062C232.719 77.8177 232.544 78.151 232.305 78.4062C232.128 78.5938 231.911 78.737 231.656 78.8359C231.401 78.9349 231.109 78.9844 230.781 78.9844C230.469 78.9844 230.188 78.9401 229.938 78.8516C229.688 78.7578 229.474 78.6224 229.297 78.4453C229.104 78.2578 228.948 78.0208 228.828 77.7344C228.708 77.4427 228.625 77.1068 228.578 76.7266L233 73.3438C233 73.4896 233 73.6745 233 73.8984C233 74.1172 233 74.2656 233 74.3438V75.9531Z" fill="url(#paint67_linear)"/>
<path d="M241.609 80V68.625H241.492L237.188 70.2812V71.6016L240.164 70.4688V80H241.609Z" fill="url(#paint68_linear)"/>
<path d="M253.672 75.6484V72.9844C253.672 72.2604 253.589 71.6198 253.422 71.0625C253.255 70.5 253.016 70.026 252.703 69.6406C252.385 69.2552 251.997 68.9635 251.539 68.7656C251.086 68.5625 250.568 68.4609 249.984 68.4609C249.406 68.4609 248.888 68.5625 248.43 68.7656C247.977 68.9635 247.594 69.2552 247.281 69.6406C246.964 70.026 246.721 70.5 246.555 71.0625C246.388 71.6198 246.305 72.2604 246.305 72.9844V75.6484C246.305 76.3724 246.388 77.0156 246.555 77.5781C246.721 78.1354 246.964 78.6042 247.281 78.9844C247.599 79.375 247.987 79.6693 248.445 79.8672C248.904 80.0599 249.422 80.1562 250 80.1562C250.583 80.1562 251.102 80.0573 251.555 79.8594C252.008 79.6615 252.391 79.3698 252.703 78.9844C253.016 78.6042 253.255 78.1354 253.422 77.5781C253.589 77.0156 253.672 76.3724 253.672 75.6484ZM247.758 75.3594C247.758 75.224 247.758 75.0911 247.758 74.9609C247.758 74.8307 247.758 74.7005 247.758 74.5703V72.6641C247.758 72.1328 247.81 71.6667 247.914 71.2656C248.023 70.8594 248.188 70.5286 248.406 70.2734C248.589 70.0703 248.81 69.9167 249.07 69.8125C249.336 69.7031 249.641 69.6484 249.984 69.6484C250.323 69.6484 250.62 69.6979 250.875 69.7969C251.135 69.8958 251.354 70.0443 251.531 70.2422C251.714 70.4349 251.857 70.6771 251.961 70.9688C252.07 71.2552 252.146 71.5859 252.188 71.9609L247.758 75.3594ZM252.219 75.9531C252.219 76.5104 252.161 76.9948 252.047 77.4062C251.938 77.8177 251.763 78.151 251.523 78.4062C251.346 78.5938 251.13 78.737 250.875 78.8359C250.62 78.9349 250.328 78.9844 250 78.9844C249.688 78.9844 249.406 78.9401 249.156 78.8516C248.906 78.7578 248.693 78.6224 248.516 78.4453C248.323 78.2578 248.167 78.0208 248.047 77.7344C247.927 77.4427 247.844 77.1068 247.797 76.7266L252.219 73.3438C252.219 73.4896 252.219 73.6745 252.219 73.8984C252.219 74.1172 252.219 74.2656 252.219 74.3438V75.9531Z" fill="url(#paint69_linear)"/>
<path d="M263.281 75.6484V72.9844C263.281 72.2604 263.198 71.6198 263.031 71.0625C262.865 70.5 262.625 70.026 262.312 69.6406C261.995 69.2552 261.607 68.9635 261.148 68.7656C260.695 68.5625 260.177 68.4609 259.594 68.4609C259.016 68.4609 258.497 68.5625 258.039 68.7656C257.586 68.9635 257.203 69.2552 256.891 69.6406C256.573 70.026 256.331 70.5 256.164 71.0625C255.997 71.6198 255.914 72.2604 255.914 72.9844V75.6484C255.914 76.3724 255.997 77.0156 256.164 77.5781C256.331 78.1354 256.573 78.6042 256.891 78.9844C257.208 79.375 257.596 79.6693 258.055 79.8672C258.513 80.0599 259.031 80.1562 259.609 80.1562C260.193 80.1562 260.711 80.0573 261.164 79.8594C261.617 79.6615 262 79.3698 262.312 78.9844C262.625 78.6042 262.865 78.1354 263.031 77.5781C263.198 77.0156 263.281 76.3724 263.281 75.6484ZM257.367 75.3594C257.367 75.224 257.367 75.0911 257.367 74.9609C257.367 74.8307 257.367 74.7005 257.367 74.5703V72.6641C257.367 72.1328 257.419 71.6667 257.523 71.2656C257.633 70.8594 257.797 70.5286 258.016 70.2734C258.198 70.0703 258.419 69.9167 258.68 69.8125C258.945 69.7031 259.25 69.6484 259.594 69.6484C259.932 69.6484 260.229 69.6979 260.484 69.7969C260.745 69.8958 260.964 70.0443 261.141 70.2422C261.323 70.4349 261.466 70.6771 261.57 70.9688C261.68 71.2552 261.755 71.5859 261.797 71.9609L257.367 75.3594ZM261.828 75.9531C261.828 76.5104 261.771 76.9948 261.656 77.4062C261.547 77.8177 261.372 78.151 261.133 78.4062C260.956 78.5938 260.74 78.737 260.484 78.8359C260.229 78.9349 259.938 78.9844 259.609 78.9844C259.297 78.9844 259.016 78.9401 258.766 78.8516C258.516 78.7578 258.302 78.6224 258.125 78.4453C257.932 78.2578 257.776 78.0208 257.656 77.7344C257.536 77.4427 257.453 77.1068 257.406 76.7266L261.828 73.3438C261.828 73.4896 261.828 73.6745 261.828 73.8984C261.828 74.1172 261.828 74.2656 261.828 74.3438V75.9531Z" fill="url(#paint70_linear)"/>
<path d="M272.891 75.6484V72.9844C272.891 72.2604 272.807 71.6198 272.641 71.0625C272.474 70.5 272.234 70.026 271.922 69.6406C271.604 69.2552 271.216 68.9635 270.758 68.7656C270.305 68.5625 269.786 68.4609 269.203 68.4609C268.625 68.4609 268.107 68.5625 267.648 68.7656C267.195 68.9635 266.812 69.2552 266.5 69.6406C266.182 70.026 265.94 70.5 265.773 71.0625C265.607 71.6198 265.523 72.2604 265.523 72.9844V75.6484C265.523 76.3724 265.607 77.0156 265.773 77.5781C265.94 78.1354 266.182 78.6042 266.5 78.9844C266.818 79.375 267.206 79.6693 267.664 79.8672C268.122 80.0599 268.641 80.1562 269.219 80.1562C269.802 80.1562 270.32 80.0573 270.773 79.8594C271.227 79.6615 271.609 79.3698 271.922 78.9844C272.234 78.6042 272.474 78.1354 272.641 77.5781C272.807 77.0156 272.891 76.3724 272.891 75.6484ZM266.977 75.3594C266.977 75.224 266.977 75.0911 266.977 74.9609C266.977 74.8307 266.977 74.7005 266.977 74.5703V72.6641C266.977 72.1328 267.029 71.6667 267.133 71.2656C267.242 70.8594 267.406 70.5286 267.625 70.2734C267.807 70.0703 268.029 69.9167 268.289 69.8125C268.555 69.7031 268.859 69.6484 269.203 69.6484C269.542 69.6484 269.839 69.6979 270.094 69.7969C270.354 69.8958 270.573 70.0443 270.75 70.2422C270.932 70.4349 271.076 70.6771 271.18 70.9688C271.289 71.2552 271.365 71.5859 271.406 71.9609L266.977 75.3594ZM271.438 75.9531C271.438 76.5104 271.38 76.9948 271.266 77.4062C271.156 77.8177 270.982 78.151 270.742 78.4062C270.565 78.5938 270.349 78.737 270.094 78.8359C269.839 78.9349 269.547 78.9844 269.219 78.9844C268.906 78.9844 268.625 78.9401 268.375 78.8516C268.125 78.7578 267.911 78.6224 267.734 78.4453C267.542 78.2578 267.385 78.0208 267.266 77.7344C267.146 77.4427 267.062 77.1068 267.016 76.7266L271.438 73.3438C271.438 73.4896 271.438 73.6745 271.438 73.8984C271.438 74.1172 271.438 74.2656 271.438 74.3438V75.9531Z" fill="url(#paint71_linear)"/>
<path d="M17 87H274V102H17V87Z" fill="url(#paint72_linear)"/>
<defs>
<linearGradient id="paint0_linear" x1="274" y1="95" x2="17" y2="95" gradientUnits="userSpaceOnUse">
<stop stop-color="#EEF1EF"/>
<stop offset="1" stop-color="#C4C4C4" stop-opacity="0"/>
</linearGradient>
<linearGradient id="paint1_linear" x1="274" y1="95" x2="17" y2="95" gradientUnits="userSpaceOnUse">
<stop stop-color="#EEF1EF"/>
<stop offset="1" stop-color="#C4C4C4" stop-opacity="0"/>
</linearGradient>
<linearGradient id="paint2_linear" x1="274" y1="95" x2="17" y2="95" gradientUnits="userSpaceOnUse">
<stop stop-color="#EEF1EF"/>
<stop offset="1" stop-color="#C4C4C4" stop-opacity="0"/>
</linearGradient>
<linearGradient id="paint3_linear" x1="274" y1="95" x2="17" y2="95" gradientUnits="userSpaceOnUse">
<stop stop-color="#EEF1EF"/>
<stop offset="1" stop-color="#C4C4C4" stop-opacity="0"/>
</linearGradient>
<linearGradient id="paint4_linear" x1="274" y1="95" x2="17" y2="95" gradientUnits="userSpaceOnUse">
<stop stop-color="#EEF1EF"/>
<stop offset="1" stop-color="#C4C4C4" stop-opacity="0"/>
</linearGradient>
<linearGradient id="paint5_linear" x1="274" y1="95" x2="17" y2="95" gradientUnits="userSpaceOnUse">
<stop stop-color="#EEF1EF"/>
<stop offset="1" stop-color="#C4C4C4" stop-opacity="0"/>
</linearGradient>
<linearGradient id="paint6_linear" x1="274" y1="95" x2="17" y2="95" gradientUnits="userSpaceOnUse">
<stop stop-color="#EEF1EF"/>
<stop offset="1" stop-color="#C4C4C4" stop-opacity="0"/>
</linearGradient>
<linearGradient id="paint7_linear" x1="274" y1="95" x2="17" y2="95" gradientUnits="userSpaceOnUse">
<stop stop-color="#EEF1EF"/>
<stop offset="1" stop-color="#C4C4C4" stop-opacity="0"/>
</linearGradient>
<linearGradient id="paint8_linear" x1="274" y1="95" x2="17" y2="95" gradientUnits="userSpaceOnUse">
<stop stop-color="#EEF1EF"/>
<stop offset="1" stop-color="#C4C4C4" stop-opacity="0"/>
</linearGradient>
<linearGradient id="paint9_linear" x1="274" y1="95" x2="17" y2="95" gradientUnits="userSpaceOnUse">
<stop stop-color="#EEF1EF"/>
<stop offset="1" stop-color="#C4C4C4" stop-opacity="0"/>
</linearGradient>
<linearGradient id="paint10_linear" x1="274" y1="95" x2="17" y2="95" gradientUnits="userSpaceOnUse">
<stop stop-color="#EEF1EF"/>
<stop offset="1" stop-color="#C4C4C4" stop-opacity="0"/>
</linearGradient>
<linearGradient id="paint11_linear" x1="274" y1="95" x2="17" y2="95" gradientUnits="userSpaceOnUse">
<stop stop-color="#EEF1EF"/>
<stop offset="1" stop-color="#C4C4C4" stop-opacity="0"/>
</linearGradient>
<linearGradient id="paint12_linear" x1="274" y1="95" x2="17" y2="95" gradientUnits="userSpaceOnUse">
<stop stop-color="#EEF1EF"/>
<stop offset="1" stop-color="#C4C4C4" stop-opacity="0"/>
</linearGradient>
<linearGradient id="paint13_linear" x1="274" y1="95" x2="17" y2="95" gradientUnits="userSpaceOnUse">
<stop stop-color="#EEF1EF"/>
<stop offset="1" stop-color="#C4C4C4" stop-opacity="0"/>
</linearGradient>
<linearGradient id="paint14_linear" x1="274" y1="95" x2="17" y2="95" gradientUnits="userSpaceOnUse">
<stop stop-color="#EEF1EF"/>
<stop offset="1" stop-color="#C4C4C4" stop-opacity="0"/>
</linearGradient>
<linearGradient id="paint15_linear" x1="274" y1="95" x2="17" y2="95" gradientUnits="userSpaceOnUse">
<stop stop-color="#EEF1EF"/>
<stop offset="1" stop-color="#C4C4C4" stop-opacity="0"/>
</linearGradient>
<linearGradient id="paint16_linear" x1="274" y1="95" x2="17" y2="95" gradientUnits="userSpaceOnUse">
<stop stop-color="#EEF1EF"/>
<stop offset="1" stop-color="#C4C4C4" stop-opacity="0"/>
</linearGradient>
<linearGradient id="paint17_linear" x1="274" y1="95" x2="17" y2="95" gradientUnits="userSpaceOnUse">
<stop stop-color="#EEF1EF"/>
<stop offset="1" stop-color="#C4C4C4" stop-opacity="0"/>
</linearGradient>
<linearGradient id="paint18_linear" x1="274" y1="95" x2="17" y2="95" gradientUnits="userSpaceOnUse">
<stop stop-color="#EEF1EF"/>
<stop offset="1" stop-color="#C4C4C4" stop-opacity="0"/>
</linearGradient>
<linearGradient id="paint19_linear" x1="274" y1="95" x2="17" y2="95" gradientUnits="userSpaceOnUse">
<stop stop-color="#EEF1EF"/>
<stop offset="1" stop-color="#C4C4C4" stop-opacity="0"/>
</linearGradient>
<linearGradient id="paint20_linear" x1="274" y1="95" x2="17" y2="95" gradientUnits="userSpaceOnUse">
<stop stop-color="#EEF1EF"/>
<stop offset="1" stop-color="#C4C4C4" stop-opacity="0"/>
</linearGradient>
<linearGradient id="paint21_linear" x1="274" y1="95" x2="17" y2="95" gradientUnits="userSpaceOnUse">
<stop stop-color="#EEF1EF"/>
<stop offset="1" stop-color="#C4C4C4" stop-opacity="0"/>
</linearGradient>
<linearGradient id="paint22_linear" x1="274" y1="95" x2="17" y2="95" gradientUnits="userSpaceOnUse">
<stop stop-color="#EEF1EF"/>
<stop offset="1" stop-color="#C4C4C4" stop-opacity="0"/>
</linearGradient>
<linearGradient id="paint23_linear" x1="274" y1="95" x2="17" y2="95" gradientUnits="userSpaceOnUse">
<stop stop-color="#EEF1EF"/>
<stop offset="1" stop-color="#C4C4C4" stop-opacity="0"/>
</linearGradient>
<linearGradient id="paint24_linear" x1="274" y1="95" x2="17" y2="95" gradientUnits="userSpaceOnUse">
<stop stop-color="#EEF1EF"/>
<stop offset="1" stop-color="#C4C4C4" stop-opacity="0"/>
</linearGradient>
<linearGradient id="paint25_linear" x1="274" y1="95" x2="17" y2="95" gradientUnits="userSpaceOnUse">
<stop stop-color="#EEF1EF"/>
<stop offset="1" stop-color="#C4C4C4" stop-opacity="0"/>
</linearGradient>
<linearGradient id="paint26_linear" x1="274" y1="95" x2="17" y2="95" gradientUnits="userSpaceOnUse">
<stop stop-color="#EEF1EF"/>
<stop offset="1" stop-color="#C4C4C4" stop-opacity="0"/>
</linearGradient>
<linearGradient id="paint27_linear" x1="274" y1="95" x2="17" y2="95" gradientUnits="userSpaceOnUse">
<stop stop-color="#EEF1EF"/>
<stop offset="1" stop-color="#C4C4C4" stop-opacity="0"/>
</linearGradient>
<linearGradient id="paint28_linear" x1="274" y1="95" x2="17" y2="95" gradientUnits="userSpaceOnUse">
<stop stop-color="#EEF1EF"/>
<stop offset="1" stop-color="#C4C4C4" stop-opacity="0"/>
</linearGradient>
<linearGradient id="paint29_linear" x1="274" y1="95" x2="17" y2="95" gradientUnits="userSpaceOnUse">
<stop stop-color="#EEF1EF"/>
<stop offset="1" stop-color="#C4C4C4" stop-opacity="0"/>
</linearGradient>
<linearGradient id="paint30_linear" x1="274" y1="95" x2="17" y2="95" gradientUnits="userSpaceOnUse">
<stop stop-color="#EEF1EF"/>
<stop offset="1" stop-color="#C4C4C4" stop-opacity="0"/>
</linearGradient>
<linearGradient id="paint31_linear" x1="274" y1="95" x2="17" y2="95" gradientUnits="userSpaceOnUse">
<stop stop-color="#EEF1EF"/>
<stop offset="1" stop-color="#C4C4C4" stop-opacity="0"/>
</linearGradient>
<linearGradient id="paint32_linear" x1="274" y1="95" x2="17" y2="95" gradientUnits="userSpaceOnUse">
<stop stop-color="#EEF1EF"/>
<stop offset="1" stop-color="#C4C4C4" stop-opacity="0"/>
</linearGradient>
<linearGradient id="paint33_linear" x1="274" y1="95" x2="17" y2="95" gradientUnits="userSpaceOnUse">
<stop stop-color="#EEF1EF"/>
<stop offset="1" stop-color="#C4C4C4" stop-opacity="0"/>
</linearGradient>
<linearGradient id="paint34_linear" x1="274" y1="95" x2="17" y2="95" gradientUnits="userSpaceOnUse">
<stop stop-color="#EEF1EF"/>
<stop offset="1" stop-color="#C4C4C4" stop-opacity="0"/>
</linearGradient>
<linearGradient id="paint35_linear" x1="274" y1="95" x2="17" y2="95" gradientUnits="userSpaceOnUse">
<stop stop-color="#EEF1EF"/>
<stop offset="1" stop-color="#C4C4C4" stop-opacity="0"/>
</linearGradient>
<linearGradient id="paint36_linear" x1="274" y1="95" x2="17" y2="95" gradientUnits="userSpaceOnUse">
<stop stop-color="#EEF1EF"/>
<stop offset="1" stop-color="#C4C4C4" stop-opacity="0"/>
</linearGradient>
<linearGradient id="paint37_linear" x1="274" y1="95" x2="17" y2="95" gradientUnits="userSpaceOnUse">
<stop stop-color="#EEF1EF"/>
<stop offset="1" stop-color="#C4C4C4" stop-opacity="0"/>
</linearGradient>
<linearGradient id="paint38_linear" x1="274" y1="95" x2="17" y2="95" gradientUnits="userSpaceOnUse">
<stop stop-color="#EEF1EF"/>
<stop offset="1" stop-color="#C4C4C4" stop-opacity="0"/>
</linearGradient>
<linearGradient id="paint39_linear" x1="274" y1="95" x2="17" y2="95" gradientUnits="userSpaceOnUse">
<stop stop-color="#EEF1EF"/>
<stop offset="1" stop-color="#C4C4C4" stop-opacity="0"/>
</linearGradient>
<linearGradient id="paint40_linear" x1="274" y1="95" x2="17" y2="95" gradientUnits="userSpaceOnUse">
<stop stop-color="#EEF1EF"/>
<stop offset="1" stop-color="#C4C4C4" stop-opacity="0"/>
</linearGradient>
<linearGradient id="paint41_linear" x1="274" y1="95" x2="17" y2="95" gradientUnits="userSpaceOnUse">
<stop stop-color="#EEF1EF"/>
<stop offset="1" stop-color="#C4C4C4" stop-opacity="0"/>
</linearGradient>
<linearGradient id="paint42_linear" x1="274" y1="95" x2="17" y2="95" gradientUnits="userSpaceOnUse">
<stop stop-color="#EEF1EF"/>
<stop offset="1" stop-color="#C4C4C4" stop-opacity="0"/>
</linearGradient>
<linearGradient id="paint43_linear" x1="274" y1="95" x2="17" y2="95" gradientUnits="userSpaceOnUse">
<stop stop-color="#EEF1EF"/>
<stop offset="1" stop-color="#C4C4C4" stop-opacity="0"/>
</linearGradient>
<linearGradient id="paint44_linear" x1="274" y1="95" x2="17" y2="95" gradientUnits="userSpaceOnUse">
<stop stop-color="#EEF1EF"/>
<stop offset="1" stop-color="#C4C4C4" stop-opacity="0"/>
</linearGradient>
<linearGradient id="paint45_linear" x1="274" y1="95" x2="17" y2="95" gradientUnits="userSpaceOnUse">
<stop stop-color="#EEF1EF"/>
<stop offset="1" stop-color="#C4C4C4" stop-opacity="0"/>
</linearGradient>
<linearGradient id="paint46_linear" x1="274" y1="95" x2="17" y2="95" gradientUnits="userSpaceOnUse">
<stop stop-color="#EEF1EF"/>
<stop offset="1" stop-color="#C4C4C4" stop-opacity="0"/>
</linearGradient>
<linearGradient id="paint47_linear" x1="274" y1="95" x2="17" y2="95" gradientUnits="userSpaceOnUse">
<stop stop-color="#EEF1EF"/>
<stop offset="1" stop-color="#C4C4C4" stop-opacity="0"/>
</linearGradient>
<linearGradient id="paint48_linear" x1="274" y1="95" x2="17" y2="95" gradientUnits="userSpaceOnUse">
<stop stop-color="#EEF1EF"/>
<stop offset="1" stop-color="#C4C4C4" stop-opacity="0"/>
</linearGradient>
<linearGradient id="paint49_linear" x1="274" y1="95" x2="17" y2="95" gradientUnits="userSpaceOnUse">
<stop stop-color="#EEF1EF"/>
<stop offset="1" stop-color="#C4C4C4" stop-opacity="0"/>
</linearGradient>
<linearGradient id="paint50_linear" x1="274" y1="95" x2="17" y2="95" gradientUnits="userSpaceOnUse">
<stop stop-color="#EEF1EF"/>
<stop offset="1" stop-color="#C4C4C4" stop-opacity="0"/>
</linearGradient>
<linearGradient id="paint51_linear" x1="274" y1="95" x2="17" y2="95" gradientUnits="userSpaceOnUse">
<stop stop-color="#EEF1EF"/>
<stop offset="1" stop-color="#C4C4C4" stop-opacity="0"/>
</linearGradient>
<linearGradient id="paint52_linear" x1="274" y1="95" x2="17" y2="95" gradientUnits="userSpaceOnUse">
<stop stop-color="#EEF1EF"/>
<stop offset="1" stop-color="#C4C4C4" stop-opacity="0"/>
</linearGradient>
<linearGradient id="paint53_linear" x1="274" y1="95" x2="17" y2="95" gradientUnits="userSpaceOnUse">
<stop stop-color="#EEF1EF"/>
<stop offset="1" stop-color="#C4C4C4" stop-opacity="0"/>
</linearGradient>
<linearGradient id="paint54_linear" x1="274" y1="95" x2="17" y2="95" gradientUnits="userSpaceOnUse">
<stop stop-color="#EEF1EF"/>
<stop offset="1" stop-color="#C4C4C4" stop-opacity="0"/>
</linearGradient>
<linearGradient id="paint55_linear" x1="274" y1="95" x2="17" y2="95" gradientUnits="userSpaceOnUse">
<stop stop-color="#EEF1EF"/>
<stop offset="1" stop-color="#C4C4C4" stop-opacity="0"/>
</linearGradient>
<linearGradient id="paint56_linear" x1="274" y1="95" x2="17" y2="95" gradientUnits="userSpaceOnUse">
<stop stop-color="#EEF1EF"/>
<stop offset="1" stop-color="#C4C4C4" stop-opacity="0"/>
</linearGradient>
<linearGradient id="paint57_linear" x1="274" y1="95" x2="17" y2="95" gradientUnits="userSpaceOnUse">
<stop stop-color="#EEF1EF"/>
<stop offset="1" stop-color="#C4C4C4" stop-opacity="0"/>
</linearGradient>
<linearGradient id="paint58_linear" x1="274" y1="95" x2="17" y2="95" gradientUnits="userSpaceOnUse">
<stop stop-color="#EEF1EF"/>
<stop offset="1" stop-color="#C4C4C4" stop-opacity="0"/>
</linearGradient>
<linearGradient id="paint59_linear" x1="274" y1="95" x2="17" y2="95" gradientUnits="userSpaceOnUse">
<stop stop-color="#EEF1EF"/>
<stop offset="1" stop-color="#C4C4C4" stop-opacity="0"/>
</linearGradient>
<linearGradient id="paint60_linear" x1="274" y1="95" x2="17" y2="95" gradientUnits="userSpaceOnUse">
<stop stop-color="#EEF1EF"/>
<stop offset="1" stop-color="#C4C4C4" stop-opacity="0"/>
</linearGradient>
<linearGradient id="paint61_linear" x1="274" y1="95" x2="17" y2="95" gradientUnits="userSpaceOnUse">
<stop stop-color="#EEF1EF"/>
<stop offset="1" stop-color="#C4C4C4" stop-opacity="0"/>
</linearGradient>
<linearGradient id="paint62_linear" x1="274" y1="95" x2="17" y2="95" gradientUnits="userSpaceOnUse">
<stop stop-color="#EEF1EF"/>
<stop offset="1" stop-color="#C4C4C4" stop-opacity="0"/>
</linearGradient>
<linearGradient id="paint63_linear" x1="274" y1="95" x2="17" y2="95" gradientUnits="userSpaceOnUse">
<stop stop-color="#EEF1EF"/>
<stop offset="1" stop-color="#C4C4C4" stop-opacity="0"/>
</linearGradient>
<linearGradient id="paint64_linear" x1="274" y1="95" x2="17" y2="95" gradientUnits="userSpaceOnUse">
<stop stop-color="#EEF1EF"/>
<stop offset="1" stop-color="#C4C4C4" stop-opacity="0"/>
</linearGradient>
<linearGradient id="paint65_linear" x1="274" y1="95" x2="17" y2="95" gradientUnits="userSpaceOnUse">
<stop stop-color="#EEF1EF"/>
<stop offset="1" stop-color="#C4C4C4" stop-opacity="0"/>
</linearGradient>
<linearGradient id="paint66_linear" x1="274" y1="95" x2="17" y2="95" gradientUnits="userSpaceOnUse">
<stop stop-color="#EEF1EF"/>
<stop offset="1" stop-color="#C4C4C4" stop-opacity="0"/>
</linearGradient>
<linearGradient id="paint67_linear" x1="274" y1="95" x2="17" y2="95" gradientUnits="userSpaceOnUse">
<stop stop-color="#EEF1EF"/>
<stop offset="1" stop-color="#C4C4C4" stop-opacity="0"/>
</linearGradient>
<linearGradient id="paint68_linear" x1="274" y1="95" x2="17" y2="95" gradientUnits="userSpaceOnUse">
<stop stop-color="#EEF1EF"/>
<stop offset="1" stop-color="#C4C4C4" stop-opacity="0"/>
</linearGradient>
<linearGradient id="paint69_linear" x1="274" y1="95" x2="17" y2="95" gradientUnits="userSpaceOnUse">
<stop stop-color="#EEF1EF"/>
<stop offset="1" stop-color="#C4C4C4" stop-opacity="0"/>
</linearGradient>
<linearGradient id="paint70_linear" x1="274" y1="95" x2="17" y2="95" gradientUnits="userSpaceOnUse">
<stop stop-color="#EEF1EF"/>
<stop offset="1" stop-color="#C4C4C4" stop-opacity="0"/>
</linearGradient>
<linearGradient id="paint71_linear" x1="274" y1="95" x2="17" y2="95" gradientUnits="userSpaceOnUse">
<stop stop-color="#EEF1EF"/>
<stop offset="1" stop-color="#C4C4C4" stop-opacity="0"/>
</linearGradient>
<linearGradient id="paint72_linear" x1="274" y1="95" x2="17" y2="95" gradientUnits="userSpaceOnUse">
<stop stop-color="#EEF1EF"/>
<stop offset="1" stop-color="#C4C4C4" stop-opacity="0"/>
</linearGradient>
</defs>
</svg>
