<svg width="436" height="142" viewBox="0 0 436 142" fill="none" xmlns="http://www.w3.org/2000/svg">
<path d="M45.3211 80.0001V39.4641H60.2251C65.4571 39.4641 69.5371 40.3521 72.4651 42.1281C75.3931 43.8561 76.8571 46.9281 76.8571 51.3441C76.8571 54.6561 76.0651 57.3441 74.4811 59.4081C72.8971 61.4241 70.6171 62.4321 67.6411 62.4321C69.3211 62.4321 70.5691 62.8161 71.3851 63.5841C72.2491 64.3041 72.8491 65.2161 73.1851 66.3201C73.5211 67.4241 73.7611 68.5761 73.9051 69.7761C74.0491 70.9761 74.2171 72.0561 74.4091 73.0161C74.6491 73.9281 75.0811 74.5761 75.7051 74.9601C76.3771 75.3441 77.4091 75.2721 78.8011 74.7441V78.9921C77.8891 79.7601 76.8091 80.2641 75.5611 80.5041C74.3131 80.7921 73.0891 80.7201 71.8891 80.2881C70.6891 79.8561 69.6811 79.0161 68.8651 77.7681C68.0491 76.4721 67.6411 74.6721 67.6411 72.3681C67.6411 70.2561 67.5211 68.5761 67.2811 67.3281C67.0411 66.0321 66.4411 65.0721 65.4811 64.4481C64.5211 63.7761 63.0331 63.3681 61.0171 63.2241C59.0011 63.0321 56.2171 63.0321 52.6651 63.2241V80.0001H45.3211ZM52.6651 57.8961H59.9371C62.2891 57.8961 64.2331 57.8001 65.7691 57.6081C67.3051 57.3681 68.4331 56.8401 69.1531 56.0241C69.9211 55.1601 70.3051 53.7921 70.3051 51.9201C70.3051 49.8561 69.8491 48.3681 68.9371 47.4561C68.0251 46.5441 66.6811 45.9921 64.9051 45.8001C63.1771 45.5601 61.0411 45.4401 58.4971 45.4401H52.6651V57.8961Z" fill="url(#paint0_linear)"/>
<path d="M94.0426 80.7201C89.9626 80.7201 87.0586 79.3281 85.3306 76.5441C83.6026 73.7601 82.7386 70.1121 82.7386 65.6001C82.7386 61.0401 83.6026 57.3681 85.3306 54.5841C87.1066 51.7521 90.0106 50.3361 94.0426 50.3361C96.3466 50.3361 98.1706 50.7441 99.5146 51.5601C100.859 52.3281 101.867 53.1921 102.539 54.1521C103.211 55.1121 103.619 55.8321 103.763 56.3121H103.907V50.4081H111.467V80.0001H105.131L103.907 75.1761H103.763C103.619 75.6081 103.187 76.2801 102.467 77.1921C101.795 78.0561 100.763 78.8721 99.3706 79.6401C98.0266 80.3601 96.2506 80.7201 94.0426 80.7201ZM97.0666 74.5281C99.7546 74.5281 101.555 73.6881 102.467 72.0081C103.427 70.2801 103.907 68.1681 103.907 65.6721C103.907 63.0321 103.427 60.8961 102.467 59.2641C101.507 57.6321 99.7066 56.8161 97.0666 56.8161C95.1946 56.8161 93.7306 57.2241 92.6746 58.0401C91.6666 58.8561 90.9466 59.9361 90.5146 61.2801C90.1306 62.5761 89.9386 64.0401 89.9386 65.6721C89.9386 67.3041 90.1306 68.7921 90.5146 70.1361C90.9466 71.4801 91.6666 72.5601 92.6746 73.3761C93.7306 74.1441 95.1946 74.5281 97.0666 74.5281Z" fill="url(#paint1_linear)"/>
<path d="M136.964 50.4081H144.164V51.6321L134.012 80.0001H123.788L113.636 51.7041V50.4081H120.692L128.972 73.9521H129.116L136.964 50.4081Z" fill="url(#paint2_linear)"/>
<path d="M161.347 80.7201C157.939 80.7201 155.155 80.0001 152.995 78.5601C150.883 77.0721 149.299 75.2001 148.243 72.9441C147.235 70.6401 146.707 68.2161 146.659 65.6721C146.611 62.6961 147.163 60.0561 148.315 57.7521C149.515 55.4001 151.195 53.5761 153.355 52.2801C155.563 50.9361 158.155 50.2641 161.131 50.2641C163.771 50.2641 166.123 50.8401 168.187 51.9921C170.299 53.1441 171.979 54.7761 173.227 56.8881C174.475 58.9521 175.123 61.4001 175.171 64.2321C175.171 64.3281 175.171 64.5921 175.171 65.0241C175.171 65.4561 175.171 65.8161 175.171 66.1041H153.643C153.643 68.8401 154.315 70.9521 155.659 72.4401C157.003 73.8801 158.851 74.6001 161.203 74.6001C163.027 74.6001 164.539 74.1441 165.739 73.2321C166.987 72.3201 167.731 71.1201 167.971 69.6321H175.099C174.763 72.7521 173.419 75.3921 171.067 77.5521C168.715 79.6641 165.475 80.7201 161.347 80.7201ZM153.859 62.7921H167.827C167.779 62.4561 167.659 61.9281 167.467 61.2081C167.323 60.4881 167.011 59.7441 166.531 58.9761C166.099 58.2081 165.427 57.5601 164.515 57.0321C163.603 56.5041 162.427 56.2401 160.987 56.2401C159.067 56.2401 157.603 56.6481 156.595 57.4641C155.635 58.2321 154.939 59.1441 154.507 60.2001C154.123 61.2081 153.907 62.0721 153.859 62.7921Z" fill="url(#paint3_linear)"/>
<path d="M194.605 80.7201C191.197 80.7201 188.413 80.0001 186.253 78.5601C184.141 77.0721 182.557 75.2001 181.501 72.9441C180.493 70.6401 179.965 68.2161 179.917 65.6721C179.869 62.6961 180.421 60.0561 181.573 57.7521C182.773 55.4001 184.453 53.5761 186.613 52.2801C188.821 50.9361 191.413 50.2641 194.389 50.2641C197.029 50.2641 199.381 50.8401 201.445 51.9921C203.557 53.1441 205.237 54.7761 206.485 56.8881C207.733 58.9521 208.381 61.4001 208.429 64.2321C208.429 64.3281 208.429 64.5921 208.429 65.0241C208.429 65.4561 208.429 65.8161 208.429 66.1041H186.901C186.901 68.8401 187.573 70.9521 188.917 72.4401C190.261 73.8801 192.109 74.6001 194.461 74.6001C196.285 74.6001 197.797 74.1441 198.997 73.2321C200.245 72.3201 200.989 71.1201 201.229 69.6321H208.357C208.021 72.7521 206.677 75.3921 204.325 77.5521C201.973 79.6641 198.733 80.7201 194.605 80.7201ZM187.117 62.7921H201.085C201.037 62.4561 200.917 61.9281 200.725 61.2081C200.581 60.4881 200.269 59.7441 199.789 58.9761C199.357 58.2081 198.685 57.5601 197.773 57.0321C196.861 56.5041 195.685 56.2401 194.245 56.2401C192.325 56.2401 190.861 56.6481 189.853 57.4641C188.893 58.2321 188.197 59.1441 187.765 60.2001C187.381 61.2081 187.165 62.0721 187.117 62.7921Z" fill="url(#paint4_linear)"/>
<path d="M226.495 80.7201C225.247 80.7201 223.855 80.5041 222.319 80.0721C220.831 79.6401 219.391 78.9921 217.999 78.1281C216.655 77.2641 215.527 76.1601 214.615 74.8161C213.751 73.4241 213.319 71.7921 213.319 69.9201H220.087C220.087 70.0161 220.111 70.3521 220.159 70.9281C220.207 71.4561 220.399 72.0801 220.735 72.8001C221.119 73.4721 221.743 74.0721 222.607 74.6001C223.471 75.1281 224.719 75.3921 226.351 75.3921C228.271 75.3921 229.711 75.0561 230.671 74.3841C231.631 73.6641 232.111 72.8481 232.111 71.9361C232.111 70.8801 231.655 70.0641 230.743 69.4881C229.879 68.8641 228.751 68.3601 227.359 67.9761C225.967 67.5921 224.479 67.2081 222.895 66.8241C221.359 66.3921 219.895 65.8401 218.503 65.1681C217.159 64.4961 216.055 63.5841 215.191 62.4321C214.327 61.2321 213.895 59.6961 213.895 57.8241C213.895 55.0881 214.999 53.0241 217.207 51.6321C219.415 50.1921 222.223 49.4721 225.631 49.4721C228.031 49.4721 230.263 49.8561 232.327 50.6241C234.391 51.3441 236.047 52.5201 237.295 54.1521C238.543 55.7361 239.167 57.8241 239.167 60.4161H232.399C232.447 58.9281 232.111 57.8241 231.391 57.1041C230.719 56.3361 229.855 55.8081 228.799 55.5201C227.791 55.2321 226.807 55.0881 225.847 55.0881C224.119 55.0881 222.799 55.4001 221.887 56.0241C221.023 56.6001 220.591 57.3681 220.591 58.3281C220.591 59.4321 221.023 60.2961 221.887 60.9201C222.799 61.4961 223.951 61.9761 225.343 62.3601C226.783 62.7441 228.271 63.1521 229.807 63.5841C231.391 63.9681 232.879 64.4961 234.271 65.1681C235.711 65.8401 236.863 66.7521 237.727 67.9041C238.639 69.0081 239.095 70.4961 239.095 72.3681C239.095 75.2001 237.919 77.3121 235.567 78.7041C233.263 80.0481 230.239 80.7201 226.495 80.7201Z" fill="url(#paint5_linear)"/>
<path d="M244.354 80.0001V39.4641H251.914V56.8161H252.058C252.106 56.6721 252.274 56.2881 252.562 55.6641C252.898 54.9921 253.402 54.2481 254.074 53.4321C254.794 52.6161 255.754 51.9201 256.954 51.3441C258.202 50.7201 259.762 50.4081 261.634 50.4081C264.226 50.4081 266.266 50.9601 267.754 52.0641C269.242 53.1201 270.322 54.4641 270.994 56.0961C271.666 57.7281 272.074 59.4081 272.218 61.1361C272.41 62.8641 272.506 64.3761 272.506 65.6721V80.0001H265.378V65.6001C265.378 64.0161 265.21 62.5761 264.874 61.2801C264.586 59.9361 263.986 58.8801 263.074 58.1121C262.162 57.2961 260.77 56.8881 258.898 56.8881C257.026 56.8881 255.586 57.3201 254.578 58.1841C253.57 59.0481 252.874 60.1761 252.49 61.5681C252.106 62.9121 251.914 64.3521 251.914 65.8881V80.0001H244.354Z" fill="url(#paint6_linear)"/>
<path d="M305.447 113.96C302.055 113.96 299.175 113.544 296.807 112.712C294.439 111.88 292.487 110.888 290.951 109.736C289.415 108.52 288.231 107.304 287.399 106.088C286.567 104.872 285.959 103.848 285.575 103.016C285.255 102.184 285.095 101.768 285.095 101.768L294.695 99.6561C294.695 99.6561 295.015 100.136 295.655 101.096C296.295 101.992 297.383 102.92 298.919 103.88C300.455 104.776 302.631 105.224 305.447 105.224C308.007 105.224 310.311 104.456 312.359 102.92C314.471 101.384 316.103 98.9521 317.255 95.6241C318.407 92.2321 318.887 87.7521 318.695 82.1841C318.631 82.8241 318.279 83.7841 317.639 85.0641C316.999 86.3441 316.007 87.6561 314.663 89.0001C313.383 90.3441 311.751 91.4961 309.767 92.4561C307.783 93.3521 305.351 93.8001 302.471 93.8001C298.247 93.8001 294.727 92.9681 291.911 91.3041C289.159 89.5761 287.143 87.3681 285.863 84.6801C284.583 81.9921 284.039 79.1441 284.231 76.1361C284.423 73.0641 285.319 70.1841 286.919 67.4961C288.583 64.8081 290.951 62.6001 294.023 60.8721C297.159 59.1441 300.999 58.2801 305.543 58.2801C311.175 58.2801 315.687 59.5921 319.079 62.2161C322.471 64.8401 324.903 68.2961 326.375 72.5841C327.847 76.8081 328.519 81.3841 328.391 86.3121C328.263 91.3041 327.431 95.9121 325.895 100.136C324.359 104.296 321.927 107.656 318.599 110.216C315.335 112.712 310.951 113.96 305.447 113.96ZM304.679 87.9441C308.455 87.9441 311.463 86.7921 313.703 84.4881C315.943 82.1841 317.191 79.3041 317.447 75.8481C316.679 72.5201 315.207 70.0881 313.031 68.5521C310.855 67.0161 308.359 66.2481 305.543 66.2481C302.471 66.2481 300.007 66.9841 298.151 68.4561C296.295 69.8641 295.015 71.6561 294.311 73.8321C293.671 75.9441 293.607 78.0881 294.119 80.2641C294.631 82.3761 295.751 84.1681 297.479 85.6401C299.271 87.1121 301.671 87.8801 304.679 87.9441ZM359.579 114.056C355.227 114.056 351.323 113.448 347.867 112.232C344.411 111.016 341.691 109.224 339.707 106.856C337.723 104.488 336.731 101.608 336.731 98.2161C336.731 94.6961 337.947 91.6561 340.379 89.0961C342.811 86.5361 346.107 84.9681 350.267 84.3921C347.323 83.8801 345.083 82.8881 343.547 81.4161C342.075 79.9441 341.083 78.3761 340.571 76.7121C340.059 75.0481 339.803 73.6401 339.803 72.4881C339.803 69.6081 340.635 67.0801 342.299 64.9041C343.963 62.7281 346.267 61.0321 349.211 59.8161C352.219 58.6001 355.675 57.9921 359.579 57.9921C365.659 57.9921 370.491 59.3681 374.075 62.1201C377.659 64.8081 379.451 68.2641 379.451 72.4881C379.451 73.6401 379.195 75.0481 378.683 76.7121C378.235 78.3761 377.275 79.9441 375.803 81.4161C374.331 82.8881 372.059 83.8801 368.987 84.3921C373.275 85.0321 376.635 86.6001 379.067 89.0961C381.499 91.5281 382.715 94.5681 382.715 98.2161C382.715 101.672 381.691 104.584 379.643 106.952C377.595 109.32 374.811 111.112 371.291 112.328C367.835 113.48 363.931 114.056 359.579 114.056ZM359.579 82.0881C363.035 82.0881 365.755 81.4481 367.739 80.1681C369.787 78.8241 370.811 76.9041 370.811 74.4081C370.811 71.4641 369.755 69.2561 367.643 67.7841C365.595 66.3121 362.907 65.5761 359.579 65.5761C356.251 65.5761 353.563 66.3121 351.515 67.7841C349.531 69.2561 348.539 71.4641 348.539 74.4081C348.539 76.9681 349.563 78.8881 351.611 80.1681C353.723 81.4481 356.379 82.0881 359.579 82.0881ZM359.675 106.376C363.771 106.376 367.035 105.48 369.467 103.688C371.899 101.896 373.115 99.5281 373.115 96.5841C373.115 93.2561 371.899 90.7921 369.467 89.1921C367.035 87.5921 363.771 86.7921 359.675 86.7921C355.515 86.7921 352.219 87.5921 349.787 89.1921C347.419 90.7921 346.235 93.2561 346.235 96.5841C346.235 99.5281 347.419 101.896 349.787 103.688C352.219 105.48 355.515 106.376 359.675 106.376Z" fill="url(#paint7_linear)"/>
<path d="M17 88.0001H273V102H17V88.0001Z" fill="url(#paint8_linear)"/>
<defs>
<linearGradient id="paint0_linear" x1="273" y1="95.2592" x2="17" y2="95.2592" gradientUnits="userSpaceOnUse">
<stop stop-color="#EEF1EF"/>
<stop offset="1" stop-color="#EEF1EF" stop-opacity="0"/>
</linearGradient>
<linearGradient id="paint1_linear" x1="273" y1="95.2592" x2="17" y2="95.2592" gradientUnits="userSpaceOnUse">
<stop stop-color="#EEF1EF"/>
<stop offset="1" stop-color="#EEF1EF" stop-opacity="0"/>
</linearGradient>
<linearGradient id="paint2_linear" x1="273" y1="95.2592" x2="17" y2="95.2592" gradientUnits="userSpaceOnUse">
<stop stop-color="#EEF1EF"/>
<stop offset="1" stop-color="#EEF1EF" stop-opacity="0"/>
</linearGradient>
<linearGradient id="paint3_linear" x1="273" y1="95.2592" x2="17" y2="95.2592" gradientUnits="userSpaceOnUse">
<stop stop-color="#EEF1EF"/>
<stop offset="1" stop-color="#EEF1EF" stop-opacity="0"/>
</linearGradient>
<linearGradient id="paint4_linear" x1="273" y1="95.2592" x2="17" y2="95.2592" gradientUnits="userSpaceOnUse">
<stop stop-color="#EEF1EF"/>
<stop offset="1" stop-color="#EEF1EF" stop-opacity="0"/>
</linearGradient>
<linearGradient id="paint5_linear" x1="273" y1="95.2592" x2="17" y2="95.2592" gradientUnits="userSpaceOnUse">
<stop stop-color="#EEF1EF"/>
<stop offset="1" stop-color="#EEF1EF" stop-opacity="0"/>
</linearGradient>
<linearGradient id="paint6_linear" x1="273" y1="95.2592" x2="17" y2="95.2592" gradientUnits="userSpaceOnUse">
<stop stop-color="#EEF1EF"/>
<stop offset="1" stop-color="#EEF1EF" stop-opacity="0"/>
</linearGradient>
<linearGradient id="paint7_linear" x1="273" y1="95.2592" x2="17" y2="95.2592" gradientUnits="userSpaceOnUse">
<stop stop-color="#EEF1EF"/>
<stop offset="1" stop-color="#EEF1EF" stop-opacity="0"/>
</linearGradient>
<linearGradient id="paint8_linear" x1="273" y1="95.2592" x2="17" y2="95.2592" gradientUnits="userSpaceOnUse">
<stop stop-color="#EEF1EF"/>
<stop offset="1" stop-color="#EEF1EF" stop-opacity="0"/>
</linearGradient>
</defs>
</svg>
