<svg width="100" height="100" viewBox="0 0 100 100" fill="none" xmlns="http://www.w3.org/2000/svg">
<path d="M20.1729 90.9902V96H18.4854V83.2031H23.2051C24.6055 83.2031 25.7012 83.5605 26.4922 84.2754C27.2891 84.9902 27.6875 85.9365 27.6875 87.1143C27.6875 88.3564 27.2979 89.3145 26.5186 89.9883C25.7451 90.6562 24.6348 90.9902 23.1875 90.9902H20.1729ZM20.1729 89.6104H23.2051C24.1074 89.6104 24.7988 89.3994 25.2793 88.9775C25.7598 88.5498 26 87.9346 26 87.1318C26 86.3701 25.7598 85.7607 25.2793 85.3037C24.7988 84.8467 24.1396 84.6094 23.3018 84.5918H20.1729V89.6104ZM34.1826 87.9492C33.9365 87.9082 33.6699 87.8877 33.3828 87.8877C32.3164 87.8877 31.5928 88.3418 31.2119 89.25V96H29.5859V86.4902H31.168L31.1943 87.5889C31.7275 86.7393 32.4834 86.3145 33.4619 86.3145C33.7783 86.3145 34.0186 86.3555 34.1826 86.4375V87.9492ZM35.0791 91.1572C35.0791 90.2256 35.2607 89.3877 35.624 88.6436C35.9932 87.8994 36.5029 87.3252 37.1533 86.9209C37.8096 86.5166 38.5566 86.3145 39.3945 86.3145C40.6895 86.3145 41.7354 86.7627 42.5322 87.6592C43.335 88.5557 43.7363 89.748 43.7363 91.2363V91.3506C43.7363 92.2764 43.5576 93.1084 43.2002 93.8467C42.8486 94.5791 42.3418 95.1504 41.6797 95.5605C41.0234 95.9707 40.2676 96.1758 39.4121 96.1758C38.123 96.1758 37.0771 95.7275 36.2744 94.8311C35.4775 93.9346 35.0791 92.748 35.0791 91.2715V91.1572ZM36.7139 91.3506C36.7139 92.4053 36.957 93.252 37.4434 93.8906C37.9355 94.5293 38.5918 94.8486 39.4121 94.8486C40.2383 94.8486 40.8945 94.5264 41.3809 93.8818C41.8672 93.2314 42.1104 92.3232 42.1104 91.1572C42.1104 90.1143 41.8613 89.2705 41.3633 88.626C40.8711 87.9756 40.2148 87.6504 39.3945 87.6504C38.5918 87.6504 37.9443 87.9697 37.4521 88.6084C36.96 89.2471 36.7139 90.1611 36.7139 91.3506ZM47.4541 86.4902V97.0986C47.4541 98.9268 46.625 99.8408 44.9668 99.8408C44.6094 99.8408 44.2783 99.7881 43.9736 99.6826V98.3818C44.1611 98.4287 44.4072 98.4521 44.7119 98.4521C45.0752 98.4521 45.3506 98.3525 45.5381 98.1533C45.7314 97.96 45.8281 97.6201 45.8281 97.1338V86.4902H47.4541ZM45.6611 83.9678C45.6611 83.71 45.7402 83.4902 45.8984 83.3086C46.0625 83.1211 46.2998 83.0273 46.6104 83.0273C46.9268 83.0273 47.167 83.1182 47.3311 83.2998C47.4951 83.4814 47.5771 83.7041 47.5771 83.9678C47.5771 84.2314 47.4951 84.4512 47.3311 84.627C47.167 84.8027 46.9268 84.8906 46.6104 84.8906C46.2939 84.8906 46.0566 84.8027 45.8984 84.627C45.7402 84.4512 45.6611 84.2314 45.6611 83.9678ZM54.0283 96.1758C52.7393 96.1758 51.6904 95.7539 50.8818 94.9102C50.0732 94.0605 49.6689 92.9268 49.6689 91.5088V91.21C49.6689 90.2666 49.8477 89.4258 50.2051 88.6875C50.5684 87.9434 51.0723 87.3633 51.7168 86.9473C52.3672 86.5254 53.0703 86.3145 53.8262 86.3145C55.0625 86.3145 56.0234 86.7217 56.709 87.5361C57.3945 88.3506 57.7373 89.5166 57.7373 91.0342V91.7109H51.2949C51.3184 92.6484 51.5908 93.4072 52.1123 93.9873C52.6396 94.5615 53.3076 94.8486 54.1162 94.8486C54.6904 94.8486 55.1768 94.7314 55.5752 94.4971C55.9736 94.2627 56.3223 93.9521 56.6211 93.5654L57.6143 94.3389C56.8174 95.5635 55.6221 96.1758 54.0283 96.1758ZM53.8262 87.6504C53.1699 87.6504 52.6191 87.8906 52.1738 88.3711C51.7285 88.8457 51.4531 89.5137 51.3477 90.375H56.1113V90.252C56.0645 89.4258 55.8418 88.7871 55.4434 88.3359C55.0449 87.8789 54.5059 87.6504 53.8262 87.6504ZM63.4414 94.8486C64.0215 94.8486 64.5283 94.6729 64.9619 94.3213C65.3955 93.9697 65.6357 93.5303 65.6826 93.0029H67.2207C67.1914 93.5479 67.0039 94.0664 66.6582 94.5586C66.3125 95.0508 65.8496 95.4434 65.2695 95.7363C64.6953 96.0293 64.0859 96.1758 63.4414 96.1758C62.1465 96.1758 61.1152 95.7451 60.3477 94.8838C59.5859 94.0166 59.2051 92.833 59.2051 91.333V91.0605C59.2051 90.1348 59.375 89.3115 59.7148 88.5908C60.0547 87.8701 60.541 87.3105 61.1738 86.9121C61.8125 86.5137 62.5654 86.3145 63.4326 86.3145C64.499 86.3145 65.3838 86.6338 66.0869 87.2725C66.7959 87.9111 67.1738 88.7402 67.2207 89.7598H65.6826C65.6357 89.1445 65.4014 88.6406 64.9795 88.248C64.5635 87.8496 64.0479 87.6504 63.4326 87.6504C62.6064 87.6504 61.9648 87.9492 61.5078 88.5469C61.0566 89.1387 60.8311 89.9971 60.8311 91.1221V91.4297C60.8311 92.5254 61.0566 93.3691 61.5078 93.9609C61.959 94.5527 62.6035 94.8486 63.4414 94.8486ZM71.2549 84.1875V86.4902H73.0303V87.7471H71.2549V93.6445C71.2549 94.0254 71.334 94.3125 71.4922 94.5059C71.6504 94.6934 71.9199 94.7871 72.3008 94.7871C72.4883 94.7871 72.7461 94.752 73.0742 94.6816V96C72.6465 96.1172 72.2305 96.1758 71.8262 96.1758C71.0996 96.1758 70.5518 95.9561 70.1826 95.5166C69.8135 95.0771 69.6289 94.4531 69.6289 93.6445V87.7471H67.8975V86.4902H69.6289V84.1875H71.2549ZM80.4746 93.4775C80.4746 93.0381 80.3076 92.6982 79.9736 92.458C79.6455 92.2119 79.0684 92.001 78.2422 91.8252C77.4219 91.6494 76.7686 91.4385 76.2822 91.1924C75.8018 90.9463 75.4443 90.6533 75.21 90.3135C74.9814 89.9736 74.8672 89.5693 74.8672 89.1006C74.8672 88.3213 75.1953 87.6621 75.8516 87.123C76.5137 86.584 77.3574 86.3145 78.3828 86.3145C79.4609 86.3145 80.334 86.5928 81.002 87.1494C81.6758 87.7061 82.0127 88.418 82.0127 89.2852H80.3779C80.3779 88.8398 80.1875 88.4561 79.8066 88.1338C79.4316 87.8115 78.957 87.6504 78.3828 87.6504C77.791 87.6504 77.3281 87.7793 76.9941 88.0371C76.6602 88.2949 76.4932 88.6318 76.4932 89.0479C76.4932 89.4404 76.6484 89.7363 76.959 89.9355C77.2695 90.1348 77.8291 90.3252 78.6377 90.5068C79.4521 90.6885 80.1113 90.9053 80.6152 91.1572C81.1191 91.4092 81.4912 91.7139 81.7314 92.0713C81.9775 92.4229 82.1006 92.8535 82.1006 93.3633C82.1006 94.2129 81.7607 94.8955 81.0811 95.4111C80.4014 95.9209 79.5195 96.1758 78.4355 96.1758C77.6738 96.1758 77 96.041 76.4141 95.7715C75.8281 95.502 75.3682 95.127 75.0342 94.6465C74.7061 94.1602 74.542 93.6357 74.542 93.0732H76.168C76.1973 93.6182 76.4141 94.0518 76.8184 94.374C77.2285 94.6904 77.7676 94.8486 78.4355 94.8486C79.0508 94.8486 79.543 94.7256 79.9121 94.4795C80.2871 94.2275 80.4746 93.8936 80.4746 93.4775Z" fill="#EEF1EF"/>
<circle cx="50" cy="41" r="36.5" stroke="#EEF1EF" stroke-width="3"/>
<rect x="37.8492" y="21.7782" width="45" height="10" transform="rotate(45 37.8492 21.7782)" stroke="#EEF1EF" stroke-width="2"/>
<rect x="32.1924" y="16.1214" width="6" height="10" transform="rotate(45 32.1924 16.1214)" stroke="#EEF1EF" stroke-width="2"/>
<path d="M70.4733 55.2686L73.1282 64.1282L64.2686 61.4733L70.4733 55.2686Z" stroke="#EEF1EF" stroke-width="2"/>
<rect x="49.4919" y="47.6514" width="22.7464" height="8.47598" transform="rotate(135 49.4919 47.6514)" stroke="#EEF1EF" stroke-width="2"/>
<rect x="72.4918" y="24.4076" width="22.7464" height="8.47598" transform="rotate(135 72.4918 24.4076)" stroke="#EEF1EF" stroke-width="2"/>
<line x1="67.0059" y1="25.3785" x2="63.3021" y2="21.6746" stroke="#EEF1EF"/>
<line x1="63.9193" y1="28.465" x2="60.2155" y2="24.7612" stroke="#EEF1EF"/>
<line x1="60.8328" y1="31.5516" x2="57.129" y2="27.8477" stroke="#EEF1EF"/>
<line x1="57.7463" y1="34.638" x2="54.0425" y2="30.9342" stroke="#EEF1EF"/>
<line x1="54.6598" y1="37.7245" x2="50.956" y2="34.0207" stroke="#EEF1EF"/>
<line x1="45.4002" y1="46.984" x2="41.6964" y2="43.2802" stroke="#EEF1EF"/>
<line x1="42.3137" y1="50.0706" x2="38.6099" y2="46.3668" stroke="#EEF1EF"/>
<line x1="39.2272" y1="53.1571" x2="35.5234" y2="49.4533" stroke="#EEF1EF"/>
<line x1="36.1407" y1="56.2437" x2="32.4369" y2="52.5399" stroke="#EEF1EF"/>
</svg>
