<svg width="100" height="100" viewBox="0 0 100 100" fill="none" xmlns="http://www.w3.org/2000/svg">
<path d="M14.7188 90.085H9.17285V94.6201H15.6152V96H7.48535V83.2031H15.5273V84.5918H9.17285V88.7051H14.7188V90.085ZM20.6514 89.9619L22.7607 86.4902H24.6592L21.5479 91.1924L24.7559 96H22.875L20.6777 92.4404L18.4805 96H16.5908L19.7988 91.1924L16.6875 86.4902H18.5684L20.6514 89.9619ZM34.4238 91.3506C34.4238 92.7979 34.0928 93.9639 33.4307 94.8486C32.7686 95.7334 31.8721 96.1758 30.7412 96.1758C29.5869 96.1758 28.6787 95.8096 28.0166 95.0771V99.6562H26.3906V86.4902H27.876L27.9551 87.5449C28.6172 86.7246 29.5371 86.3145 30.7148 86.3145C31.8574 86.3145 32.7598 86.7451 33.4219 87.6064C34.0898 88.4678 34.4238 89.666 34.4238 91.2012V91.3506ZM32.7979 91.166C32.7979 90.0938 32.5693 89.2471 32.1123 88.626C31.6553 88.0049 31.0283 87.6943 30.2314 87.6943C29.2471 87.6943 28.5088 88.1309 28.0166 89.0039V93.5479C28.5029 94.415 29.2471 94.8486 30.249 94.8486C31.0283 94.8486 31.6465 94.541 32.1035 93.9258C32.5664 93.3047 32.7979 92.3848 32.7979 91.166ZM40.4443 96.1758C39.1553 96.1758 38.1064 95.7539 37.2979 94.9102C36.4893 94.0605 36.085 92.9268 36.085 91.5088V91.21C36.085 90.2666 36.2637 89.4258 36.6211 88.6875C36.9844 87.9434 37.4883 87.3633 38.1328 86.9473C38.7832 86.5254 39.4863 86.3145 40.2422 86.3145C41.4785 86.3145 42.4395 86.7217 43.125 87.5361C43.8105 88.3506 44.1533 89.5166 44.1533 91.0342V91.7109H37.7109C37.7344 92.6484 38.0068 93.4072 38.5283 93.9873C39.0557 94.5615 39.7236 94.8486 40.5322 94.8486C41.1064 94.8486 41.5928 94.7314 41.9912 94.4971C42.3896 94.2627 42.7383 93.9521 43.0371 93.5654L44.0303 94.3389C43.2334 95.5635 42.0381 96.1758 40.4443 96.1758ZM40.2422 87.6504C39.5859 87.6504 39.0352 87.8906 38.5898 88.3711C38.1445 88.8457 37.8691 89.5137 37.7637 90.375H42.5273V90.252C42.4805 89.4258 42.2578 88.7871 41.8594 88.3359C41.4609 87.8789 40.9219 87.6504 40.2422 87.6504ZM50.6396 87.9492C50.3936 87.9082 50.127 87.8877 49.8398 87.8877C48.7734 87.8877 48.0498 88.3418 47.6689 89.25V96H46.043V86.4902H47.625L47.6514 87.5889C48.1846 86.7393 48.9404 86.3145 49.9189 86.3145C50.2354 86.3145 50.4756 86.3555 50.6396 86.4375V87.9492ZM53.9092 96H52.2832V86.4902H53.9092V96ZM52.1514 83.9678C52.1514 83.7041 52.2305 83.4814 52.3887 83.2998C52.5527 83.1182 52.793 83.0273 53.1094 83.0273C53.4258 83.0273 53.666 83.1182 53.8301 83.2998C53.9941 83.4814 54.0762 83.7041 54.0762 83.9678C54.0762 84.2314 53.9941 84.4512 53.8301 84.627C53.666 84.8027 53.4258 84.8906 53.1094 84.8906C52.793 84.8906 52.5527 84.8027 52.3887 84.627C52.2305 84.4512 52.1514 84.2314 52.1514 83.9678ZM60.4658 96.1758C59.1768 96.1758 58.1279 95.7539 57.3193 94.9102C56.5107 94.0605 56.1064 92.9268 56.1064 91.5088V91.21C56.1064 90.2666 56.2852 89.4258 56.6426 88.6875C57.0059 87.9434 57.5098 87.3633 58.1543 86.9473C58.8047 86.5254 59.5078 86.3145 60.2637 86.3145C61.5 86.3145 62.4609 86.7217 63.1465 87.5361C63.832 88.3506 64.1748 89.5166 64.1748 91.0342V91.7109H57.7324C57.7559 92.6484 58.0283 93.4072 58.5498 93.9873C59.0771 94.5615 59.7451 94.8486 60.5537 94.8486C61.1279 94.8486 61.6143 94.7314 62.0127 94.4971C62.4111 94.2627 62.7598 93.9521 63.0586 93.5654L64.0518 94.3389C63.2549 95.5635 62.0596 96.1758 60.4658 96.1758ZM60.2637 87.6504C59.6074 87.6504 59.0566 87.8906 58.6113 88.3711C58.166 88.8457 57.8906 89.5137 57.7852 90.375H62.5488V90.252C62.502 89.4258 62.2793 88.7871 61.8809 88.3359C61.4824 87.8789 60.9434 87.6504 60.2637 87.6504ZM67.6025 86.4902L67.6553 87.6855C68.3818 86.7715 69.3311 86.3145 70.5029 86.3145C72.5127 86.3145 73.5264 87.4482 73.5439 89.7158V96H71.918V89.707C71.9121 89.0215 71.7539 88.5146 71.4434 88.1865C71.1387 87.8584 70.6611 87.6943 70.0107 87.6943C69.4834 87.6943 69.0205 87.835 68.6221 88.1162C68.2236 88.3975 67.9131 88.7666 67.6904 89.2236V96H66.0645V86.4902H67.6025ZM79.8105 94.8486C80.3906 94.8486 80.8975 94.6729 81.3311 94.3213C81.7646 93.9697 82.0049 93.5303 82.0518 93.0029H83.5898C83.5605 93.5479 83.373 94.0664 83.0273 94.5586C82.6816 95.0508 82.2188 95.4434 81.6387 95.7363C81.0645 96.0293 80.4551 96.1758 79.8105 96.1758C78.5156 96.1758 77.4844 95.7451 76.7168 94.8838C75.9551 94.0166 75.5742 92.833 75.5742 91.333V91.0605C75.5742 90.1348 75.7441 89.3115 76.084 88.5908C76.4238 87.8701 76.9102 87.3105 77.543 86.9121C78.1816 86.5137 78.9346 86.3145 79.8018 86.3145C80.8682 86.3145 81.7529 86.6338 82.4561 87.2725C83.165 87.9111 83.543 88.7402 83.5898 89.7598H82.0518C82.0049 89.1445 81.7705 88.6406 81.3486 88.248C80.9326 87.8496 80.417 87.6504 79.8018 87.6504C78.9756 87.6504 78.334 87.9492 77.877 88.5469C77.4258 89.1387 77.2002 89.9971 77.2002 91.1221V91.4297C77.2002 92.5254 77.4258 93.3691 77.877 93.9609C78.3281 94.5527 78.9727 94.8486 79.8105 94.8486ZM89.3643 96.1758C88.0752 96.1758 87.0264 95.7539 86.2178 94.9102C85.4092 94.0605 85.0049 92.9268 85.0049 91.5088V91.21C85.0049 90.2666 85.1836 89.4258 85.541 88.6875C85.9043 87.9434 86.4082 87.3633 87.0527 86.9473C87.7031 86.5254 88.4062 86.3145 89.1621 86.3145C90.3984 86.3145 91.3594 86.7217 92.0449 87.5361C92.7305 88.3506 93.0732 89.5166 93.0732 91.0342V91.7109H86.6309C86.6543 92.6484 86.9268 93.4072 87.4482 93.9873C87.9756 94.5615 88.6436 94.8486 89.4521 94.8486C90.0264 94.8486 90.5127 94.7314 90.9111 94.4971C91.3096 94.2627 91.6582 93.9521 91.957 93.5654L92.9502 94.3389C92.1533 95.5635 90.958 96.1758 89.3643 96.1758ZM89.1621 87.6504C88.5059 87.6504 87.9551 87.8906 87.5098 88.3711C87.0645 88.8457 86.7891 89.5137 86.6836 90.375H91.4473V90.252C91.4004 89.4258 91.1777 88.7871 90.7793 88.3359C90.3809 87.8789 89.8418 87.6504 89.1621 87.6504Z" fill="#EEF1EF"/>
<circle cx="50" cy="41" r="36.5" stroke="#EEF1EF" stroke-width="3"/>
<rect x="23.5" y="26.5" width="53" height="33" rx="3.5" stroke="#EEF1EF" stroke-width="3"/>
<mask id="path-4-inside-1" fill="white">
<path d="M62 26.5C62 22.9196 60.683 19.4858 58.3388 16.9541C55.9946 14.4223 52.8152 13 49.5 13C46.1848 13 43.0054 14.4223 40.6612 16.9541C38.317 19.4858 37 22.9196 37 26.5L49.5 26.5H62Z"/>
</mask>
<path d="M62 26.5C62 22.9196 60.683 19.4858 58.3388 16.9541C55.9946 14.4223 52.8152 13 49.5 13C46.1848 13 43.0054 14.4223 40.6612 16.9541C38.317 19.4858 37 22.9196 37 26.5L49.5 26.5H62Z" stroke="#EEF1EF" stroke-width="6" mask="url(#path-4-inside-1)"/>
</svg>
