<svg width="100" height="100" viewBox="0 0 100 100" fill="none" xmlns="http://www.w3.org/2000/svg">
<path d="M34.2559 90.2959C32.8086 89.8799 31.7539 89.3701 31.0918 88.7666C30.4355 88.1572 30.1074 87.4072 30.1074 86.5166C30.1074 85.5088 30.5088 84.6768 31.3115 84.0205C32.1201 83.3584 33.1689 83.0273 34.458 83.0273C35.3369 83.0273 36.1191 83.1973 36.8047 83.5371C37.4961 83.877 38.0293 84.3457 38.4043 84.9434C38.7852 85.541 38.9756 86.1943 38.9756 86.9033H37.2793C37.2793 86.1299 37.0332 85.5234 36.541 85.084C36.0488 84.6387 35.3545 84.416 34.458 84.416C33.626 84.416 32.9756 84.6006 32.5068 84.9697C32.0439 85.333 31.8125 85.8398 31.8125 86.4902C31.8125 87.0117 32.0322 87.4541 32.4717 87.8174C32.917 88.1748 33.6699 88.5029 34.7305 88.8018C35.7969 89.1006 36.6289 89.4316 37.2266 89.7949C37.8301 90.1523 38.2754 90.5713 38.5625 91.0518C38.8555 91.5322 39.002 92.0977 39.002 92.748C39.002 93.7852 38.5977 94.6172 37.7891 95.2441C36.9805 95.8652 35.8994 96.1758 34.5459 96.1758C33.667 96.1758 32.8467 96.0088 32.085 95.6748C31.3232 95.335 30.7344 94.8721 30.3184 94.2861C29.9082 93.7002 29.7031 93.0352 29.7031 92.291H31.3994C31.3994 93.0645 31.6836 93.6768 32.252 94.1279C32.8262 94.5732 33.5908 94.7959 34.5459 94.7959C35.4365 94.7959 36.1191 94.6143 36.5938 94.251C37.0684 93.8877 37.3057 93.3926 37.3057 92.7656C37.3057 92.1387 37.0859 91.6553 36.6465 91.3154C36.207 90.9697 35.4102 90.6299 34.2559 90.2959ZM43.5723 91.5967L42.5527 92.6602V96H40.9268V82.5H42.5527V90.665L43.4229 89.6191L46.3848 86.4902H48.3623L44.6621 90.4629L48.793 96H46.8857L43.5723 91.5967ZM51.8076 96H50.1816V86.4902H51.8076V96ZM50.0498 83.9678C50.0498 83.7041 50.1289 83.4814 50.2871 83.2998C50.4512 83.1182 50.6914 83.0273 51.0078 83.0273C51.3242 83.0273 51.5645 83.1182 51.7285 83.2998C51.8926 83.4814 51.9746 83.7041 51.9746 83.9678C51.9746 84.2314 51.8926 84.4512 51.7285 84.627C51.5645 84.8027 51.3242 84.8906 51.0078 84.8906C50.6914 84.8906 50.4512 84.8027 50.2871 84.627C50.1289 84.4512 50.0498 84.2314 50.0498 83.9678ZM56.1846 96H54.5586V82.5H56.1846V96ZM60.5615 96H58.9355V82.5H60.5615V96ZM68.709 93.4775C68.709 93.0381 68.542 92.6982 68.208 92.458C67.8799 92.2119 67.3027 92.001 66.4766 91.8252C65.6562 91.6494 65.0029 91.4385 64.5166 91.1924C64.0361 90.9463 63.6787 90.6533 63.4443 90.3135C63.2158 89.9736 63.1016 89.5693 63.1016 89.1006C63.1016 88.3213 63.4297 87.6621 64.0859 87.123C64.748 86.584 65.5918 86.3145 66.6172 86.3145C67.6953 86.3145 68.5684 86.5928 69.2363 87.1494C69.9102 87.7061 70.2471 88.418 70.2471 89.2852H68.6123C68.6123 88.8398 68.4219 88.4561 68.041 88.1338C67.666 87.8115 67.1914 87.6504 66.6172 87.6504C66.0254 87.6504 65.5625 87.7793 65.2285 88.0371C64.8945 88.2949 64.7275 88.6318 64.7275 89.0479C64.7275 89.4404 64.8828 89.7363 65.1934 89.9355C65.5039 90.1348 66.0635 90.3252 66.8721 90.5068C67.6865 90.6885 68.3457 90.9053 68.8496 91.1572C69.3535 91.4092 69.7256 91.7139 69.9658 92.0713C70.2119 92.4229 70.335 92.8535 70.335 93.3633C70.335 94.2129 69.9951 94.8955 69.3154 95.4111C68.6357 95.9209 67.7539 96.1758 66.6699 96.1758C65.9082 96.1758 65.2344 96.041 64.6484 95.7715C64.0625 95.502 63.6025 95.127 63.2686 94.6465C62.9404 94.1602 62.7764 93.6357 62.7764 93.0732H64.4023C64.4316 93.6182 64.6484 94.0518 65.0527 94.374C65.4629 94.6904 66.002 94.8486 66.6699 94.8486C67.2852 94.8486 67.7773 94.7256 68.1465 94.4795C68.5215 94.2275 68.709 93.8936 68.709 93.4775Z" fill="#EEF1EF"/>
<circle cx="50" cy="41" r="36.5" stroke="#EEF1EF" stroke-width="3"/>
<circle cx="50" cy="41" r="36.5" stroke="#EEF1EF" stroke-width="3"/>
<path d="M24.9102 41.8906L36.1602 56.3047L31.7656 56.4805L18.6406 41.6562L31.707 27.2422L36.1602 27.418L24.9102 41.8906ZM44.4805 69.1953L39.6758 68.1992L57.4297 16.7539L62.293 17.8086L44.4805 69.1953ZM67.918 56.4805L63.5234 56.3047L74.7148 41.8906L63.4648 27.418L67.918 27.2422L80.9844 41.6562L67.918 56.4805Z" fill="#EEF1EF"/>
</svg>
