<svg width="100" height="100" viewBox="0 0 100 100" fill="none" xmlns="http://www.w3.org/2000/svg">
<path d="M18.7188 90.085H13.1729V94.6201H19.6152V96H11.4854V83.2031H19.5273V84.5918H13.1729V88.7051H18.7188V90.085ZM20.8896 91.166C20.8896 89.707 21.2354 88.5352 21.9268 87.6504C22.6182 86.7598 23.5234 86.3145 24.6426 86.3145C25.7559 86.3145 26.6377 86.6953 27.2881 87.457V82.5H28.9141V96H27.4199L27.3408 94.9805C26.6904 95.7773 25.7852 96.1758 24.625 96.1758C23.5234 96.1758 22.624 95.7246 21.9268 94.8223C21.2354 93.9199 20.8896 92.7422 20.8896 91.2891V91.166ZM22.5156 91.3506C22.5156 92.4287 22.7383 93.2725 23.1836 93.8818C23.6289 94.4912 24.2441 94.7959 25.0293 94.7959C26.0605 94.7959 26.8135 94.333 27.2881 93.4072V89.0391C26.8018 88.1426 26.0547 87.6943 25.0469 87.6943C24.25 87.6943 23.6289 88.002 23.1836 88.6172C22.7383 89.2324 22.5156 90.1436 22.5156 91.3506ZM37.3164 95.0596C36.6836 95.8037 35.7549 96.1758 34.5303 96.1758C33.5166 96.1758 32.7432 95.8828 32.21 95.2969C31.6826 94.7051 31.416 93.832 31.4102 92.6777V86.4902H33.0361V92.6338C33.0361 94.0752 33.6221 94.7959 34.7939 94.7959C36.0361 94.7959 36.8623 94.333 37.2725 93.4072V86.4902H38.8984V96H37.3516L37.3164 95.0596ZM45.1914 94.8486C45.7715 94.8486 46.2783 94.6729 46.7119 94.3213C47.1455 93.9697 47.3857 93.5303 47.4326 93.0029H48.9707C48.9414 93.5479 48.7539 94.0664 48.4082 94.5586C48.0625 95.0508 47.5996 95.4434 47.0195 95.7363C46.4453 96.0293 45.8359 96.1758 45.1914 96.1758C43.8965 96.1758 42.8652 95.7451 42.0977 94.8838C41.3359 94.0166 40.9551 92.833 40.9551 91.333V91.0605C40.9551 90.1348 41.125 89.3115 41.4648 88.5908C41.8047 87.8701 42.291 87.3105 42.9238 86.9121C43.5625 86.5137 44.3154 86.3145 45.1826 86.3145C46.249 86.3145 47.1338 86.6338 47.8369 87.2725C48.5459 87.9111 48.9238 88.7402 48.9707 89.7598H47.4326C47.3857 89.1445 47.1514 88.6406 46.7295 88.248C46.3135 87.8496 45.7979 87.6504 45.1826 87.6504C44.3564 87.6504 43.7148 87.9492 43.2578 88.5469C42.8066 89.1387 42.5811 89.9971 42.5811 91.1221V91.4297C42.5811 92.5254 42.8066 93.3691 43.2578 93.9609C43.709 94.5527 44.3535 94.8486 45.1914 94.8486ZM56.6699 96C56.5762 95.8125 56.5 95.4785 56.4414 94.998C55.6855 95.7832 54.7832 96.1758 53.7344 96.1758C52.7969 96.1758 52.0264 95.9121 51.4229 95.3848C50.8252 94.8516 50.5264 94.1777 50.5264 93.3633C50.5264 92.373 50.9014 91.6055 51.6514 91.0605C52.4072 90.5098 53.4678 90.2344 54.833 90.2344H56.415V89.4873C56.415 88.9189 56.2451 88.4678 55.9053 88.1338C55.5654 87.7939 55.0645 87.624 54.4023 87.624C53.8223 87.624 53.3359 87.7705 52.9434 88.0635C52.5508 88.3564 52.3545 88.7109 52.3545 89.127H50.7197C50.7197 88.6523 50.8867 88.1953 51.2207 87.7559C51.5605 87.3105 52.0176 86.959 52.5918 86.7012C53.1719 86.4434 53.8076 86.3145 54.499 86.3145C55.5947 86.3145 56.4531 86.5898 57.0742 87.1406C57.6953 87.6855 58.0176 88.4385 58.041 89.3994V93.7764C58.041 94.6494 58.1523 95.3438 58.375 95.8594V96H56.6699ZM53.9717 94.7607C54.4814 94.7607 54.9648 94.6289 55.4219 94.3652C55.8789 94.1016 56.21 93.7588 56.415 93.3369V91.3857H55.1406C53.1484 91.3857 52.1523 91.9688 52.1523 93.1348C52.1523 93.6445 52.3223 94.043 52.6621 94.3301C53.002 94.6172 53.4385 94.7607 53.9717 94.7607ZM62.7959 84.1875V86.4902H64.5713V87.7471H62.7959V93.6445C62.7959 94.0254 62.875 94.3125 63.0332 94.5059C63.1914 94.6934 63.4609 94.7871 63.8418 94.7871C64.0293 94.7871 64.2871 94.752 64.6152 94.6816V96C64.1875 96.1172 63.7715 96.1758 63.3672 96.1758C62.6406 96.1758 62.0928 95.9561 61.7236 95.5166C61.3545 95.0771 61.1699 94.4531 61.1699 93.6445V87.7471H59.4385V86.4902H61.1699V84.1875H62.7959ZM68.2451 96H66.6191V86.4902H68.2451V96ZM66.4873 83.9678C66.4873 83.7041 66.5664 83.4814 66.7246 83.2998C66.8887 83.1182 67.1289 83.0273 67.4453 83.0273C67.7617 83.0273 68.002 83.1182 68.166 83.2998C68.3301 83.4814 68.4121 83.7041 68.4121 83.9678C68.4121 84.2314 68.3301 84.4512 68.166 84.627C68.002 84.8027 67.7617 84.8906 67.4453 84.8906C67.1289 84.8906 66.8887 84.8027 66.7246 84.627C66.5664 84.4512 66.4873 84.2314 66.4873 83.9678ZM70.4248 91.1572C70.4248 90.2256 70.6064 89.3877 70.9697 88.6436C71.3389 87.8994 71.8486 87.3252 72.499 86.9209C73.1553 86.5166 73.9023 86.3145 74.7402 86.3145C76.0352 86.3145 77.0811 86.7627 77.8779 87.6592C78.6807 88.5557 79.082 89.748 79.082 91.2363V91.3506C79.082 92.2764 78.9033 93.1084 78.5459 93.8467C78.1943 94.5791 77.6875 95.1504 77.0254 95.5605C76.3691 95.9707 75.6133 96.1758 74.7578 96.1758C73.4688 96.1758 72.4229 95.7275 71.6201 94.8311C70.8232 93.9346 70.4248 92.748 70.4248 91.2715V91.1572ZM72.0596 91.3506C72.0596 92.4053 72.3027 93.252 72.7891 93.8906C73.2812 94.5293 73.9375 94.8486 74.7578 94.8486C75.584 94.8486 76.2402 94.5264 76.7266 93.8818C77.2129 93.2314 77.4561 92.3232 77.4561 91.1572C77.4561 90.1143 77.207 89.2705 76.709 88.626C76.2168 87.9756 75.5605 87.6504 74.7402 87.6504C73.9375 87.6504 73.29 87.9697 72.7979 88.6084C72.3057 89.2471 72.0596 90.1611 72.0596 91.3506ZM82.6592 86.4902L82.7119 87.6855C83.4385 86.7715 84.3877 86.3145 85.5596 86.3145C87.5693 86.3145 88.583 87.4482 88.6006 89.7158V96H86.9746V89.707C86.9688 89.0215 86.8105 88.5146 86.5 88.1865C86.1953 87.8584 85.7178 87.6943 85.0674 87.6943C84.54 87.6943 84.0771 87.835 83.6787 88.1162C83.2803 88.3975 82.9697 88.7666 82.7471 89.2236V96H81.1211V86.4902H82.6592Z" fill="#EEF1EF"/>
<circle cx="50" cy="41" r="36.5" stroke="#EEF1EF" stroke-width="3"/>
<path fill-rule="evenodd" clip-rule="evenodd" d="M49.918 18.0622L23.5994 32.4552L50.082 46.9378L76.4006 32.5448L49.918 18.0622ZM18 32.4074L50.1693 50L82 32.5926L49.8307 15L18 32.4074Z" fill="#EEF1EF"/>
<path d="M31 38V60" stroke="#EEF1EF" stroke-width="3"/>
<path d="M70 38V60" stroke="#EEF1EF" stroke-width="3"/>
<path d="M31 59C46.1851 69.7876 54.7282 69.545 70 59" stroke="#EEF1EF" stroke-width="3"/>
</svg>
