<svg width="60" height="50" viewBox="0 0 60 50" fill="none" xmlns="http://www.w3.org/2000/svg">
<path fill-rule="evenodd" clip-rule="evenodd" d="M54 6H6V44H54V6ZM0 0V50H60V0H0Z" fill="#EEF1EF"/>
<path d="M36 42C36 46.4183 33.3137 50 30 50C26.6863 50 24 46.4183 24 42C24 37.5817 26.6863 34 30 34C33.3137 34 36 37.5817 36 42Z" fill="#EEF1EF"/>
<path d="M46 26C46 33.732 38.8366 40 30 40C21.1634 40 14 33.732 14 26C14 18.268 21.1634 12 30 12C38.8366 12 46 18.268 46 26Z" fill="#EEF1EF"/>
<path d="M17.9711 10.9116C17.9711 9.37197 19.6378 8.40972 20.9711 9.17952L25.3134 11.6865C26.6467 12.4563 26.6467 14.3808 25.3134 15.1506L20.9711 17.6577C19.6378 18.4275 17.9711 17.4652 17.9711 15.9256V10.9116Z" fill="#EEF1EF"/>
<path d="M42.866 15.9256C42.866 17.4652 41.1994 18.4274 39.866 17.6576L35.5238 15.1506C34.1904 14.3808 34.1904 12.4563 35.5238 11.6865L39.866 9.1795C41.1994 8.4097 42.866 9.37195 42.866 10.9116V15.9256Z" fill="#EEF1EF"/>
</svg>
