<svg width="60" height="60" viewBox="0 0 60 60" fill="none" xmlns="http://www.w3.org/2000/svg">
<rect x="2.5" y="2.5" width="55" height="45" stroke="#EEF1EF" stroke-width="5"/>
<ellipse cx="30" cy="19.5" rx="11" ry="11.5" fill="#EEF1EF"/>
<path d="M45 45C45 43.0302 44.612 41.0796 43.8582 39.2597C43.1044 37.4399 41.9995 35.7863 40.6066 34.3934C39.2137 33.0005 37.5601 31.8956 35.7403 31.1418C33.9204 30.388 31.9698 30 30 30C28.0302 30 26.0796 30.388 24.2597 31.1418C22.4399 31.8956 20.7863 33.0005 19.3934 34.3934C18.0005 35.7863 16.8956 37.4399 16.1418 39.2597C15.388 41.0796 15 43.0302 15 45L30 45H45Z" fill="#EEF1EF"/>
</svg>
