<svg width="30" height="25" viewBox="0 0 30 25" fill="none" xmlns="http://www.w3.org/2000/svg">
<path fill-rule="evenodd" clip-rule="evenodd" d="M27 3H3V22H27V3ZM0 0V25H30V0H0Z" fill="#EEF1EF"/>
<path d="M18 21C18 23.2091 16.6569 25 15 25C13.3431 25 12 23.2091 12 21C12 18.7909 13.3431 17 15 17C16.6569 17 18 18.7909 18 21Z" fill="#EEF1EF"/>
<path d="M23 13C23 16.866 19.4183 20 15 20C10.5817 20 7 16.866 7 13C7 9.13401 10.5817 6 15 6C19.4183 6 23 9.13401 23 13Z" fill="#EEF1EF"/>
<path d="M8.98556 5.45579C8.98556 4.68599 9.81889 4.20486 10.4856 4.58976L12.6567 5.84327C13.3234 6.22817 13.3234 7.19042 12.6567 7.57532L10.4856 8.82883C9.81889 9.21373 8.98556 8.7326 8.98556 7.9628V5.45579Z" fill="#EEF1EF"/>
<path d="M21.433 7.96279C21.433 8.73259 20.5997 9.21372 19.933 8.82882L17.7619 7.57531C17.0952 7.19041 17.0952 6.22816 17.7619 5.84326L19.933 4.58975C20.5997 4.20485 21.433 4.68598 21.433 5.45578V7.96279Z" fill="#EEF1EF"/>
</svg>
