<svg width="100" height="100" viewBox="0 0 100 100" fill="none" xmlns="http://www.w3.org/2000/svg">
<path d="M66.6667 25H79.1667C80.2717 25 81.3315 25.439 82.113 26.2204C82.8944 27.0018 83.3333 28.0616 83.3333 29.1667V75C83.3333 77.2101 82.4554 79.3298 80.8926 80.8926C79.3298 82.4554 77.2101 83.3333 75 83.3333C72.7899 83.3333 70.6703 82.4554 69.1074 80.8926C67.5446 79.3298 66.6667 77.2101 66.6667 75V20.8333C66.6667 19.7283 66.2277 18.6685 65.4463 17.8871C64.6649 17.1057 63.6051 16.6667 62.5 16.6667H20.8333C19.7283 16.6667 18.6685 17.1057 17.8871 17.8871C17.1057 18.6685 16.6667 19.7283 16.6667 20.8333V70.8333C16.6667 74.1485 17.9836 77.328 20.3278 79.6722C22.672 82.0164 25.8515 83.3333 29.1667 83.3333H75" stroke="white" stroke-width="4.16667" stroke-linecap="round" stroke-linejoin="round"/>
<path d="M33.3333 33.3333H50" stroke="white" stroke-width="4.16667" stroke-linecap="round" stroke-linejoin="round"/>
<path d="M33.3333 50H50" stroke="white" stroke-width="4.16667" stroke-linecap="round" stroke-linejoin="round"/>
<path d="M33.3333 66.6667H50" stroke="white" stroke-width="4.16667" stroke-linecap="round" stroke-linejoin="round"/>
</svg>
