<svg width="100" height="100" viewBox="0 0 100 100" fill="none" xmlns="http://www.w3.org/2000/svg">
<path d="M50 66.6667C59.2047 66.6667 66.6667 59.2048 66.6667 50C66.6667 40.7953 59.2047 33.3333 50 33.3333C40.7953 33.3333 33.3333 40.7953 33.3333 50C33.3333 59.2048 40.7953 66.6667 50 66.6667Z" stroke="white" stroke-width="4.16667" stroke-linecap="round" stroke-linejoin="round"/>
<path d="M66.6667 50V56.25C66.6667 59.0127 67.7641 61.6622 69.7176 63.6157C71.6711 65.5692 74.3207 66.6667 77.0833 66.6667C79.846 66.6667 82.4955 65.5692 84.449 63.6157C86.4025 61.6622 87.5 59.0127 87.5 56.25V50C87.5104 41.9421 84.9249 34.0952 80.1267 27.6216C75.3284 21.1481 68.5726 16.3923 60.86 14.0588C53.1473 11.7252 44.8882 11.938 37.306 14.6657C29.7238 17.3933 23.2219 22.4908 18.7634 29.2028C14.3049 35.9149 12.127 43.8845 12.5523 51.9312C12.9776 59.9779 15.9836 67.6736 21.1248 73.8782C26.2661 80.0828 33.2691 84.4664 41.0966 86.3795C48.9241 88.2927 57.1597 87.6336 64.5833 84.5" stroke="white" stroke-width="4.16667" stroke-linecap="round" stroke-linejoin="round"/>
</svg>
