<svg width="100" height="100" viewBox="0 0 100 100" fill="none" xmlns="http://www.w3.org/2000/svg">
<path d="M62.5 87.5V72.9167C62.5 68.75 62.9167 67.0833 60.4167 64.5833C72.0833 63.3333 83.3333 58.75 83.3333 39.5833C83.3283 34.604 81.3856 29.8221 77.9167 26.25C79.5436 21.9249 79.3938 17.1318 77.5 12.9167C77.5 12.9167 72.9167 11.6667 62.9167 18.3333C54.4468 16.1275 45.5532 16.1275 37.0833 18.3333C27.0833 11.6667 22.5 12.9167 22.5 12.9167C20.6062 17.1318 20.4564 21.9249 22.0833 26.25C18.6144 29.8221 16.6717 34.604 16.6667 39.5833C16.6667 58.75 27.9167 63.3333 39.5833 64.5833C37.0833 67.0833 37.0833 69.5833 37.5 72.9167V87.5M37.5 79.1667C19.5833 85 19.5833 68.75 12.5 66.6667L37.5 79.1667Z" stroke="white" stroke-width="4.16667" stroke-linecap="round" stroke-linejoin="round"/>
</svg>
