<svg width="100" height="100" viewBox="0 0 100 100" fill="none" xmlns="http://www.w3.org/2000/svg">
<path d="M75 16.6667H25C20.3976 16.6667 16.6667 20.3976 16.6667 25V75C16.6667 79.6024 20.3976 83.3333 25 83.3333H75C79.6024 83.3333 83.3333 79.6024 83.3333 75V25C83.3333 20.3976 79.6024 16.6667 75 16.6667Z" stroke="white" stroke-width="4.16667" stroke-linecap="round" stroke-linejoin="round"/>
<path d="M33.3333 45.8333V66.6667" stroke="white" stroke-width="4.16667" stroke-linecap="round" stroke-linejoin="round"/>
<path d="M33.3333 33.3333V33.375" stroke="white" stroke-width="4.16667" stroke-linecap="round" stroke-linejoin="round"/>
<path d="M50 66.6667V45.8333" stroke="white" stroke-width="4.16667" stroke-linecap="round" stroke-linejoin="round"/>
<path d="M66.6667 66.6667V54.1667C66.6667 51.9565 65.7887 49.8369 64.2259 48.2741C62.6631 46.7113 60.5435 45.8333 58.3333 45.8333C56.1232 45.8333 54.0036 46.7113 52.4408 48.2741C50.878 49.8369 50 51.9565 50 54.1667" stroke="white" stroke-width="4.16667" stroke-linecap="round" stroke-linejoin="round"/>
</svg>
